<?xml version="1.0" encoding="utf-8"?>
<!-- Generator: Adobe Illustrator 16.0.0, SVG Export Plug-In . SVG Version: 6.00 Build 0)  -->
<!DOCTYPE svg PUBLIC "-//W3C//DTD SVG 1.1//EN" "http://www.w3.org/Graphics/SVG/1.1/DTD/svg11.dtd">
<svg version="1.1" id="图层_1" xmlns="http://www.w3.org/2000/svg" xmlns:xlink="http://www.w3.org/1999/xlink" x="0px" y="0px"
	 width="20px" height="20px" viewBox="0 0 20 20" enable-background="new 0 0 20 20" xml:space="preserve">
<path fill="#1185D1" d="M1,10c0,4.971,4.029,9,9,9s9-4.029,9-9h-0.9c0,4.474-3.626,8.1-8.1,8.1S1.9,14.474,1.9,10H1"/>
<path fill="#1185D1" d="M1,10c0-4.971,4.029-9,9-9s9,4.029,9,9h-0.9c0-4.474-3.626-8.1-8.1-8.1S1.9,5.526,1.9,10H1"/>
<path fill="#1185D1" d="M4,10c0,3.313,2.687,6,6,6s6-2.687,6-6s-2.687-6-6-6S4,6.687,4,10"/>
</svg>
