<?xml version="1.0"?>
<svg xmlns="http://www.w3.org/2000/svg" xmlns:xlink="http://www.w3.org/1999/xlink" version="1.1" id="Capa_1" x="0px" y="0px" viewBox="0 0 125.26 125.26" style="enable-background:new 0 0 125.26 125.26;" xml:space="preserve" width="512px" height="512px"><g><g>
	<path d="M103.787,0H21.473C9.663,0,0,9.663,0,21.473v82.314c0,11.81,9.663,21.473,21.473,21.473h82.314   c11.81,0,21.473-9.663,21.473-21.473V21.473C125.26,9.663,115.597,0,103.787,0z M95.731,37.403c0.737,0.05,1.263,1.059,1.181,2.244   c-0.086,1.192-0.748,2.115-1.485,2.065c-0.737-0.054-1.267-1.059-1.181-2.251C94.328,38.269,94.993,37.352,95.731,37.403z    M92.606,33.316c0.923,0.068,1.585,1.328,1.482,2.817c-0.107,1.492-0.938,2.648-1.861,2.584c-0.92-0.068-1.582-1.328-1.478-2.813   C90.856,34.403,91.69,33.251,92.606,33.316z M87.66,29.626c1.245-0.068,2.348,1.514,2.455,3.529   c0.111,2.015-0.812,3.704-2.058,3.772c-1.249,0.072-2.348-1.51-2.455-3.529C85.495,31.387,86.415,29.697,87.66,29.626z    M80.642,27.017c1.535-0.086,2.892,1.857,3.024,4.345c0.136,2.487-0.995,4.567-2.534,4.649c-1.535,0.082-2.888-1.861-3.024-4.345   C77.972,29.182,79.107,27.099,80.642,27.017z M44.614,37.313c1.535,0.082,2.67,2.165,2.534,4.649   c-0.136,2.487-1.492,4.427-3.028,4.348c-1.535-0.082-2.67-2.162-2.534-4.653C41.726,39.171,43.082,37.227,44.614,37.313z    M37.596,39.926c1.245,0.068,2.165,1.754,2.058,3.772c-0.107,2.018-1.21,3.597-2.455,3.529c-1.245-0.072-2.165-1.757-2.058-3.772   C35.252,41.436,36.35,39.858,37.596,39.926z M32.65,43.612c0.92-0.064,1.754,1.092,1.857,2.588   c0.107,1.489-0.558,2.749-1.478,2.813c-0.92,0.068-1.754-1.092-1.861-2.584C31.068,44.94,31.73,43.676,32.65,43.612z    M29.526,47.695c0.737-0.05,1.399,0.873,1.482,2.061c0.086,1.192-0.444,2.197-1.177,2.251c-0.734,0.054-1.399-0.873-1.485-2.061   C28.262,48.758,28.788,47.753,29.526,47.695z M47.456,67.504c-3.199,3.303-3.736,8.636-1.102,12.279   c1.102,1.51,7.659,8.145,5.705,14.702c-0.984,3.328-3.217,4.817-6.138,5.426c-9.702,2.015-10.733-5.687-10.83-9.101   c-0.093-3.207-0.569-6.324-1.89-9.258c-3.246-7.369-8.156-18.907-3.335-24.476c7.108-8.199,24.028-7.63,25.181-1.016   C56.002,61.567,50.218,64.648,47.456,67.504z M57.348,42.016c-0.573,3.543-2.813,6.138-5.003,5.783   c-2.194-0.358-3.507-3.514-2.938-7.065c0.569-3.55,2.813-6.138,5-5.787C56.603,35.302,57.917,38.465,57.348,42.016z M67.909,31.712   c-0.569-3.543,0.744-6.71,2.938-7.065c2.19-0.347,4.431,2.244,5,5.787c0.573,3.55-0.741,6.714-2.935,7.065   C70.722,37.857,68.481,35.266,67.909,31.712z M92.059,71.255c-1.324,2.935-1.797,6.048-1.89,9.255   c-0.1,3.418-1.127,11.116-10.83,9.105c-2.92-0.608-5.15-2.097-6.138-5.426c-1.954-6.556,4.606-13.195,5.705-14.702   c2.638-3.643,2.094-8.976-1.102-12.279c-2.763-2.86-8.546-5.937-7.591-11.449c1.149-6.61,18.07-7.179,25.181,1.024   C100.211,52.348,95.301,63.89,92.059,71.255z" data-original="#010002" class="active-path" data-old_color="#010002" fill="#D7D7D7"/>
</g></g> </svg>
