<?xml version="1.0"?>
<svg xmlns="http://www.w3.org/2000/svg" height="512px" viewBox="0 -21 512 512" width="512px"><g><path d="m346.667969 208h-16c-1.664063 0-3.265625-.789062-5.101563-3.15625l-19.242187-21.65625c-7.101563-7.957031-17.257813-12.519531-27.902344-12.519531h-44.84375c-10.644531 0-20.800781 4.5625-27.902344 12.519531l-20.074219 22.679688c-1.003906 1.320312-2.605468 2.132812-4.269531 2.132812h-16c-20.585937 0-37.332031 16.746094-37.332031 37.332031v101.335938c0 20.585937 16.746094 37.332031 37.332031 37.332031h181.335938c20.585937 0 37.332031-16.746094 37.332031-37.332031v-101.335938c0-20.585937-16.746094-37.332031-37.332031-37.332031zm-90.667969 138.667969c-29.398438 0-53.332031-23.9375-53.332031-53.335938 0-29.394531 23.933593-53.332031 53.332031-53.332031s53.332031 23.9375 53.332031 53.332031c0 29.398438-23.933593 53.335938-53.332031 53.335938zm0 0" data-original="#000000" class="active-path" data-old_color="#000000" fill="#D7D7D7"/><path d="m448 0h-384c-35.285156 0-64 28.714844-64 64v341.332031c0 35.285157 28.714844 64 64 64h384c35.285156 0 64-28.714843 64-64v-341.332031c0-35.285156-28.714844-64-64-64zm0 426.667969h-384c-11.753906 0-21.332031-9.558594-21.332031-21.335938v-298.664062h426.664062v298.664062c0 11.777344-9.578125 21.335938-21.332031 21.335938zm0 0" data-original="#000000" class="active-path" data-old_color="#000000" fill="#D7D7D7"/></g> </svg>
