<?xml version="1.0" encoding="UTF-8" standalone="no"?>
<!DOCTYPE svg PUBLIC "-//W3C//DTD SVG 1.1//EN" "http://www.w3.org/Graphics/SVG/1.1/DTD/svg11.dtd">
<!-- 由 Microsoft Visio, SVG Export 生成 daq.svg 页-1 -->
<svg xmlns="http://www.w3.org/2000/svg" xmlns:xlink="http://www.w3.org/1999/xlink" xmlns:ev="http://www.w3.org/2001/xml-events"
		xmlns:v="http://schemas.microsoft.com/visio/2003/SVGExtensions/" width="5.10433in" height="2.83574in"
		viewBox="0 0 367.512 204.173" xml:space="preserve" color-interpolation-filters="sRGB" class="st2">
	<v:documentProperties v:langID="2052" v:viewMarkup="false"/>

	<style type="text/css">
	<![CDATA[
		.st1 {fill:#d7d7d7;stroke:none;stroke-linecap:butt;stroke-width:6.12}
		.st2 {fill:none;fill-rule:evenodd;font-size:12px;overflow:visible;stroke-linecap:square;stroke-miterlimit:3}
	]]>
	</style>

	<g v:mID="0" v:index="1" v:groupContext="foregroundPage">
		<title>页-1</title>
		<v:pageProperties v:drawingScale="0.0393701" v:pageScale="0.0393701" v:drawingUnits="24" v:shadowOffsetX="9"
				v:shadowOffsetY="-9"/>
		<g id="group323-1" v:mID="323" v:groupContext="group">
			<title>工作表.323</title>
			<g id="shape324-2" v:mID="324" v:groupContext="shape" transform="translate(38.9764,-27.6482)">
				<title>工作表.324</title>
				<path d="M193.21 130.5 C200.35 130.5 198.31 167.6 205.8 167.6 C213.28 167.6 210.22 146.81 219.74 146.81 C229.27 146.81
							 226.89 183.2 235.39 183.2 C243.89 183.2 244.57 138.38 253.42 138.38 C262.26 138.38 259.88 157.74 268.04
							 157.74 C276.21 157.74 275.19 130.32 288.79 130.14 C289.81 130.14 291.17 130.14 292.2 130.14 C300.36
							 129.96 305.12 129.96 305.12 129.96 C305.8 129.96 306.14 129.78 306.14 129.78 C306.14 129.6 305.8 129.42
							 305.12 129.42 C305.12 129.42 300.36 129.24 292.2 129.24 C291.17 129.24 290.15 129.24 289.13 129.24 C275.53
							 129.24 276.21 101.46 268.38 101.46 C260.22 101.46 262.6 120.82 253.76 120.82 C244.91 120.82 244.57 76
							 235.73 76 C227.23 76 229.61 112.39 220.08 112.39 C210.56 112.39 213.62 91.6 206.14 91.6 C198.65 91.6
							 200.35 128.7 193.55 128.7 C181.98 128.7 182.66 105.76 176.2 105.76 C169.4 105.76 171.44 128.35 164.3
							 128.53 C160.55 128.53 146.95 128.53 146.95 128.53 C134.7 128.53 133.68 92.67 126.88 92.67 C120.08 92.67
							 120.42 107.37 113.27 107.37 C106.13 107.37 106.47 72.42 98.99 72.42 C91.5 72.42 94.56 89.45 85.04 89.45
							 C75.51 89.45 77.9 55.03 69.05 55.03 C60.55 55.03 59.87 115.08 51.02 115.08 C42.18 115.08 46.26 86.04
							 38.1 86.04 C29.93 86.04 30.95 128.88 17.35 129.06 C16.33 129.06 15.31 129.06 14.29 129.06 C6.12 129.24
							 1.36 129.24 1.36 129.24 C0.68 129.24 0 129.42 0 129.6 C0 129.78 0.34 129.96 1.02 129.96 C1.02 129.96
							 5.78 130.14 13.95 130.14 C14.97 130.14 15.99 130.14 17.35 130.14 C30.95 130.32 29.93 173.16 38.1 173.16
							 C46.26 173.16 42.18 144.12 51.02 144.12 C59.87 144.12 60.21 204.17 69.05 204.17 C77.56 204.17 75.17
							 169.58 84.7 169.58 C94.22 169.58 91.16 186.61 98.65 186.61 C106.13 186.61 105.79 151.65 112.93 151.65
							 C120.08 151.65 119.74 166.35 126.54 166.35 C133.34 166.35 134.36 130.5 146.61 130.5 C148.65 130.5 160.55
							 130.5 163.96 130.5 C171.1 130.86 169.06 153.26 175.86 153.26 C182.66 153.44 181.98 130.5 193.21 130.5
							 Z" class="st1"/>
			</g>
		</g>
	</g>
</svg>
