<?xml version="1.0" encoding="UTF-8" standalone="no"?>
<!DOCTYPE svg PUBLIC "-//W3C//DTD SVG 1.1//EN" "http://www.w3.org/Graphics/SVG/1.1/DTD/svg11.dtd">
<!-- 由 Microsoft Visio, SVG Export 生成 display.svg 页-1 -->
<svg xmlns="http://www.w3.org/2000/svg" xmlns:xlink="http://www.w3.org/1999/xlink" xmlns:ev="http://www.w3.org/2001/xml-events"
		xmlns:v="http://schemas.microsoft.com/visio/2003/SVGExtensions/" width="5.33333in" height="3.69417in"
		viewBox="0 0 384 265.98" xml:space="preserve" color-interpolation-filters="sRGB" class="st2">
	<v:documentProperties v:langID="2052" v:viewMarkup="false"/>

	<style type="text/css">
	<![CDATA[
		.st1 {fill:#d7d7d7;stroke:none;stroke-linecap:butt;stroke-width:0.612}
		.st2 {fill:none;fill-rule:evenodd;font-size:12px;overflow:visible;stroke-linecap:square;stroke-miterlimit:3}
	]]>
	</style>

	<g v:mID="0" v:index="1" v:groupContext="foregroundPage">
		<title>页-1</title>
		<v:pageProperties v:drawingScale="0.0393701" v:pageScale="0.0393701" v:drawingUnits="24" v:shadowOffsetX="9"
				v:shadowOffsetY="-9"/>
		<g id="group273-1" v:mID="273" v:groupContext="group">
			<title>工作表.273</title>
			<g id="shape274-2" v:mID="274" v:groupContext="shape" transform="translate(57.424,-14.7521)">
				<title>工作表.274</title>
				<path d="M252.59 29.48 L16.13 29.48 C7.22 29.48 0 36.7 0 45.61 L0 249.85 C0 258.76 7.22 265.98 16.13 265.98 L252.59
							 265.98 C261.5 265.98 268.72 258.76 268.72 249.85 L268.72 45.61 C268.72 36.7 261.5 29.48 252.59 29.48
							 ZM212.28 40.22 C218.22 40.22 223.02 45.01 223.02 50.96 C223.02 56.9 218.22 61.69 212.28 61.69 C206.34
							 61.69 201.54 56.9 201.54 50.96 C201.54 45.01 206.39 40.22 212.28 40.22 ZM182.71 40.22 C188.66 40.22
							 193.45 45.01 193.45 50.96 C193.45 56.9 188.61 61.69 182.71 61.69 C176.77 61.69 171.97 56.9 171.97 50.96
							 C171.97 45.01 176.82 40.22 182.71 40.22 ZM87.79 249.8 C91.63 227.55 111.01 210.54 134.36 210.54 C157.72
							 210.54 177.09 227.5 180.93 249.8 L87.79 249.8 ZM252.59 243.72 C252.59 238.51 248.34 234.35 243.13 234.35
							 L225.95 234.35 C223.71 225.76 220.24 217.45 215.8 209.95 L228 197.75 C231.71 194.05 231.71 188.06 228
							 184.36 L207.94 164.25 C204.24 160.55 198.25 160.55 194.55 164.25 L182.3 176.45 C174.76 172.02 166.49
							 168.54 157.9 166.31 L157.9 149.12 C157.9 143.91 153.79 139.66 148.53 139.66 L120.19 139.66 C114.98 139.66
							 110.87 143.91 110.87 149.12 L110.87 166.31 C102.28 168.54 93.96 172.02 86.47 176.45 L74.26 164.25 C70.56
							 160.55 64.58 160.55 60.87 164.25 L40.81 184.31 C37.11 188.01 37.11 194 40.81 197.7 L53.01 209.95 C48.58
							 217.49 45.11 225.76 42.87 234.35 L25.59 234.35 C20.38 234.35 16.13 238.47 16.13 243.72 L16.13 72.48
							 L252.59 72.48 L252.59 243.72 ZM241.85 61.69 C235.91 61.69 231.11 56.9 231.11 50.96 C231.11 45.01 235.96
							 40.22 241.85 40.22 C247.79 40.22 252.59 45.01 252.59 50.96 C252.59 56.9 247.79 61.69 241.85 61.69 Z"
						class="st1"/>
			</g>
		</g>
	</g>
</svg>
