<?xml version="1.0"?>
<svg xmlns="http://www.w3.org/2000/svg" xmlns:xlink="http://www.w3.org/1999/xlink" version="1.1" id="Capa_1" x="0px" y="0px" width="512px" height="512px" viewBox="0 0 65.191 65.191" style="enable-background:new 0 0 65.191 65.191;" xml:space="preserve"><g><g>
	<g>
		<path d="M60.649,52.213l-0.408-0.955L59.833,52.3l-0.65-1.909L58.366,52.3V40.668l-1.385,6.075l-0.897-10.677l-0.489,4.861    l-0.571-8.247l-0.815,5.643v-6.945l-0.979,5.469l-0.487-10.069l-0.326,7.899l-0.488-4.08l-0.653,1.736l-0.325-3.646l-0.652,5.903    l-0.897-7.899l-0.488,7.292l-0.815-10.07l-0.571,2.257l-0.406-2.431l-0.653,1.737l-0.896-8.16l-0.652,1.997L43.937,14.8    l-0.406,7.292L41.655,14.8L41.33,26.605l-0.652-12.152l-1.385,5.294v-5.729l-0.979,5.122l-0.49-2.518    c0,0-1.142,13.368-1.223,13.716c-0.082,0.347-0.488-11.024-0.488-11.024l-1.795,11.284l-0.65-8.159l-0.49,3.472l-0.571-1.649    l-0.57,3.385v-1.65l-1.142,5.903l-0.488-3.299l-0.815,5.035l-0.326-1.303l-1.142,4.08l-0.407-5.382l-1.548,10.851l-0.652-3.038    l-1.468,4.167l-1.956-2.431l-1.06,4.253l-0.652,4.602l-1.061-8.073L18.178,47.7l-1.059-5.99l-0.815,7.986l-0.733-4.688    l-1.468,5.903l-0.49-2.778l-0.488,3.212l-0.571-2.518l-0.814,2.431l-0.571-1.822l-0.978,1.736c0,0-0.897-7.292-0.978-7.553    c-0.082-0.26-1.305,7.812-1.305,7.812l-0.489-3.559l-1.223,3.385l-0.49-2.257l-0.733,2.82l-0.326-1.692L3.751,52.3l-0.49-2.17    l-0.57,3.386h58.854L60.649,52.213z" data-original="#000000" class="active-path" data-old_color="#000000" fill="#D7D7D7"/>
		<polygon points="63.108,9.651 59.549,9.651 59.549,11.735 63.108,11.735 63.108,16.943 59.549,16.943 59.549,19.026     63.108,19.026 63.108,24.235 59.549,24.235 59.549,26.318 63.108,26.318 63.108,31.526 59.549,31.526 59.549,33.609     63.108,33.609 63.108,38.818 59.549,38.818 59.549,40.901 63.108,40.901 63.108,46.109 59.549,46.109 59.549,48.193     63.108,48.193 63.108,55.079 0,55.079 0,57.162 3.646,57.162 3.646,59.245 5.729,59.245 5.729,57.162 10.938,57.162     10.938,59.245 13.021,59.245 13.021,57.162 18.229,57.162 18.229,59.245 20.312,59.245 20.312,57.162 25.521,57.162     25.521,59.245 27.604,59.245 27.604,57.162 32.812,57.162 32.812,59.245 34.896,59.245 34.896,57.162 40.104,57.162     40.104,59.245 42.188,59.245 42.188,57.162 47.396,57.162 47.396,59.245 49.479,59.245 49.479,57.162 54.688,57.162     54.688,59.245 56.771,59.245 56.771,57.162 65.191,57.162 65.191,5.946 63.108,5.946   " data-original="#000000" class="active-path" data-old_color="#000000" fill="#D7D7D7"/>
	</g>
</g></g> </svg>
