<?xml version="1.0" encoding="UTF-8" standalone="no"?>
<!DOCTYPE svg PUBLIC "-//W3C//DTD SVG 1.1//EN" "http://www.w3.org/Graphics/SVG/1.1/DTD/svg11.dtd">
<!-- 由 Microsoft Visio, SVG Export 生成 function.svg 页-1 -->
<svg xmlns="http://www.w3.org/2000/svg" xmlns:xlink="http://www.w3.org/1999/xlink" xmlns:ev="http://www.w3.org/2001/xml-events"
		xmlns:v="http://schemas.microsoft.com/visio/2003/SVGExtensions/" width="5.33333in" height="3.69417in"
		viewBox="0 0 384 265.98" xml:space="preserve" color-interpolation-filters="sRGB" class="st2">
	<v:documentProperties v:langID="2052" v:viewMarkup="false"/>

	<style type="text/css">
	<![CDATA[
		.st1 {fill:#d7d7d7;stroke:none;stroke-linecap:butt;stroke-width:0.783673}
		.st2 {fill:none;fill-rule:evenodd;font-size:12px;overflow:visible;stroke-linecap:square;stroke-miterlimit:3}
	]]>
	</style>

	<g v:mID="0" v:index="1" v:groupContext="foregroundPage">
		<title>页-1</title>
		<v:pageProperties v:drawingScale="0.0393701" v:pageScale="0.0393701" v:drawingUnits="24" v:shadowOffsetX="9"
				v:shadowOffsetY="-9"/>
		<g id="group346-1" v:mID="346" v:groupContext="group">
			<title>工作表.346</title>
			<g id="group354-2" transform="translate(78.257,-19.2516)" v:mID="354" v:groupContext="group">
				<title>工作表.354</title>
				<g id="shape355-3" v:mID="355" v:groupContext="shape">
					<title>工作表.355</title>
					<path d="M207.82 38.47 L207.82 74.6 C207.82 74.6 143 74.6 142.82 74.6 C140.82 66.47 133.44 60.53 124.76 60.53
								 C114.45 60.53 106.14 68.84 106.14 79.15 C106.14 89.45 114.45 97.77 124.76 97.77 C133.44 97.77 140.82
								 91.82 142.82 83.7 C143 83.7 207.82 83.7 207.82 83.7 L207.82 147.45 C207.82 147.45 192.13 147.45
								 191.94 147.45 C189.94 139.32 182.56 133.38 173.88 133.38 C163.57 133.38 155.26 141.69 155.26 152
								 C155.26 162.3 163.57 170.61 173.88 170.61 C182.56 170.61 189.94 164.67 191.94 156.55 C192.13 156.55
								 207.82 156.55 207.82 156.55 L207.82 220.29 C207.82 220.29 190.69 220.29 190.5 220.29 C188.5 212.17
								 181.12 206.23 172.44 206.23 C163.76 206.23 156.38 212.17 154.38 220.29 C154.19 220.29 126.38 220.29
								 126.2 220.29 C124.2 212.17 116.82 206.23 108.13 206.23 C99.45 206.23 92.07 212.17 90.07 220.29 C89.89
								 220.29 68.39 220.29 68.21 220.29 C66.21 212.17 58.83 206.23 50.14 206.23 C41.46 206.23 34.08 212.17
								 32.08 220.29 C31.9 220.29 19.64 220.29 19.64 220.29 L19.64 156.92 C19.64 156.92 31.9 156.92 32.08
								 156.92 C34.08 165.04 41.46 170.99 50.14 170.99 C58.83 170.99 66.21 165.04 68.21 156.92 C68.39 156.92
								 118.21 156.92 118.4 156.92 C120.39 165.04 127.77 170.99 136.46 170.99 C146.76 170.99 155.08 162.67
								 155.08 152.37 C155.08 142.06 146.76 133.75 136.46 133.75 C127.77 133.75 120.39 139.69 118.4 147.82
								 C118.21 147.82 68.39 147.82 68.21 147.82 C66.21 139.69 58.83 133.75 50.14 133.75 C41.46 133.75 34.08
								 139.69 32.08 147.82 C31.9 147.82 19.64 147.82 19.64 147.82 L19.64 83.79 C19.64 83.79 31.9 83.79
								 32.08 83.79 C34.08 91.92 41.46 97.86 50.14 97.86 C60.45 97.86 68.76 89.55 68.76 79.24 C68.76 68.93
								 60.45 60.62 50.14 60.62 C41.46 60.62 34.08 66.56 32.08 74.69 C31.9 74.69 19.64 74.69 19.64 74.69
								 L19.64 38.47 L0 38.47 L0 265.98 L19.69 265.98 L19.69 229.86 C19.69 229.86 31.94 229.86 32.13 229.86
								 C34.13 237.98 41.51 243.93 50.19 243.93 C58.87 243.93 66.26 237.98 68.25 229.86 C68.44 229.86 89.75
								 229.86 89.93 229.86 C91.93 237.98 99.31 243.93 108 243.93 C116.68 243.93 124.06 237.98 126.06 229.86
								 C126.24 229.86 154.05 229.86 154.24 229.86 C156.24 237.98 163.62 243.93 172.3 243.93 C180.98 243.93
								 188.37 237.98 190.36 229.86 C190.55 229.86 207.68 229.86 207.68 229.86 L207.68 265.98 L227.51 265.98
								 L227.51 38.47 L207.82 38.47 Z" class="st1"/>
				</g>
				<g id="shape356-5" v:mID="356" v:groupContext="shape" transform="translate(68.7625,-168.076)">
					<title>工作表.356</title>
					<ellipse cx="18.6183" cy="247.362" rx="18.6183" ry="18.6183" class="st1"/>
				</g>
			</g>
		</g>
	</g>
</svg>
