<?xml version="1.0"?>
<svg xmlns="http://www.w3.org/2000/svg" height="512px" viewBox="0 0 512 512" width="512px"><g><path d="m512 271v-30h-31.761719c-.640625-9.695312-1.71875-19.273438-3.558593-28.597656l29.515624-7.921875-7.761718-28.972657-29.65625 7.957032c-3.128906-9.152344-6.855469-18.003906-11.09375-26.585938l26.65625-15.386718-15-25.984376-26.503906 15.296876c-5.371094-7.992188-11.382813-15.496094-17.707032-22.71875l21.785156-21.789063-21.210937-21.210937-21.789063 21.785156c-7.222656-6.324219-14.726562-12.335938-22.71875-17.707032l15.296876-26.503906-25.984376-15-15.386718 26.65625c-8.582032-4.238281-17.433594-7.964844-26.585938-11.09375l7.957032-29.65625-28.972657-7.761718-7.921875 29.515624c-9.324218-1.839843-18.902344-2.917968-28.597656-3.558593v-31.761719h-30v31.761719c-9.695312.640625-19.273438 1.71875-28.597656 3.558593l-7.921875-29.515624-28.972657 7.761718 7.957032 29.65625c-9.152344 3.128906-18.003906 6.855469-26.585938 11.09375l-15.386718-26.65625-25.984376 15 15.296876 26.503906c-7.992188 5.371094-15.496094 11.382813-22.722657 17.707032l-21.785156-21.785156-21.210937 21.210937 21.785156 21.789063c-6.324219 7.222656-12.335938 14.726562-17.707032 22.71875l-26.503906-15.296876-15 25.984376 26.65625 15.386718c-4.238281 8.582032-7.964844 17.433594-11.09375 26.582032l-29.65625-7.953126-7.761718 28.972657 29.515624 7.917969c-1.839843 9.328124-2.917968 18.902343-3.558593 28.601562h-31.761719v30h31.761719c.640625 9.695312 1.71875 19.269531 3.558593 28.597656l-29.515624 7.917969 7.761718 28.976563 29.65625-7.957032c3.128906 9.152344 6.855469 18.003906 11.09375 26.582032l-26.65625 15.390624 15 25.984376 26.503906-15.296876c5.371094 7.992188 11.382813 15.496094 17.707032 22.722657l-21.785156 21.785156 21.210937 21.210937 21.789063-21.785156c7.222656 6.324219 14.726562 12.335938 22.71875 17.710938l-15.296876 26.5 25.984376 15 15.386718-26.652344c8.582032 4.234375 17.433594 7.960938 26.585938 11.089844l-7.957032 29.65625 28.972657 7.761718 7.921875-29.515624c9.324218 1.839843 18.902344 2.917968 28.597656 3.5625v31.757812h30v-31.761719c9.695312-.640625 19.273438-1.71875 28.597656-3.558593l7.921875 29.515624 28.972657-7.761718-7.957032-29.65625c9.152344-3.128906 18.003906-6.855469 26.585938-11.09375l15.386718 26.65625 25.984376-15-15.296876-26.503906c7.992188-5.371094 15.496094-11.382813 22.71875-17.707032l21.789063 21.785156 21.210937-21.210937-21.785156-21.789063c6.324219-7.222656 12.335938-14.726562 17.707032-22.71875l26.503906 15.296876 15-25.984376-26.65625-15.386718c4.238281-8.582032 7.964844-17.433594 11.09375-26.585938l29.65625 7.957032 7.761718-28.972657-29.515624-7.921875c1.839843-9.324218 2.917968-18.902344 3.558593-28.597656zm-397.679688 32.140625c-5.59375-16.757813-8.320312-32.167969-8.320312-47.140625 0-70.972656 50.464844-132.773438 120-146.96875v129.640625zm141.679688 102.859375c-42.261719 0-82.984375-18.546875-111.695312-50.875l111.695312-64.480469 111.695312 64.480469c-28.710937 32.328125-69.433593 50.875-111.695312 50.875zm141.679688-102.875v.015625l-111.679688-64.46875v-129.640625c69.535156 14.195312 120 75.996094 120 146.96875 0 14.972656-2.726562 30.382812-8.320312 47.125zm0 0" data-original="#000000" class="active-path" data-old_color="#000000" fill="#D7D7D7"/></g> </svg>
