<?xml version="1.0" encoding="UTF-8" standalone="no"?>
<!DOCTYPE svg PUBLIC "-//W3C//DTD SVG 1.1//EN" "http://www.w3.org/Graphics/SVG/1.1/DTD/svg11.dtd">
<!-- 由 Microsoft Visio, SVG Export 生成 logo_noColor.svg 页-1 -->
<svg xmlns="http://www.w3.org/2000/svg" xmlns:xlink="http://www.w3.org/1999/xlink" xmlns:ev="http://www.w3.org/2001/xml-events"
		xmlns:v="http://schemas.microsoft.com/visio/2003/SVGExtensions/" width="5.33333in" height="3.69417in"
		viewBox="0 0 384 265.98" xml:space="preserve" color-interpolation-filters="sRGB" class="st3">
	<v:documentProperties v:langID="2052" v:viewMarkup="false"/>

	<style type="text/css">
	<![CDATA[
		.st1 {stroke:#d7d7d7;stroke-linecap:round;stroke-linejoin:round;stroke-width:16}
		.st2 {stroke:#d7d7d7;stroke-linecap:butt;stroke-width:16}
		.st3 {fill:none;fill-rule:evenodd;font-size:12px;overflow:visible;stroke-linecap:square;stroke-miterlimit:3}
	]]>
	</style>

	<g v:mID="0" v:index="1" v:groupContext="foregroundPage">
		<title>页-1</title>
		<v:pageProperties v:drawingScale="0.0393701" v:pageScale="0.0393701" v:drawingUnits="24" v:shadowOffsetX="9"
				v:shadowOffsetY="-9"/>
		<g id="group401-1" v:mID="401" v:groupContext="group">
			<title>工作表.401</title>
			<g id="shape402-2" v:mID="402" v:groupContext="shape" transform="translate(312.771,156.361) rotate(90)">
				<title>工作表.402</title>
				<path d="M0 265.98 L9.92 265.98" class="st1"/>
			</g>
			<g id="shape403-5" v:mID="403" v:groupContext="shape" transform="translate(312.771,132.976) rotate(90)">
				<title>工作表.403</title>
				<path d="M0 265.98 L33.79 265.98" class="st2"/>
			</g>
			<g id="shape404-8" v:mID="404" v:groupContext="shape" transform="translate(343.657,198.881) rotate(90)">
				<title>工作表.404</title>
				<path d="M0 265.98 L6.96 265.98" class="st1"/>
			</g>
			<g id="shape405-11" v:mID="405" v:groupContext="shape" transform="translate(343.657,132.976) rotate(90)">
				<title>工作表.405</title>
				<path d="M0 265.98 L73.48 265.98" class="st2"/>
			</g>
			<g id="shape406-14" v:mID="406" v:groupContext="shape" transform="translate(375.547,238.566) rotate(90)">
				<title>工作表.406</title>
				<path d="M0 265.98 L6.96 265.98" class="st1"/>
			</g>
			<g id="shape407-17" v:mID="407" v:groupContext="shape" transform="translate(375.547,132.976) rotate(90)">
				<title>工作表.407</title>
				<path d="M0 265.98 L111.85 265.98" class="st2"/>
			</g>
			<g id="shape408-20" v:mID="408" v:groupContext="shape" transform="translate(407.437,198.881) rotate(90)">
				<title>工作表.408</title>
				<path d="M0 265.98 L6.96 265.98" class="st1"/>
			</g>
			<g id="shape409-23" v:mID="409" v:groupContext="shape" transform="translate(407.437,132.976) rotate(90)">
				<title>工作表.409</title>
				<path d="M0 265.98 L73.48 265.98" class="st2"/>
			</g>
			<g id="shape410-26" v:mID="410" v:groupContext="shape" transform="translate(439.327,159.196) rotate(90)">
				<title>工作表.410</title>
				<path d="M0 265.98 L6.96 265.98" class="st1"/>
			</g>
			<g id="shape411-29" v:mID="411" v:groupContext="shape" transform="translate(439.327,132.976) rotate(90)">
				<title>工作表.411</title>
				<path d="M0 265.98 L29.43 265.98" class="st2"/>
			</g>
			<g id="shape412-32" v:mID="412" v:groupContext="shape" transform="translate(70.8009,109.59) rotate(-90)">
				<title>工作表.412</title>
				<path d="M0 265.98 L9.92 265.98" class="st1"/>
			</g>
			<g id="shape413-35" v:mID="413" v:groupContext="shape" transform="translate(70.8009,132.976) rotate(-90)">
				<title>工作表.413</title>
				<path d="M0 265.98 L34.24 265.98" class="st2"/>
			</g>
			<g id="shape414-38" v:mID="414" v:groupContext="shape" transform="translate(39.9151,67.0701) rotate(-90)">
				<title>工作表.414</title>
				<path d="M0 265.98 L6.96 265.98" class="st1"/>
			</g>
			<g id="shape415-41" v:mID="415" v:groupContext="shape" transform="translate(39.9151,132.976) rotate(-90)">
				<title>工作表.415</title>
				<path d="M0 265.98 L71.09 265.98" class="st2"/>
			</g>
			<g id="shape416-44" v:mID="416" v:groupContext="shape" transform="translate(8.02532,27.3851) rotate(-90)">
				<title>工作表.416</title>
				<path d="M0 265.98 L6.96 265.98" class="st1"/>
			</g>
			<g id="shape417-47" v:mID="417" v:groupContext="shape" transform="translate(8.02532,132.976) rotate(-90)">
				<title>工作表.417</title>
				<path d="M0 265.98 L110.77 265.98" class="st2"/>
			</g>
			<g id="shape418-50" v:mID="418" v:groupContext="shape" transform="translate(-23.8644,67.0701) rotate(-90)">
				<title>工作表.418</title>
				<path d="M0 265.98 L6.96 265.98" class="st1"/>
			</g>
			<g id="shape419-53" v:mID="419" v:groupContext="shape" transform="translate(-23.8644,132.976) rotate(-90)">
				<title>工作表.419</title>
				<path d="M0 265.98 L71.09 265.98" class="st2"/>
			</g>
			<g id="shape420-56" v:mID="420" v:groupContext="shape" transform="translate(-55.7542,106.755) rotate(-90)">
				<title>工作表.420</title>
				<path d="M0 265.98 L6.96 265.98" class="st1"/>
			</g>
			<g id="shape421-59" v:mID="421" v:groupContext="shape" transform="translate(-55.7542,132.976) rotate(-90)">
				<title>工作表.421</title>
				<path d="M0 265.98 L31.4 265.98" class="st2"/>
			</g>
		</g>
	</g>
</svg>
