<?xml version="1.0" encoding="UTF-8" standalone="no"?>
<svg
   xmlns:dc="http://purl.org/dc/elements/1.1/"
   xmlns:cc="http://creativecommons.org/ns#"
   xmlns:rdf="http://www.w3.org/1999/02/22-rdf-syntax-ns#"
   xmlns:svg="http://www.w3.org/2000/svg"
   xmlns="http://www.w3.org/2000/svg"
   xmlns:sodipodi="http://sodipodi.sourceforge.net/DTD/sodipodi-0.dtd"
   xmlns:inkscape="http://www.inkscape.org/namespaces/inkscape"
   version="1.1"
   x="0px"
   y="0px"
   viewBox="0 0 512 512"
   enable-background="new 0 0 100 100"
   xml:space="preserve"
   id="svg10"
   sodipodi:docname="noun-infinity-328975.svg"
   width="512"
   height="512"
   inkscape:version="0.92.4 (5da689c313, 2019-01-14)"><metadata
     id="metadata16"><rdf:RDF><cc:Work
         rdf:about=""><dc:format>image/svg+xml</dc:format><dc:type
           rdf:resource="http://purl.org/dc/dcmitype/StillImage" /><dc:title></dc:title></cc:Work></rdf:RDF></metadata><defs
     id="defs14" /><sodipodi:namedview
     pagecolor="#ffffff"
     bordercolor="#666666"
     borderopacity="1"
     objecttolerance="10"
     gridtolerance="10"
     guidetolerance="10"
     inkscape:pageopacity="0"
     inkscape:pageshadow="2"
     inkscape:window-width="1435"
     inkscape:window-height="691"
     id="namedview12"
     showgrid="false"
     units="in"
     inkscape:zoom="0.472"
     inkscape:cx="335.03666"
     inkscape:cy="259.44081"
     inkscape:window-x="188"
     inkscape:window-y="1926"
     inkscape:window-maximized="0"
     inkscape:current-layer="svg10" /><g
     id="g4"
     transform="matrix(5.6976252,0,0,5.6976252,-28.881258,-28.881661)"
     style="fill:#d7d7d7;fill-opacity:1"><path
       d="m 50,55.6 c -6.965,6.966 -14.202,14.612 -25.265,14.612 -11.471,0 -19.666,-8.467 -19.666,-20.211 0,-10.789 8.741,-20.213 20.759,-20.213 10.107,0 17.616,8.058 24.172,14.612 6.965,-6.964 14.203,-14.612 25.266,-14.612 11.608,0 19.665,8.468 19.665,20.213 0,10.788 -8.741,20.211 -20.758,20.211 C 64.068,70.212 56.556,62.155 50,55.6 Z M 44.539,50.001 C 39.212,45.085 33.612,37.982 25.691,37.982 c -6.828,0 -12.017,5.6 -12.017,12.019 0,6.964 4.917,12.017 11.607,12.017 7.785,0 14.067,-6.692 19.258,-12.017 z m 41.791,0 c 0,-6.966 -4.917,-12.019 -11.61,-12.019 -7.784,0 -14.067,6.691 -19.256,12.019 5.325,4.916 10.925,12.017 18.846,12.017 6.828,0 12.02,-5.599 12.02,-12.017 z"
       id="path2"
       inkscape:connector-curvature="0"
       style="fill:#d7d7d7;fill-opacity:1" /></g></svg>