<?xml version="1.0"?>
<svg xmlns="http://www.w3.org/2000/svg" xmlns:xlink="http://www.w3.org/1999/xlink" version="1.1" id="Capa_1" x="0px" y="0px" viewBox="0 0 369.728 369.728" style="enable-background:new 0 0 369.728 369.728;" xml:space="preserve" width="512px" height="512px"><g><g>
	<path d="M222.796,170.7h121.929c13.469,0,24.386-10.917,24.386-24.386V24.386   C369.11,10.917,358.194,0,344.725,0H222.796c-13.469,0-24.386,10.917-24.386,24.386v121.929   C198.41,159.783,209.335,170.7,222.796,170.7z M241.28,75.547h32.677V42.87c0-5.422,4.398-9.811,9.803-9.811   c5.422,0,9.811,4.398,9.811,9.811v32.677h32.677c5.414,0,9.803,4.389,9.803,9.803c0,5.414-4.389,9.803-9.803,9.803h-32.677v32.677   c0,5.414-4.389,9.795-9.811,9.795c-5.406,0-9.803-4.389-9.803-9.795V95.153H241.28c-5.414,0-9.803-4.389-9.803-9.803   C231.486,79.936,235.867,75.547,241.28,75.547z" data-original="#010002" class="active-path" data-old_color="#010002" fill="#D7D7D7"/>
	<path d="M25.003,369.728h121.929c13.469,0,24.386-10.917,24.386-24.386V223.414   c0-13.469-10.917-24.386-24.386-24.386H25.003c-13.469,0-24.386,10.917-24.386,24.386v121.929   C0.618,358.803,11.534,369.728,25.003,369.728z M48.999,247.409c3.837-3.837,10.031-3.837,13.859,0l23.101,23.11l23.11-23.11   c3.829-3.829,10.039-3.829,13.867,0c3.829,3.837,3.829,10.039,0,13.867l-23.11,23.11l23.11,23.101   c3.829,3.829,3.82,10.031-0.008,13.859c-3.829,3.829-10.031,3.837-13.859,0l-23.11-23.101l-23.101,23.101   c-3.829,3.829-10.031,3.829-13.859,0c-3.82-3.82-3.829-10.031,0-13.859L72.1,284.386l-23.101-23.118   C45.162,257.448,45.17,251.238,48.999,247.409z" data-original="#010002" class="active-path" data-old_color="#010002" fill="#D7D7D7"/>
	<path d="M25.003,170.7h121.929c13.469,0,24.386-10.917,24.386-24.386V24.386   C171.318,10.917,160.401,0,146.932,0H25.003C11.534,0,0.618,10.917,0.618,24.386v121.929C0.618,159.783,11.534,170.7,25.003,170.7z    M49.389,77.221h73.157c4.487,0,8.129,3.642,8.129,8.129s-3.642,8.129-8.129,8.129H49.389c-4.487,0-8.129-3.642-8.129-8.129   S44.902,77.221,49.389,77.221z" data-original="#010002" class="active-path" data-old_color="#010002" fill="#D7D7D7"/>
	<path d="M222.796,369.728h121.929c13.469,0,24.386-10.917,24.386-24.386V223.414   c0-13.469-10.917-24.386-24.386-24.386H222.796c-13.461,0-24.386,10.917-24.386,24.386v121.929   C198.41,358.803,209.335,369.728,222.796,369.728z M283.76,335.239c-6.73,0-12.193-5.454-12.193-12.193   c0-6.739,5.462-12.193,12.193-12.193c6.739,0,12.193,5.454,12.193,12.193C295.953,329.784,290.507,335.239,283.76,335.239z    M283.76,245.824c6.739,0,12.193,5.454,12.193,12.193c0,6.739-5.454,12.193-12.193,12.193c-6.73,0-12.193-5.454-12.193-12.193   C271.568,251.279,277.03,245.824,283.76,245.824z M247.182,283.419h73.157c4.487,0,8.129,3.642,8.129,8.129   c0,4.487-3.642,8.129-8.129,8.129h-73.157c-4.487,0-8.129-3.642-8.129-8.129C239.053,287.061,242.695,283.419,247.182,283.419z" data-original="#010002" class="active-path" data-old_color="#010002" fill="#D7D7D7"/>
</g></g> </svg>
