<?xml version="1.0" encoding="UTF-8" standalone="no"?>
<!-- 由 Microsoft Visio, SVG Export 生成 moder.svg 页-1 -->

<svg
   xmlns:v="http://schemas.microsoft.com/visio/2003/SVGExtensions/"
   xmlns:dc="http://purl.org/dc/elements/1.1/"
   xmlns:cc="http://creativecommons.org/ns#"
   xmlns:rdf="http://www.w3.org/1999/02/22-rdf-syntax-ns#"
   xmlns:svg="http://www.w3.org/2000/svg"
   xmlns="http://www.w3.org/2000/svg"
   xmlns:sodipodi="http://sodipodi.sourceforge.net/DTD/sodipodi-0.dtd"
   xmlns:inkscape="http://www.inkscape.org/namespaces/inkscape"
   width="512"
   height="512"
   viewBox="0 0 384.00023 383.99965"
   xml:space="preserve"
   class="st4"
   version="1.1"
   id="svg97"
   sodipodi:docname="moder.svg"
   style="font-size:12px;overflow:visible;color-interpolation-filters:sRGB;fill:none;fill-rule:evenodd;stroke-linecap:square;stroke-miterlimit:3"
   inkscape:version="0.92.4 (5da689c313, 2019-01-14)"><metadata
   id="metadata103"><rdf:RDF><cc:Work
       rdf:about=""><dc:format>image/svg+xml</dc:format><dc:type
         rdf:resource="http://purl.org/dc/dcmitype/StillImage" /><dc:title></dc:title></cc:Work></rdf:RDF></metadata><defs
   id="defs101" /><sodipodi:namedview
   pagecolor="#ffffff"
   bordercolor="#666666"
   borderopacity="1"
   objecttolerance="10"
   gridtolerance="10"
   guidetolerance="10"
   inkscape:pageopacity="0"
   inkscape:pageshadow="2"
   inkscape:window-width="3840"
   inkscape:window-height="2081"
   id="namedview99"
   showgrid="false"
   units="px"
   inkscape:zoom="0.66210977"
   inkscape:cx="255.99985"
   inkscape:cy="177.32016"
   inkscape:window-x="-9"
   inkscape:window-y="-9"
   inkscape:window-maximized="1"
   inkscape:current-layer="svg97" />
	<v:documentProperties
   v:langID="2052"
   v:viewMarkup="false" />

	<style
   type="text/css"
   id="style2">
	<![CDATA[
		.st1 {fill:#d7d7d7;stroke:none;stroke-linecap:butt;stroke-width:1.37143}
		.st2 {fill:#d7d7d7;stroke:#d7d7d7;stroke-linecap:round;stroke-linejoin:round;stroke-width:0.5}
		.st3 {stroke:#d7d7d7;stroke-linecap:round;stroke-linejoin:round;stroke-width:10}
		.st4 {fill:none;fill-rule:evenodd;font-size:12px;overflow:visible;stroke-linecap:square;stroke-miterlimit:3}
	]]>
	</style>

	<g
   v:mID="0"
   v:index="1"
   v:groupContext="foregroundPage"
   id="g95"
   transform="translate(2.833615,54.417725)">
		<title
   id="title4">页-1</title>
		<v:pageProperties
   v:drawingScale="0.0393701"
   v:pageScale="0.0393701"
   v:drawingUnits="24"
   v:shadowOffsetX="9"
   v:shadowOffsetY="-9" />
		<g
   id="group31-1"
   v:mID="31"
   v:groupContext="group">
			<title
   id="title6">工作表.31</title>
			<g
   id="group32-2"
   transform="translate(28.3465,-17.0079)"
   v:mID="32"
   v:groupContext="group">
				<title
   id="title8">工作表.32</title>
				<g
   id="shape33-3"
   v:mID="33"
   v:groupContext="shape">
					<title
   id="title10">工作表.33</title>
					<path
   d="M 210.25,43.2 H 111.39 C 49.97,43.2 0,93.17 0,154.59 0,216.01 49.97,265.98 111.39,265.98 h 98.86 c 61.42,0 111.39,-49.97 111.39,-111.39 C 321.64,93.17 271.67,43.2 210.25,43.2 Z m 0,202.1 h -98.86 c -50.02,0 -90.71,-40.69 -90.71,-90.71 0,-50.02 40.69,-90.72 90.71,-90.72 h 98.86 c 50.02,0 90.71,40.7 90.71,90.72 0,50.02 -40.69,90.71 -90.71,90.71 z"
   class="st1"
   id="path12"
   inkscape:connector-curvature="0"
   style="fill:#d7d7d7;stroke:none;stroke-width:1.37143004;stroke-linecap:butt" />
				</g>
			</g>
			<g
   id="group59-5"
   transform="translate(130.227,-65.6784)"
   v:mID="59"
   v:groupContext="group">
				<title
   id="title16">工作表.59</title>
				<g
   id="shape60-6"
   v:mID="60"
   v:groupContext="shape"
   transform="translate(0,-46.887)">
					<title
   id="title18">圆形</title>
					<v:userDefs>
						<v:ud
   v:nameU="visVersion"
   v:val="VT0(15):26" />
					</v:userDefs>
					<path
   d="m 0,258.81 a 7.16737,7.16737 0 0 1 14.33,0 7.16737,7.16737 0 1 1 -14.33,0 z"
   class="st2"
   id="path20"
   inkscape:connector-curvature="0"
   style="fill:#d7d7d7;stroke:#d7d7d7;stroke-width:0.5;stroke-linecap:round;stroke-linejoin:round" />
				</g>
				<g
   id="shape61-8"
   v:mID="61"
   v:groupContext="shape"
   transform="translate(6.19056,-26.6914)">
					<title
   id="title23">圆形.45</title>
					<v:userDefs>
						<v:ud
   v:nameU="visVersion"
   v:val="VT0(15):26" />
					</v:userDefs>
					<path
   d="m 0,258.81 a 7.16737,7.16737 0 0 1 14.33,0 7.16737,7.16737 0 1 1 -14.33,0 z"
   class="st2"
   id="path25"
   inkscape:connector-curvature="0"
   style="fill:#d7d7d7;stroke:#d7d7d7;stroke-width:0.5;stroke-linecap:round;stroke-linejoin:round" />
				</g>
				<g
   id="shape62-10"
   v:mID="62"
   v:groupContext="shape"
   transform="translate(20.2567,-11.7218)">
					<title
   id="title28">圆形.46</title>
					<v:userDefs>
						<v:ud
   v:nameU="visVersion"
   v:val="VT0(15):26" />
					</v:userDefs>
					<path
   d="m 0,259.34 a 6.64233,6.64233 0 0 1 13.28,0 6.64233,6.64233 0 1 1 -13.28,0 z"
   class="st2"
   id="path30"
   inkscape:connector-curvature="0"
   style="fill:#d7d7d7;stroke:#d7d7d7;stroke-width:0.5;stroke-linecap:round;stroke-linejoin:round" />
				</g>
				<g
   id="shape63-12"
   v:mID="63"
   v:groupContext="shape"
   transform="translate(37.4486,-3.41885)">
					<title
   id="title33">圆形.47</title>
					<v:userDefs>
						<v:ud
   v:nameU="visVersion"
   v:val="VT0(15):26" />
					</v:userDefs>
					<path
   d="m 0,260.12 a 5.86088,5.86088 0 0 1 11.72,0 5.86088,5.86088 0 1 1 -11.72,0 z"
   class="st2"
   id="path35"
   inkscape:connector-curvature="0"
   style="fill:#d7d7d7;stroke:#d7d7d7;stroke-width:0.5;stroke-linecap:round;stroke-linejoin:round" />
				</g>
				<g
   id="shape64-14"
   v:mID="64"
   v:groupContext="shape"
   transform="translate(54.4777)">
					<title
   id="title38">圆形.48</title>
					<v:userDefs>
						<v:ud
   v:nameU="visVersion"
   v:val="VT0(15):26" />
					</v:userDefs>
					<path
   d="m 0,260.82 a 5.16083,5.16083 0 1 1 10.32,0 5.16083,5.16083 0 1 1 -10.32,0 z"
   class="st2"
   id="path40"
   inkscape:connector-curvature="0"
   style="fill:#d7d7d7;stroke:#d7d7d7;stroke-width:0.5;stroke-linecap:round;stroke-linejoin:round" />
				</g>
				<g
   id="shape65-16"
   v:mID="65"
   v:groupContext="shape"
   transform="translate(0.0936113,-65.424)">
					<title
   id="title43">圆形.50</title>
					<v:userDefs>
						<v:ud
   v:nameU="visVersion"
   v:val="VT0(15):26" />
					</v:userDefs>
					<path
   d="m 0,258.45 a 7.53185,7.53185 0 0 1 15.06,0 7.53185,7.53185 0 1 1 -15.06,0 z"
   class="st2"
   id="path45"
   inkscape:connector-curvature="0"
   style="fill:#d7d7d7;stroke:#d7d7d7;stroke-width:0.5;stroke-linecap:round;stroke-linejoin:round" />
				</g>
				<g
   id="shape66-18"
   v:mID="66"
   v:groupContext="shape"
   transform="translate(7.01314,-83.7592)">
					<title
   id="title48">圆形.51</title>
					<v:userDefs>
						<v:ud
   v:nameU="visVersion"
   v:val="VT0(15):26" />
					</v:userDefs>
					<path
   d="m 0,257.84 a 8.145,8.145 0 0 1 16.29,0 8.145,8.145 0 1 1 -16.29,0 z"
   class="st2"
   id="path50"
   inkscape:connector-curvature="0"
   style="fill:#d7d7d7;stroke:#d7d7d7;stroke-width:0.5;stroke-linecap:round;stroke-linejoin:round" />
				</g>
				<g
   id="shape67-20"
   v:mID="67"
   v:groupContext="shape"
   transform="translate(20.123,-99.5322)">
					<title
   id="title53">圆形.52</title>
					<v:userDefs>
						<v:ud
   v:nameU="visVersion"
   v:val="VT0(15):26" />
					</v:userDefs>
					<path
   d="m 0,257.84 a 8.145,8.145 0 0 1 16.29,0 8.145,8.145 0 1 1 -16.29,0 z"
   class="st2"
   id="path55"
   inkscape:connector-curvature="0"
   style="fill:#d7d7d7;stroke:#d7d7d7;stroke-width:0.5;stroke-linecap:round;stroke-linejoin:round" />
				</g>
				<g
   id="shape68-22"
   v:mID="68"
   v:groupContext="shape"
   transform="translate(38.6825,-108.332)">
					<title
   id="title58">圆形.53</title>
					<v:userDefs>
						<v:ud
   v:nameU="visVersion"
   v:val="VT0(15):26" />
					</v:userDefs>
					<path
   d="m 0,257.84 a 8.145,8.145 0 0 1 16.29,0 8.145,8.145 0 1 1 -16.29,0 z"
   class="st2"
   id="path60"
   inkscape:connector-curvature="0"
   style="fill:#d7d7d7;stroke:#d7d7d7;stroke-width:0.5;stroke-linecap:round;stroke-linejoin:round" />
				</g>
				<g
   id="shape69-24"
   v:mID="69"
   v:groupContext="shape"
   transform="translate(59.4526,-109.155)">
					<title
   id="title63">圆形.54</title>
					<v:userDefs>
						<v:ud
   v:nameU="visVersion"
   v:val="VT0(15):26" />
					</v:userDefs>
					<path
   d="m 0,257.84 a 8.145,8.145 0 0 1 16.29,0 8.145,8.145 0 1 1 -16.29,0 z"
   class="st2"
   id="path65"
   inkscape:connector-curvature="0"
   style="fill:#d7d7d7;stroke:#d7d7d7;stroke-width:0.5;stroke-linecap:round;stroke-linejoin:round" />
				</g>
				<g
   id="shape70-26"
   v:mID="70"
   v:groupContext="shape"
   transform="translate(79.0705,-101.589)">
					<title
   id="title68">圆形.55</title>
					<v:userDefs>
						<v:ud
   v:nameU="visVersion"
   v:val="VT0(15):26" />
					</v:userDefs>
					<path
   d="m 0,257.84 a 8.145,8.145 0 0 1 16.29,0 8.145,8.145 0 1 1 -16.29,0 z"
   class="st2"
   id="path70"
   inkscape:connector-curvature="0"
   style="fill:#d7d7d7;stroke:#d7d7d7;stroke-width:0.5;stroke-linecap:round;stroke-linejoin:round" />
				</g>
				<g
   id="shape71-28"
   v:mID="71"
   v:groupContext="shape"
   transform="translate(93.7741,-86.0369)">
					<title
   id="title73">圆形.56</title>
					<v:userDefs>
						<v:ud
   v:nameU="visVersion"
   v:val="VT0(15):26" />
					</v:userDefs>
					<path
   d="m 0,257.84 a 8.145,8.145 0 0 1 16.29,0 8.145,8.145 0 1 1 -16.29,0 z"
   class="st2"
   id="path75"
   inkscape:connector-curvature="0"
   style="fill:#d7d7d7;stroke:#d7d7d7;stroke-width:0.5;stroke-linecap:round;stroke-linejoin:round" />
				</g>
				<g
   id="shape72-30"
   v:mID="72"
   v:groupContext="shape"
   transform="translate(101.589,-66.4233)">
					<title
   id="title78">圆形.57</title>
					<v:userDefs>
						<v:ud
   v:nameU="visVersion"
   v:val="VT0(15):26" />
					</v:userDefs>
					<path
   d="m 0,257.84 a 8.145,8.145 0 0 1 16.29,0 8.145,8.145 0 1 1 -16.29,0 z"
   class="st2"
   id="path80"
   inkscape:connector-curvature="0"
   style="fill:#d7d7d7;stroke:#d7d7d7;stroke-width:0.5;stroke-linecap:round;stroke-linejoin:round" />
				</g>
			</g>
			<g
   id="shape81-32"
   v:mID="81"
   v:groupContext="shape"
   transform="rotate(105.104,192.73555,281.51301)">
				<title
   id="title84">工作表.81</title>
				<path
   d="M 0,265.98 H 41.88"
   class="st3"
   id="path86"
   inkscape:connector-curvature="0"
   style="stroke:#d7d7d7;stroke-width:10;stroke-linecap:round;stroke-linejoin:round" />
			</g>
			<g
   id="shape82-35"
   v:mID="82"
   v:groupContext="shape"
   transform="rotate(23.9625,441.48751,686.3342)">
				<title
   id="title89">工作表.82</title>
				<path
   d="M 0,265.98 H 41.88"
   class="st3"
   id="path91"
   inkscape:connector-curvature="0"
   style="stroke:#d7d7d7;stroke-width:10;stroke-linecap:round;stroke-linejoin:round" />
			</g>
		</g>
	</g>
</svg>