<?xml version="1.0"?>
<svg xmlns="http://www.w3.org/2000/svg" xmlns:xlink="http://www.w3.org/1999/xlink" version="1.1" id="Capa_1" x="0px" y="0px" width="512px" height="512px" viewBox="0 0 487.881 487.881" style="enable-background:new 0 0 487.881 487.881;" xml:space="preserve" class=""><g><g>
	<path d="M487.881,264.183v8.434c0,69.352-56.425,125.77-125.77,125.77H125.77C56.424,398.386,0,341.968,0,272.616v-8.434   c0-69.346,56.424-125.764,125.77-125.764l13.914,0.502c0,0-23.029,15.817-13.914,48.584c-44.331,0-76.669,34.397-76.669,76.678   v8.428c0,42.28,34.398,76.675,76.669,76.675h236.342c42.279,0,76.675-34.395,76.675-76.675v-8.428   c0-42.28-34.396-76.678-76.675-76.678H249.505l0,0H219.81l17.328,43.87c0.612,1.545,0.115,3.313-1.218,4.318   c-1.33,1.002-3.166,0.996-4.483-0.021l-90.754-69.768c-0.907-0.701-1.445-1.785-1.439-2.935c0-1.15,0.532-2.234,1.439-2.935   l90.76-69.776c0.659-0.514,1.457-0.763,2.252-0.763c0.786,0,1.566,0.243,2.231,0.745c1.333,1.005,1.824,2.766,1.218,4.314   l-17.328,43.876h29.701l0,0h112.601C431.456,138.419,487.881,194.843,487.881,264.183z" data-original="#000000" class="active-path" data-old_color="#000000" fill="#D7D7D7"/>
</g></g> </svg>
