<?xml version="1.0"?>
<svg xmlns="http://www.w3.org/2000/svg" xmlns:xlink="http://www.w3.org/1999/xlink" version="1.1" id="Capa_1" x="0px" y="0px" width="512px" height="512px" viewBox="0 0 545.487 545.487" style="enable-background:new 0 0 545.487 545.487;" xml:space="preserve"><g><g>
	<path d="M545.487,269.909v7.995c0,65.811-53.546,119.338-119.344,119.338H331.24c0,0,22.023-14.931,17.235-46.589h77.668   c40.122,0,72.761-32.633,72.761-72.755v-7.995c0-40.125-32.645-72.761-72.761-72.761h-106.85l0,0h-28.176l16.443,41.632   c0.579,1.469,0.106,3.142-1.152,4.091c-1.266,0.957-3.003,0.951-4.256-0.018l-86.123-66.198c-0.872-0.665-1.374-1.696-1.374-2.784   c0-1.09,0.502-2.125,1.374-2.79l86.123-66.204c0.632-0.496,1.389-0.733,2.146-0.733c0.745,0,1.489,0.231,2.116,0.707   c1.259,0.952,1.731,2.627,1.146,4.093l-16.432,41.636h28.17v-0.006h106.844C491.941,150.562,545.487,204.104,545.487,269.909z    M243.34,302.628c-1.253-0.964-2.991-0.97-4.256-0.012c-1.259,0.951-1.731,2.63-1.149,4.09l16.438,41.63h-28.174l0,0H119.344   c-40.122,0-72.758-32.646-72.758-72.762v-7.997c0-40.117,32.642-72.759,72.758-72.759h77.667   c-4.788-31.649,17.233-46.586,17.233-46.586h-94.9C53.543,148.233,0,201.767,0,267.578v7.997   c0,65.811,53.543,119.345,119.344,119.345h106.843v-0.007h28.173l-16.438,41.63c-0.582,1.472-0.109,3.15,1.149,4.096   c0.63,0.479,1.375,0.71,2.119,0.71c0.75,0,1.513-0.236,2.143-0.733l86.12-66.2c0.875-0.668,1.377-1.696,1.377-2.79   c0-1.1-0.502-2.122-1.377-2.79L243.34,302.628z" data-original="#000000" class="active-path" data-old_color="#000000" fill="#D7D7D7"/>
</g></g> </svg>
