<?xml version="1.0"?>
<svg xmlns="http://www.w3.org/2000/svg" xmlns:xlink="http://www.w3.org/1999/xlink" version="1.1" id="Capa_1" x="0px" y="0px" viewBox="0 0 276 276" style="enable-background:new 0 0 276 276;" xml:space="preserve" width="512px" height="512px"><g><g>
	<path d="M186,9c0-4.971-4.029-9-9-9h-21c-4.971,0-9,4.029-9,9v45c0,4.971,4.029,9,9,9h21c4.971,0,9-4.029,9-9V9z" data-original="#000000" class="active-path" data-old_color="#000000" fill="#D7D7D7"/>
	<path d="M271.251,53.504L235.877,6.982C232.946,3.142,227.053,0,222.222,0h-1.268C214.889,0,210,5.43,210,11.495v69.854   c0,0.542-0.504,0.651-1.046,0.651H67.713C67.171,82,66,81.891,66,81.349V11.495C66,5.43,61.778,0,55.713,0H11.828   C5.763,0,0,5.43,0,11.495v253.01C0,270.57,5.763,276,11.828,276h253.011c6.065,0,11.161-5.43,11.161-11.495V67.307   C276,62.921,273.913,56.987,271.251,53.504z M238,250H38V150h200V250z" data-original="#000000" class="active-path" data-old_color="#000000" fill="#D7D7D7"/>
	<path d="M157,190c0-4.971-4.029-9-9-9H61c-4.971,0-9,4.029-9,9v21c0,4.971,4.029,9,9,9h87c4.971,0,9-4.029,9-9V190z" data-original="#000000" class="active-path" data-old_color="#000000" fill="#D7D7D7"/>
</g></g> </svg>
