<?xml version="1.0" encoding="UTF-8" standalone="no"?>
<!-- 由 Microsoft Visio, SVG Export 生成 search-bar.svg 页-1 -->

<svg
   xmlns:v="http://schemas.microsoft.com/visio/2003/SVGExtensions/"
   xmlns:dc="http://purl.org/dc/elements/1.1/"
   xmlns:cc="http://creativecommons.org/ns#"
   xmlns:rdf="http://www.w3.org/1999/02/22-rdf-syntax-ns#"
   xmlns:svg="http://www.w3.org/2000/svg"
   xmlns="http://www.w3.org/2000/svg"
   xmlns:sodipodi="http://sodipodi.sourceforge.net/DTD/sodipodi-0.dtd"
   xmlns:inkscape="http://www.inkscape.org/namespaces/inkscape"
   width="512"
   height="512"
   viewBox="0 0 384.00023 384"
   xml:space="preserve"
   class="st2"
   version="1.1"
   id="svg254"
   sodipodi:docname="search-bar.svg"
   style="font-size:12px;overflow:visible;color-interpolation-filters:sRGB;fill:none;fill-rule:evenodd;stroke-linecap:square;stroke-miterlimit:3"
   inkscape:version="0.92.4 (5da689c313, 2019-01-14)"><metadata
   id="metadata260"><rdf:RDF><cc:Work
       rdf:about=""><dc:format>image/svg+xml</dc:format><dc:type
         rdf:resource="http://purl.org/dc/dcmitype/StillImage" /><dc:title></dc:title></cc:Work></rdf:RDF></metadata><defs
   id="defs258" /><sodipodi:namedview
   pagecolor="#ffffff"
   bordercolor="#666666"
   borderopacity="1"
   objecttolerance="10"
   gridtolerance="10"
   guidetolerance="10"
   inkscape:pageopacity="0"
   inkscape:pageshadow="2"
   inkscape:window-width="793"
   inkscape:window-height="480"
   id="namedview256"
   showgrid="false"
   units="px"
   inkscape:zoom="0.66106443"
   inkscape:cx="255.99985"
   inkscape:cy="178.5"
   inkscape:window-x="0"
   inkscape:window-y="0"
   inkscape:window-maximized="0"
   inkscape:current-layer="svg254" />
	<v:documentProperties
   v:langID="2052"
   v:viewMarkup="false" />

	<style
   type="text/css"
   id="style2">
	<![CDATA[
		.st1 {fill:#d7d7d7;stroke:none;stroke-linecap:butt;stroke-width:3.90272}
		.st2 {fill:none;fill-rule:evenodd;font-size:12px;overflow:visible;stroke-linecap:square;stroke-miterlimit:3}
	]]>
	</style>

	<g
   v:mID="0"
   v:index="1"
   v:groupContext="foregroundPage"
   id="g252"
   transform="translate(0.3303575,60.286307)">
		<title
   id="title4">页-1</title>
		<v:pageProperties
   v:drawingScale="0.0393701"
   v:pageScale="0.0393701"
   v:drawingUnits="24"
   v:shadowOffsetX="9"
   v:shadowOffsetY="-9" />
		<g
   id="group191-1"
   v:mID="191"
   v:groupContext="group">
			<title
   id="title6">工作表.191</title>
			<g
   id="group192-2"
   transform="translate(43.3968)"
   v:mID="192"
   v:groupContext="group">
				<title
   id="title8">工作表.192</title>
				<g
   id="shape193-3"
   v:mID="193"
   v:groupContext="shape"
   transform="translate(39.8683)">
					<title
   id="title10">工作表.193</title>
					<path
   d="m 250.28,10.3 c -8.53,-8.53 -22.37,-8.53 -30.9,0 l -62.87,62.87 c -5.38,5.38 -7.36,12.87 -5.96,19.81 l -14.63,14.63 C 102.89,82.88 55.72,85.51 25.72,115.52 20.27,120.97 15.74,127 12.09,133.39 11.62,132.8 10.92,132.4 10.1,132.4 H 6.04 c -1.44,0 -2.61,1.17 -2.61,2.61 v 8.12 c 0,1.44 1.17,2.6 2.61,2.6 h 0.3 c -0.56,1.49 -1.07,2.98 -1.53,4.49 l -4.32,3 c -0.39,0.28 -0.49,0.82 -0.21,1.21 0.27,0.4 0.81,0.49 1.21,0.22 l 2.55,-1.79 c -1.49,5.49 -2.42,11.1 -2.8,16.75 -0.19,0.36 -0.34,0.77 -0.34,1.21 v 8.12 c 0,0.42 0.12,0.8 0.3,1.14 0.22,3.87 0.7,7.73 1.45,11.54 v 6.83 c 0,1.38 1.09,2.48 2.44,2.57 1.74,5.43 4.04,10.71 6.9,15.76 0.04,0.85 0.5,1.57 1.17,2.01 1.07,1.79 2.22,3.53 3.44,5.25 l -3.05,2.12 c -0.39,0.28 -0.49,0.82 -0.22,1.21 0.28,0.4 0.82,0.49 1.21,0.22 l 3.08,-2.14 c 0.11,0.15 0.23,0.3 0.34,0.44 V 236 c 0,0.48 0.39,0.87 0.87,0.87 0.48,0 0.88,-0.39 0.88,-0.87 v -7.86 c 1.86,2.31 3.86,4.55 6.02,6.71 32.9,32.9 86.44,32.9 119.35,0 1.76,-1.77 3.4,-3.6 4.98,-5.47 v 4.46 c 0,1.44 1.17,2.6 2.61,2.6 h 4.06 c 1.44,0 2.61,-1.17 2.61,-2.6 v -8.12 c 0,-1.44 -1.17,-2.61 -2.61,-2.61 h -1.88 c 2.74,-3.95 5.07,-8.1 7.04,-12.38 v 5.5 c 0,1.44 1.18,2.61 2.61,2.61 h 4.06 c 1.45,0 2.62,-1.17 2.62,-2.61 v -8.11 c 0,-1.45 -1.18,-2.61 -2.62,-2.61 h -4.07 c -0.17,0 -0.31,0.06 -0.47,0.09 1.57,-4.09 2.83,-8.27 3.74,-12.52 0.4,-0.31 0.68,-0.76 0.68,-1.31 v -1.44 l 1.97,-1.37 v 10.8 c 0,0.48 0.4,0.87 0.87,0.87 0.48,0 0.87,-0.39 0.87,-0.87 v -12.47 c 0,-0.32 -0.18,-0.62 -0.46,-0.77 -0.29,-0.16 -0.64,-0.13 -0.9,0.06 l -2.03,1.41 c 0.35,-2.28 0.6,-4.58 0.76,-6.87 0.01,0 0.01,0.01 0.02,0.01 0.48,0 0.86,-0.39 0.86,-0.87 v -12.48 c 0,-0.32 -0.18,-0.62 -0.46,-0.77 -0.2,-0.1 -0.43,-0.09 -0.64,-0.03 -0.11,-1.17 -0.29,-2.32 -0.44,-3.47 h 0.47 c 1.45,0 2.61,-1.17 2.61,-2.61 v -8.11 c 0,-1.45 -1.17,-2.61 -2.61,-2.61 h -3.42 c -0.92,-2.96 -2.02,-5.87 -3.27,-8.73 v -6.87 c 0,-1.44 -1.17,-2.61 -2.61,-2.61 h -2.21 c -1.49,-2.49 -3.08,-4.94 -4.84,-7.3 l 14.63,-14.63 c 6.94,1.4 14.43,-0.58 19.8,-5.96 l 62.87,-62.87 c 8.53,-8.54 8.53,-22.38 0,-30.91 z m -81.73,196.95 c 0.48,0 0.87,0.39 0.87,0.87 v 8.11 c 0,0.48 -0.39,0.87 -0.87,0.87 h -4.06 c -0.48,0 -0.87,-0.39 -0.87,-0.87 v -8.11 c 0,-0.48 0.39,-0.87 0.87,-0.87 z M 38.33,137.56 c 1.34,-1.68 2.77,-3.3 4.32,-4.85 h 5.07 c 0.91,0 1.65,0.74 1.65,1.66 v 15.45 c 0,0.92 -0.74,1.66 -1.65,1.66 h -7.73 c -0.91,0 -1.66,-0.74 -1.66,-1.66 z M 6.04,144 c -0.48,0 -0.87,-0.39 -0.87,-0.87 v -8.12 c 0,-0.48 0.39,-0.87 0.87,-0.87 h 4.06 c 0.48,0 0.87,0.39 0.87,0.87 v 0.4 c -1.49,2.81 -2.82,5.67 -3.98,8.59 z m 38.52,74 c 0,0.41 -0.17,0.77 -0.41,1.07 -0.45,-0.44 -0.94,-0.81 -1.38,-1.25 -3.69,-3.69 -6.72,-7.76 -9.25,-12.05 v -3.22 c 0,-0.91 0.75,-1.65 1.66,-1.65 h 7.72 c 0.92,0 1.66,0.74 1.66,1.65 z m 2.05,3.28 c 0.78,-0.87 1.26,-2.02 1.26,-3.28 v -15.45 c 0,-2.74 -2.22,-4.96 -4.96,-4.96 h -7.73 c -1.97,0 -3.66,1.16 -4.46,2.82 -8.59,-18.67 -7.2,-40.85 4.3,-58.33 v 7.73 c 0,2.74 2.23,4.97 4.97,4.97 h 7.73 c 2.74,0 4.96,-2.23 4.96,-4.97 v -15.45 c 0,-2.74 -2.22,-4.96 -4.96,-4.96 h -1.44 c 22.96,-19.63 57.22,-19.18 79.67,1.31 -0.64,-0.31 -1.34,-0.48 -2.1,-0.48 h -7.73 c -2.73,0 -4.96,2.22 -4.96,4.96 v 15.46 c 0,2.74 2.23,4.96 4.96,4.96 h 7.73 c 2.74,0 4.96,-2.22 4.96,-4.96 v -15.46 c 0,-0.93 -0.27,-1.78 -0.7,-2.52 9.4,9.44 14.96,21.26 16.79,33.53 -0.88,-0.82 -2.05,-1.32 -3.34,-1.32 h -7.72 c -2.74,0 -4.96,2.23 -4.96,4.97 v 15.45 c 0,2.74 2.22,4.96 4.96,4.96 h 7.72 c 0.82,0 1.57,-0.21 2.25,-0.56 -0.59,2.41 -1.31,4.8 -2.21,7.13 -0.2,0.05 -0.42,0.08 -0.6,0.21 l -9.1,6.34 c -0.75,0.53 -0.94,1.56 -0.41,2.31 0.52,0.75 1.55,0.94 2.3,0.42 l 5.38,-3.74 c -2.82,5.56 -6.5,10.79 -11.15,15.44 -22.27,22.27 -57.76,23.41 -81.41,3.47 z m 78.89,-86.09 v 15.46 c 0,0.91 -0.74,1.65 -1.65,1.65 h -7.73 c -0.91,0 -1.66,-0.74 -1.66,-1.65 v -15.46 c 0,-0.91 0.75,-1.65 1.66,-1.65 h 7.73 c 0.91,0 1.65,0.74 1.65,1.65 z m 17.72,34.66 v 15.46 c 0,0.91 -0.75,1.65 -1.66,1.65 h -7.73 c -0.91,0 -1.65,-0.74 -1.65,-1.65 v -15.46 c 0,-0.91 0.74,-1.65 1.65,-1.65 h 7.73 c 0.91,0 1.66,0.74 1.66,1.65 z m 13.5,55.01 c 0.48,0 0.87,0.39 0.87,0.87 v 8.12 c 0,0.48 -0.39,0.86 -0.87,0.86 h -4.06 c -0.48,0 -0.87,-0.38 -0.87,-0.86 v -6.69 c 0.59,-0.76 1.18,-1.53 1.74,-2.3 z m 12.61,-72.95 c 0.48,0 0.87,0.39 0.87,0.87 v 8.12 c 0,0.48 -0.39,0.86 -0.87,0.86 h -0.74 c -0.53,-3.31 -1.2,-6.6 -2.12,-9.85 z m -9.3,-18.21 c 0.47,0 0.87,0.4 0.87,0.87 v 2.96 c -0.65,-1.31 -1.4,-2.56 -2.12,-3.83 z"
   class="st1"
   id="path12"
   inkscape:connector-curvature="0"
   style="fill:#d7d7d7;stroke:none;stroke-width:3.90271997;stroke-linecap:butt" />
				</g>
				<g
   id="shape194-5"
   v:mID="194"
   v:groupContext="shape"
   transform="translate(123.743,-112.972)">
					<title
   id="title15">工作表.194</title>
					<path
   d="M 12.69,242.37 H 4.96 c -2.74,0 -4.96,2.22 -4.96,4.96 v 15.46 c 0,2.73 2.22,4.96 4.96,4.96 h 7.73 c 2.74,0 4.97,-2.23 4.97,-4.96 v -15.46 c 0,-2.74 -2.23,-4.96 -4.97,-4.96 z m 1.66,20.42 c 0,0.91 -0.75,1.65 -1.66,1.65 H 4.96 c -0.91,0 -1.65,-0.74 -1.65,-1.65 v -15.46 c 0,-0.91 0.74,-1.65 1.65,-1.65 h 7.73 c 0.91,0 1.66,0.74 1.66,1.65 z"
   class="st1"
   id="path17"
   inkscape:connector-curvature="0"
   style="fill:#d7d7d7;stroke:none;stroke-width:3.90271997;stroke-linecap:butt" />
				</g>
				<g
   id="shape195-7"
   v:mID="195"
   v:groupContext="shape"
   transform="translate(99.502,-112.969)">
					<title
   id="title20">工作表.195</title>
					<path
   d="m 11.75,240.89 c -0.55,-0.29 -1.2,-0.24 -1.71,0.11 l -9.11,6.34 c -0.75,0.53 -0.93,1.56 -0.41,2.31 0.53,0.75 1.56,0.94 2.31,0.42 l 6.5,-4.54 v 20.57 c 0,0.91 0.75,1.65 1.66,1.65 0.92,0 1.66,-0.74 1.66,-1.65 v -23.74 c -0.01,-0.62 -0.35,-1.18 -0.9,-1.47 z"
   class="st1"
   id="path22"
   inkscape:connector-curvature="0"
   style="fill:#d7d7d7;stroke:none;stroke-width:3.90271997;stroke-linecap:butt" />
				</g>
				<g
   id="shape196-9"
   v:mID="196"
   v:groupContext="shape"
   transform="translate(92.6062,-78.3113)">
					<title
   id="title25">工作表.196</title>
					<path
   d="M 12.69,242.37 H 4.96 c -2.74,0 -4.96,2.22 -4.96,4.96 v 15.46 c 0,2.73 2.22,4.96 4.96,4.96 h 7.73 c 2.74,0 4.97,-2.23 4.97,-4.96 v -15.46 c 0,-2.74 -2.23,-4.96 -4.97,-4.96 z m 1.66,20.42 c 0,0.91 -0.75,1.65 -1.66,1.65 H 4.96 c -0.91,0 -1.65,-0.74 -1.65,-1.65 v -15.46 c 0,-0.91 0.74,-1.65 1.65,-1.65 h 7.73 c 0.91,0 1.66,0.74 1.66,1.65 z"
   class="st1"
   id="path27"
   inkscape:connector-curvature="0"
   style="fill:#d7d7d7;stroke:none;stroke-width:3.90271997;stroke-linecap:butt" />
				</g>
				<g
   id="shape197-11"
   v:mID="197"
   v:groupContext="shape"
   transform="translate(68.3651,-78.3083)">
					<title
   id="title30">工作表.197</title>
					<path
   d="m 11.75,240.89 c -0.55,-0.29 -1.2,-0.24 -1.71,0.11 l -9.11,6.34 c -0.75,0.53 -0.93,1.56 -0.41,2.31 0.53,0.75 1.56,0.94 2.31,0.42 l 6.5,-4.54 v 20.57 c 0,0.91 0.75,1.65 1.66,1.65 0.92,0 1.66,-0.74 1.66,-1.65 v -23.74 c -0.01,-0.62 -0.35,-1.18 -0.9,-1.47 z"
   class="st1"
   id="path32"
   inkscape:connector-curvature="0"
   style="fill:#d7d7d7;stroke:none;stroke-width:3.90271997;stroke-linecap:butt" />
				</g>
				<g
   id="shape198-13"
   v:mID="198"
   v:groupContext="shape"
   transform="translate(119.885,-77.4855)">
					<title
   id="title35">工作表.198</title>
					<path
   d="M 12.69,242.37 H 4.97 c -2.74,0 -4.97,2.22 -4.97,4.96 v 15.46 c 0,2.74 2.23,4.96 4.97,4.96 h 7.72 c 2.74,0 4.97,-2.22 4.97,-4.96 v -15.46 c 0,-2.74 -2.22,-4.96 -4.97,-4.96 z m 1.66,20.42 c 0,0.92 -0.74,1.66 -1.66,1.66 H 4.97 c -0.91,0 -1.66,-0.74 -1.66,-1.66 v -15.45 c 0,-0.92 0.75,-1.66 1.66,-1.66 h 7.72 c 0.92,0 1.66,0.74 1.66,1.66 z"
   class="st1"
   id="path37"
   inkscape:connector-curvature="0"
   style="fill:#d7d7d7;stroke:none;stroke-width:3.90271997;stroke-linecap:butt" />
				</g>
				<g
   id="shape199-15"
   v:mID="199"
   v:groupContext="shape"
   transform="translate(144.503,-77.4794)">
					<title
   id="title40">工作表.199</title>
					<path
   d="m 9.33,245.54 v 20.56 c 0,0.91 0.74,1.65 1.66,1.65 0.91,0 1.65,-0.74 1.65,-1.65 v -23.74 c 0,-0.62 -0.34,-1.18 -0.89,-1.46 -0.55,-0.3 -1.2,-0.25 -1.71,0.1 l -9.11,6.35 c -0.75,0.52 -0.93,1.55 -0.41,2.3 0.53,0.75 1.56,0.94 2.31,0.42 z"
   class="st1"
   id="path42"
   inkscape:connector-curvature="0"
   style="fill:#d7d7d7;stroke:none;stroke-width:3.90271997;stroke-linecap:butt" />
				</g>
				<g
   id="shape200-17"
   v:mID="200"
   v:groupContext="shape"
   transform="translate(118.933,-44.7812)">
					<title
   id="title45">工作表.200</title>
					<path
   d="M 12.69,242.37 H 4.96 c -2.74,0 -4.96,2.22 -4.96,4.96 v 15.46 c 0,2.73 2.22,4.96 4.96,4.96 h 7.73 c 2.74,0 4.97,-2.23 4.97,-4.96 v -15.46 c 0,-2.74 -2.23,-4.96 -4.97,-4.96 z m 1.65,20.42 c 0,0.91 -0.74,1.65 -1.65,1.65 H 4.96 c -0.91,0 -1.65,-0.74 -1.65,-1.65 v -15.46 c 0,-0.91 0.74,-1.65 1.65,-1.65 h 7.73 c 0.91,0 1.65,0.74 1.65,1.65 z"
   class="st1"
   id="path47"
   inkscape:connector-curvature="0"
   style="fill:#d7d7d7;stroke:none;stroke-width:3.90271997;stroke-linecap:butt" />
				</g>
				<g
   id="shape201-19"
   v:mID="201"
   v:groupContext="shape"
   transform="translate(94.6918,-44.7812)">
					<title
   id="title50">工作表.201</title>
					<path
   d="m 11.75,240.89 c -0.55,-0.29 -1.2,-0.24 -1.71,0.11 l -9.11,6.34 c -0.75,0.53 -0.93,1.56 -0.41,2.31 0.53,0.75 1.56,0.94 2.31,0.42 l 6.5,-4.54 v 20.57 c 0,0.91 0.75,1.65 1.66,1.65 0.92,0 1.66,-0.74 1.66,-1.65 v -23.74 c -0.01,-0.61 -0.35,-1.18 -0.9,-1.47 z"
   class="st1"
   id="path52"
   inkscape:connector-curvature="0"
   style="fill:#d7d7d7;stroke:none;stroke-width:3.90271997;stroke-linecap:butt" />
				</g>
				<g
   id="shape202-21"
   v:mID="202"
   v:groupContext="shape"
   transform="translate(146.212,-43.9553)">
					<title
   id="title55">工作表.202</title>
					<path
   d="M 12.69,242.37 H 4.97 c -2.74,0 -4.97,2.22 -4.97,4.96 v 15.46 c 0,2.74 2.23,4.96 4.97,4.96 h 7.72 c 2.74,0 4.97,-2.22 4.97,-4.96 v -15.46 c 0,-2.74 -2.22,-4.96 -4.97,-4.96 z m 1.66,20.42 c 0,0.92 -0.74,1.66 -1.66,1.66 H 4.97 c -0.91,0 -1.66,-0.74 -1.66,-1.66 v -15.45 c 0,-0.92 0.75,-1.66 1.66,-1.66 h 7.72 c 0.92,0 1.66,0.74 1.66,1.66 z"
   class="st1"
   id="path57"
   inkscape:connector-curvature="0"
   style="fill:#d7d7d7;stroke:none;stroke-width:3.90271997;stroke-linecap:butt" />
				</g>
				<g
   id="shape203-23"
   v:mID="203"
   v:groupContext="shape"
   transform="translate(218.89,-122.453)">
					<title
   id="title60">工作表.203</title>
					<path
   d="M 6.67,254.42 H 2.6 c -1.44,0 -2.6,1.17 -2.6,2.61 v 8.12 c 0,1.43 1.17,2.6 2.6,2.6 h 4.07 c 1.44,0 2.6,-1.17 2.6,-2.6 v -8.12 c 0,-1.44 -1.16,-2.61 -2.6,-2.61 z m 0.87,10.73 c 0,0.48 -0.39,0.87 -0.87,0.87 H 2.6 c -0.47,0 -0.86,-0.39 -0.86,-0.87 v -8.12 c 0,-0.47 0.39,-0.87 0.86,-0.87 h 4.07 c 0.47,0 0.87,0.4 0.87,0.87 z"
   class="st1"
   id="path62"
   inkscape:connector-curvature="0"
   style="fill:#d7d7d7;stroke:none;stroke-width:3.90271997;stroke-linecap:butt" />
				</g>
				<g
   id="shape204-25"
   v:mID="204"
   v:groupContext="shape"
   transform="translate(206.153,-122.453)">
					<title
   id="title65">工作表.204</title>
					<path
   d="m 6.18,253.65 c -0.29,-0.16 -0.64,-0.13 -0.9,0.06 l -4.79,3.33 c -0.39,0.27 -0.49,0.82 -0.21,1.21 0.27,0.39 0.81,0.49 1.21,0.21 l 3.41,-2.38 v 10.8 c 0,0.48 0.4,0.87 0.87,0.87 0.48,0 0.88,-0.39 0.88,-0.87 v -12.47 c 0,-0.31 -0.19,-0.61 -0.47,-0.76 z"
   class="st1"
   id="path67"
   inkscape:connector-curvature="0"
   style="fill:#d7d7d7;stroke:none;stroke-width:3.90271997;stroke-linecap:butt" />
				</g>
				<g
   id="shape205-27"
   v:mID="205"
   v:groupContext="shape"
   transform="translate(233.224,-122.013)">
					<title
   id="title70">工作表.205</title>
					<path
   d="m 9.28,257.02 c 0,-1.44 -1.17,-2.6 -2.61,-2.6 H 2.61 c -1.44,0 -2.61,1.17 -2.61,2.6 v 8.12 c 0,1.44 1.18,2.61 2.61,2.61 h 4.06 c 1.44,0 2.61,-1.18 2.61,-2.61 z m -1.74,8.12 c 0,0.48 -0.39,0.87 -0.87,0.87 H 2.61 c -0.48,0 -0.87,-0.39 -0.87,-0.87 v -8.12 c 0,-0.47 0.39,-0.86 0.87,-0.86 h 4.06 c 0.48,0 0.87,0.39 0.87,0.86 z"
   class="st1"
   id="path72"
   inkscape:connector-curvature="0"
   style="fill:#d7d7d7;stroke:none;stroke-width:3.90271997;stroke-linecap:butt" />
				</g>
				<g
   id="shape206-29"
   v:mID="206"
   v:groupContext="shape"
   transform="translate(246.151,-122.013)">
					<title
   id="title75">工作表.206</title>
					<path
   d="m 6.18,253.64 c -0.29,-0.15 -0.64,-0.12 -0.91,0.07 l -4.78,3.33 c -0.39,0.27 -0.49,0.81 -0.22,1.21 0.28,0.39 0.82,0.49 1.22,0.21 l 3.41,-2.38 v 10.8 c 0,0.48 0.39,0.87 0.87,0.87 0.48,0 0.88,-0.39 0.88,-0.87 V 254.41 C 6.64,254.09 6.46,253.8 6.18,253.64 Z"
   class="st1"
   id="path77"
   inkscape:connector-curvature="0"
   style="fill:#d7d7d7;stroke:none;stroke-width:3.90271997;stroke-linecap:butt" />
				</g>
				<g
   id="shape207-31"
   v:mID="207"
   v:groupContext="shape"
   transform="translate(216.862,-103.8)">
					<title
   id="title80">工作表.207</title>
					<path
   d="m 2.61,267.75 h 4.06 c 1.44,0 2.61,-1.18 2.61,-2.61 v -8.12 c 0,-1.44 -1.17,-2.6 -2.61,-2.6 H 2.61 c -1.44,0 -2.61,1.17 -2.61,2.6 v 8.12 c 0,1.44 1.18,2.61 2.61,2.61 z M 1.74,257.02 c 0,-0.48 0.39,-0.87 0.87,-0.87 h 4.06 c 0.48,0 0.87,0.39 0.87,0.87 v 8.12 c 0,0.48 -0.39,0.87 -0.87,0.87 H 2.61 c -0.48,0 -0.87,-0.39 -0.87,-0.87 z"
   class="st1"
   id="path82"
   inkscape:connector-curvature="0"
   style="fill:#d7d7d7;stroke:none;stroke-width:3.90271997;stroke-linecap:butt" />
				</g>
				<g
   id="shape208-33"
   v:mID="208"
   v:groupContext="shape"
   transform="translate(242.528,-103.8)">
					<title
   id="title85">工作表.208</title>
					<path
   d="m 9.28,265.14 v -8.12 c 0,-1.44 -1.18,-2.61 -2.61,-2.61 H 2.61 c -1.45,0 -2.61,1.18 -2.61,2.61 v 8.12 c 0,1.44 1.17,2.61 2.61,2.61 h 4.06 c 1.43,0 2.61,-1.17 2.61,-2.61 z m -1.74,0 c 0,0.48 -0.39,0.87 -0.87,0.87 H 2.61 c -0.48,0 -0.87,-0.39 -0.87,-0.87 v -8.12 c 0,-0.48 0.39,-0.87 0.87,-0.87 h 4.06 c 0.48,0 0.87,0.39 0.87,0.87 z"
   class="st1"
   id="path87"
   inkscape:connector-curvature="0"
   style="fill:#d7d7d7;stroke:none;stroke-width:3.90271997;stroke-linecap:butt" />
				</g>
				<g
   id="shape209-35"
   v:mID="209"
   v:groupContext="shape"
   transform="translate(229.794,-103.803)">
					<title
   id="title90">工作表.209</title>
					<path
   d="m 6.18,253.64 c -0.29,-0.15 -0.64,-0.13 -0.91,0.06 l -4.78,3.33 c -0.4,0.28 -0.49,0.82 -0.21,1.21 0.27,0.4 0.81,0.49 1.2,0.22 l 3.42,-2.38 v 10.8 c 0,0.48 0.39,0.87 0.87,0.87 0.48,0 0.87,-0.39 0.87,-0.87 v -12.47 c 0,-0.32 -0.18,-0.61 -0.46,-0.77 z"
   class="st1"
   id="path92"
   inkscape:connector-curvature="0"
   style="fill:#d7d7d7;stroke:none;stroke-width:3.90271997;stroke-linecap:butt" />
				</g>
				<g
   id="shape210-37"
   v:mID="210"
   v:groupContext="shape"
   transform="translate(216.361,-86.6237)">
					<title
   id="title95">工作表.210</title>
					<path
   d="m 0,265.14 c 0,1.44 1.17,2.61 2.61,2.61 h 4.06 c 1.44,0 2.61,-1.18 2.61,-2.61 v -8.12 c 0,-1.44 -1.18,-2.61 -2.61,-2.61 H 2.61 c -1.45,0 -2.61,1.18 -2.61,2.61 z m 1.74,-8.12 c 0,-0.48 0.38,-0.87 0.87,-0.87 h 4.06 c 0.48,0 0.86,0.39 0.86,0.87 v 8.12 c 0,0.48 -0.38,0.87 -0.86,0.87 H 2.61 c -0.49,0 -0.87,-0.39 -0.87,-0.87 z"
   class="st1"
   id="path97"
   inkscape:connector-curvature="0"
   style="fill:#d7d7d7;stroke:none;stroke-width:3.90271997;stroke-linecap:butt" />
				</g>
				<g
   id="shape211-39"
   v:mID="211"
   v:groupContext="shape"
   transform="translate(230.696,-86.1897)">
					<title
   id="title100">工作表.211</title>
					<path
   d="m 0,257.03 v 8.11 c 0,1.44 1.17,2.61 2.61,2.61 h 4.06 c 1.44,0 2.61,-1.17 2.61,-2.61 v -8.11 c 0,-1.45 -1.18,-2.61 -2.61,-2.61 H 2.61 C 1.17,254.41 0,255.58 0,257.03 Z m 7.54,0 v 8.11 c 0,0.48 -0.39,0.87 -0.87,0.87 H 2.61 c -0.48,0 -0.87,-0.39 -0.87,-0.87 v -8.11 c 0,-0.48 0.39,-0.87 0.87,-0.87 h 4.06 c 0.48,0 0.87,0.38 0.87,0.87 z"
   class="st1"
   id="path102"
   inkscape:connector-curvature="0"
   style="fill:#d7d7d7;stroke:none;stroke-width:3.90271997;stroke-linecap:butt" />
				</g>
				<g
   id="shape212-41"
   v:mID="212"
   v:groupContext="shape"
   transform="translate(243.625,-86.1897)">
					<title
   id="title105">工作表.212</title>
					<path
   d="m 5.77,267.75 c 0.48,0 0.87,-0.39 0.87,-0.87 v -12.47 c 0,-0.32 -0.18,-0.62 -0.46,-0.77 -0.3,-0.15 -0.64,-0.13 -0.9,0.06 l -4.79,3.33 c -0.39,0.28 -0.49,0.82 -0.22,1.21 0.28,0.39 0.82,0.49 1.21,0.22 l 3.42,-2.39 v 10.81 c 0,0.48 0.39,0.87 0.87,0.87 z"
   class="st1"
   id="path107"
   inkscape:connector-curvature="0"
   style="fill:#d7d7d7;stroke:none;stroke-width:3.90271997;stroke-linecap:butt" />
				</g>
				<g
   id="shape213-43"
   v:mID="213"
   v:groupContext="shape"
   transform="translate(218.109,-67.1205)">
					<title
   id="title110">工作表.213</title>
					<path
   d="M 6.67,254.42 H 2.61 c -1.44,0 -2.61,1.17 -2.61,2.61 v 8.11 c 0,1.44 1.17,2.61 2.61,2.61 h 4.06 c 1.44,0 2.61,-1.17 2.61,-2.61 v -8.11 c 0,-1.44 -1.17,-2.61 -2.61,-2.61 z m 0.86,10.73 c 0,0.48 -0.38,0.86 -0.87,0.86 H 2.61 c -0.49,0 -0.87,-0.38 -0.87,-0.86 v -8.12 c 0,-0.48 0.38,-0.87 0.87,-0.87 h 4.05 c 0.49,0 0.87,0.39 0.87,0.87 z"
   class="st1"
   id="path112"
   inkscape:connector-curvature="0"
   style="fill:#d7d7d7;stroke:none;stroke-width:3.90271997;stroke-linecap:butt" />
				</g>
				<g
   id="shape214-45"
   v:mID="214"
   v:groupContext="shape"
   transform="translate(232.444,-66.6865)">
					<title
   id="title115">工作表.214</title>
					<path
   d="M 6.67,254.42 H 2.61 c -1.44,0 -2.61,1.17 -2.61,2.61 v 8.12 c 0,1.43 1.17,2.6 2.61,2.6 h 4.06 c 1.44,0 2.61,-1.17 2.61,-2.6 v -8.12 c 0,-1.44 -1.18,-2.61 -2.61,-2.61 z m 0.87,10.73 c 0,0.48 -0.39,0.87 -0.87,0.87 H 2.61 c -0.48,0 -0.87,-0.39 -0.87,-0.87 v -8.12 c 0,-0.48 0.39,-0.87 0.87,-0.87 h 4.06 c 0.48,0 0.87,0.39 0.87,0.87 z"
   class="st1"
   id="path117"
   inkscape:connector-curvature="0"
   style="fill:#d7d7d7;stroke:none;stroke-width:3.90271997;stroke-linecap:butt" />
				</g>
				<g
   id="shape215-47"
   v:mID="215"
   v:groupContext="shape"
   transform="translate(245.37,-66.6865)">
					<title
   id="title120">工作表.215</title>
					<path
   d="m 6.18,253.65 c -0.29,-0.16 -0.64,-0.13 -0.91,0.06 l -4.78,3.33 c -0.39,0.27 -0.49,0.82 -0.21,1.21 0.27,0.39 0.81,0.49 1.21,0.21 l 3.42,-2.38 v 10.8 c 0,0.48 0.39,0.87 0.86,0.87 0.49,0 0.88,-0.39 0.88,-0.87 v -12.47 c 0,-0.31 -0.19,-0.61 -0.47,-0.76 z"
   class="st1"
   id="path122"
   inkscape:connector-curvature="0"
   style="fill:#d7d7d7;stroke:none;stroke-width:3.90271997;stroke-linecap:butt" />
				</g>
				<g
   id="shape216-49"
   v:mID="216"
   v:groupContext="shape"
   transform="translate(216.084,-48.4763)">
					<title
   id="title125">工作表.216</title>
					<path
   d="M 6.67,254.42 H 2.61 c -1.44,0 -2.61,1.17 -2.61,2.61 v 8.11 c 0,1.44 1.18,2.61 2.61,2.61 h 4.06 c 1.44,0 2.61,-1.17 2.61,-2.61 v -8.11 c 0,-1.44 -1.17,-2.61 -2.61,-2.61 z m 0.87,10.73 c 0,0.48 -0.39,0.87 -0.87,0.87 H 2.61 c -0.48,0 -0.87,-0.39 -0.87,-0.87 v -8.12 c 0,-0.48 0.39,-0.87 0.87,-0.87 h 4.06 c 0.48,0 0.87,0.39 0.87,0.87 z"
   class="st1"
   id="path127"
   inkscape:connector-curvature="0"
   style="fill:#d7d7d7;stroke:none;stroke-width:3.90271997;stroke-linecap:butt" />
				</g>
				<g
   id="shape217-51"
   v:mID="217"
   v:groupContext="shape"
   transform="translate(241.751,-48.4763)">
					<title
   id="title130">工作表.217</title>
					<path
   d="M 6.67,254.42 H 2.61 c -1.45,0 -2.61,1.17 -2.61,2.61 v 8.11 c 0,1.44 1.17,2.61 2.61,2.61 h 4.06 c 1.44,0 2.61,-1.17 2.61,-2.61 v -8.11 c 0,-1.44 -1.18,-2.61 -2.61,-2.61 z m 0.87,10.73 c 0,0.48 -0.39,0.87 -0.87,0.87 H 2.61 c -0.48,0 -0.87,-0.39 -0.87,-0.87 v -8.12 c 0,-0.48 0.39,-0.87 0.87,-0.87 h 4.06 c 0.48,0 0.87,0.39 0.87,0.87 z"
   class="st1"
   id="path132"
   inkscape:connector-curvature="0"
   style="fill:#d7d7d7;stroke:none;stroke-width:3.90271997;stroke-linecap:butt" />
				</g>
				<g
   id="shape218-53"
   v:mID="218"
   v:groupContext="shape"
   transform="translate(229.017,-48.4702)">
					<title
   id="title135">工作表.218</title>
					<path
   d="m 4.9,256.08 v 10.8 c 0,0.48 0.39,0.87 0.87,0.87 0.48,0 0.87,-0.39 0.87,-0.87 v -12.47 c 0,-0.32 -0.18,-0.62 -0.46,-0.77 -0.29,-0.15 -0.64,-0.13 -0.91,0.06 l -4.78,3.33 c -0.4,0.27 -0.49,0.82 -0.21,1.21 0.27,0.4 0.81,0.49 1.2,0.21 z"
   class="st1"
   id="path137"
   inkscape:connector-curvature="0"
   style="fill:#d7d7d7;stroke:none;stroke-width:3.90271997;stroke-linecap:butt" />
				</g>
				<g
   id="shape219-55"
   v:mID="219"
   v:groupContext="shape"
   transform="translate(215.584,-31.2998)">
					<title
   id="title140">工作表.219</title>
					<path
   d="M 6.66,254.42 H 2.61 c -1.45,0 -2.61,1.17 -2.61,2.61 v 8.11 c 0,1.44 1.17,2.61 2.61,2.61 h 4.05 c 1.45,0 2.62,-1.17 2.62,-2.61 v -8.11 c 0,-1.44 -1.17,-2.61 -2.62,-2.61 z m 0.87,10.73 c 0,0.48 -0.38,0.87 -0.87,0.87 H 2.61 c -0.49,0 -0.87,-0.39 -0.87,-0.87 v -8.12 c 0,-0.48 0.38,-0.87 0.87,-0.87 h 4.05 c 0.49,0 0.87,0.39 0.87,0.87 z"
   class="st1"
   id="path142"
   inkscape:connector-curvature="0"
   style="fill:#d7d7d7;stroke:none;stroke-width:3.90271997;stroke-linecap:butt" />
				</g>
				<g
   id="shape220-57"
   v:mID="220"
   v:groupContext="shape"
   transform="translate(202.85,-31.2968)">
					<title
   id="title145">工作表.220</title>
					<path
   d="m 6.18,253.64 c -0.29,-0.15 -0.64,-0.12 -0.91,0.07 l -4.78,3.33 c -0.39,0.27 -0.49,0.81 -0.21,1.2 0.27,0.4 0.82,0.49 1.21,0.22 l 3.41,-2.38 v 10.8 c 0,0.48 0.39,0.87 0.87,0.87 0.48,0 0.87,-0.39 0.87,-0.87 v -12.47 c 0,-0.32 -0.18,-0.62 -0.46,-0.77 z"
   class="st1"
   id="path147"
   inkscape:connector-curvature="0"
   style="fill:#d7d7d7;stroke:none;stroke-width:3.90271997;stroke-linecap:butt" />
				</g>
				<g
   id="shape221-59"
   v:mID="221"
   v:groupContext="shape"
   transform="translate(229.912,-30.8598)">
					<title
   id="title150">工作表.221</title>
					<path
   d="M 6.67,254.41 H 2.61 c -1.44,0 -2.61,1.18 -2.61,2.61 v 8.12 c 0,1.44 1.18,2.61 2.61,2.61 h 4.06 c 1.44,0 2.61,-1.18 2.61,-2.61 v -8.12 c 0,-1.43 -1.17,-2.61 -2.61,-2.61 z m 0.87,10.74 c 0,0.47 -0.39,0.86 -0.87,0.86 H 2.61 c -0.48,0 -0.87,-0.39 -0.87,-0.86 v -8.12 c 0,-0.48 0.39,-0.87 0.87,-0.87 h 4.06 c 0.48,0 0.87,0.39 0.87,0.87 z"
   class="st1"
   id="path152"
   inkscape:connector-curvature="0"
   style="fill:#d7d7d7;stroke:none;stroke-width:3.90271997;stroke-linecap:butt" />
				</g>
				<g
   id="shape222-61"
   v:mID="222"
   v:groupContext="shape"
   transform="translate(242.845,-30.8598)">
					<title
   id="title155">工作表.222</title>
					<path
   d="m 6.18,253.64 c -0.29,-0.15 -0.64,-0.12 -0.91,0.07 l -4.78,3.32 c -0.39,0.28 -0.49,0.82 -0.21,1.21 0.27,0.4 0.81,0.5 1.2,0.22 l 3.42,-2.38 v 10.8 c 0,0.48 0.39,0.87 0.87,0.87 0.48,0 0.88,-0.39 0.88,-0.87 v -12.47 c 0,-0.32 -0.19,-0.61 -0.47,-0.77 z"
   class="st1"
   id="path157"
   inkscape:connector-curvature="0"
   style="fill:#d7d7d7;stroke:none;stroke-width:3.90271997;stroke-linecap:butt" />
				</g>
				<g
   id="shape223-63"
   v:mID="223"
   v:groupContext="shape"
   transform="translate(3.30327,-122.45)">
					<title
   id="title160">工作表.223</title>
					<path
   d="m 9.28,257.03 c 0,-1.45 -1.17,-2.61 -2.61,-2.61 H 2.61 c -1.44,0 -2.61,1.17 -2.61,2.61 v 8.12 c 0,1.43 1.17,2.6 2.61,2.6 h 4.06 c 1.44,0 2.61,-1.17 2.61,-2.6 z m -1.74,8.12 c 0,0.48 -0.39,0.87 -0.87,0.87 H 2.61 c -0.48,0 -0.87,-0.39 -0.87,-0.87 v -8.12 c 0,-0.48 0.39,-0.87 0.87,-0.87 h 4.06 c 0.48,0 0.87,0.39 0.87,0.87 z"
   class="st1"
   id="path162"
   inkscape:connector-curvature="0"
   style="fill:#d7d7d7;stroke:none;stroke-width:3.90271997;stroke-linecap:butt" />
				</g>
				<g
   id="shape224-65"
   v:mID="224"
   v:groupContext="shape"
   transform="translate(28.9669,-122.453)">
					<title
   id="title165">工作表.224</title>
					<path
   d="M 6.67,254.42 H 2.61 c -1.44,0 -2.61,1.17 -2.61,2.61 v 8.12 c 0,1.43 1.17,2.6 2.61,2.6 h 4.06 c 1.44,0 2.61,-1.17 2.61,-2.6 v -8.12 c 0,-1.44 -1.17,-2.61 -2.61,-2.61 z m 0.87,10.73 c 0,0.48 -0.39,0.87 -0.87,0.87 H 2.61 c -0.48,0 -0.87,-0.39 -0.87,-0.87 v -8.12 c 0,-0.47 0.39,-0.87 0.87,-0.87 h 4.06 c 0.48,0 0.87,0.4 0.87,0.87 z"
   class="st1"
   id="path167"
   inkscape:connector-curvature="0"
   style="fill:#d7d7d7;stroke:none;stroke-width:3.90271997;stroke-linecap:butt" />
				</g>
				<g
   id="shape225-67"
   v:mID="225"
   v:groupContext="shape"
   transform="translate(16.2331,-122.453)">
					<title
   id="title170">工作表.225</title>
					<path
   d="m 6.18,253.65 c -0.29,-0.16 -0.64,-0.13 -0.9,0.06 l -4.79,3.33 c -0.39,0.27 -0.49,0.82 -0.21,1.21 0.27,0.39 0.81,0.49 1.21,0.21 l 3.41,-2.38 v 10.8 c 0,0.48 0.4,0.87 0.87,0.87 0.48,0 0.88,-0.39 0.88,-0.87 v -12.47 c 0,-0.31 -0.19,-0.61 -0.47,-0.76 z"
   class="st1"
   id="path172"
   inkscape:connector-curvature="0"
   style="fill:#d7d7d7;stroke:none;stroke-width:3.90271997;stroke-linecap:butt" />
				</g>
				<g
   id="shape226-69"
   v:mID="226"
   v:groupContext="shape"
   transform="translate(12.6073,-104.24)">
					<title
   id="title175">工作表.226</title>
					<path
   d="m 2.61,267.75 h 4.06 c 1.44,0 2.61,-1.17 2.61,-2.6 v -8.12 c 0,-1.44 -1.17,-2.61 -2.61,-2.61 H 2.61 c -1.44,0 -2.61,1.17 -2.61,2.61 v 8.12 c 0,1.43 1.17,2.6 2.61,2.6 z M 1.74,257.03 c 0,-0.48 0.39,-0.87 0.87,-0.87 h 4.06 c 0.48,0 0.87,0.39 0.87,0.87 v 8.11 c 0,0.48 -0.39,0.87 -0.87,0.87 H 2.61 c -0.48,0 -0.87,-0.39 -0.87,-0.87 z"
   class="st1"
   id="path177"
   inkscape:connector-curvature="0"
   style="fill:#d7d7d7;stroke:none;stroke-width:3.90271997;stroke-linecap:butt" />
				</g>
				<g
   id="shape227-71"
   v:mID="227"
   v:groupContext="shape"
   transform="translate(26.9416,-103.8)">
					<title
   id="title180">工作表.227</title>
					<path
   d="m 2.61,267.75 h 4.06 c 1.44,0 2.61,-1.18 2.61,-2.61 v -8.12 c 0,-1.44 -1.17,-2.6 -2.61,-2.6 H 2.61 c -1.44,0 -2.61,1.17 -2.61,2.6 v 8.12 c 0,1.44 1.17,2.61 2.61,2.61 z M 1.74,257.02 c 0,-0.48 0.39,-0.87 0.87,-0.87 h 4.06 c 0.48,0 0.87,0.39 0.87,0.87 v 8.12 c 0,0.48 -0.39,0.87 -0.87,0.87 H 2.61 c -0.48,0 -0.87,-0.39 -0.87,-0.87 z"
   class="st1"
   id="path182"
   inkscape:connector-curvature="0"
   style="fill:#d7d7d7;stroke:none;stroke-width:3.90271997;stroke-linecap:butt" />
				</g>
				<g
   id="shape228-73"
   v:mID="228"
   v:groupContext="shape"
   transform="translate(0.777595,-86.6207)">
					<title
   id="title185">工作表.228</title>
					<path
   d="m 2.61,267.75 h 4.06 c 1.44,0 2.61,-1.18 2.61,-2.61 v -8.12 c 0,-1.44 -1.17,-2.61 -2.61,-2.61 H 2.61 c -1.44,0 -2.61,1.18 -2.61,2.61 v 8.12 c 0,1.43 1.17,2.61 2.61,2.61 z M 1.74,257.02 c 0,-0.48 0.39,-0.87 0.87,-0.87 h 4.06 c 0.48,0 0.87,0.39 0.87,0.87 v 8.12 c 0,0.48 -0.39,0.86 -0.87,0.86 H 2.61 c -0.48,0 -0.87,-0.38 -0.87,-0.86 z"
   class="st1"
   id="path187"
   inkscape:connector-curvature="0"
   style="fill:#d7d7d7;stroke:none;stroke-width:3.90271997;stroke-linecap:butt" />
				</g>
				<g
   id="shape229-75"
   v:mID="229"
   v:groupContext="shape"
   transform="translate(26.4413,-86.6207)">
					<title
   id="title190">工作表.229</title>
					<path
   d="m 2.61,267.75 h 4.06 c 1.44,0 2.61,-1.18 2.61,-2.61 v -8.12 c 0,-1.44 -1.17,-2.61 -2.61,-2.61 H 2.61 c -1.44,0 -2.61,1.18 -2.61,2.61 v 8.12 c 0,1.43 1.17,2.61 2.61,2.61 z M 1.74,257.02 c 0,-0.48 0.39,-0.87 0.87,-0.87 h 4.06 c 0.48,0 0.87,0.39 0.87,0.87 v 8.12 c 0,0.48 -0.39,0.86 -0.87,0.86 H 2.61 c -0.48,0 -0.87,-0.38 -0.87,-0.86 z"
   class="st1"
   id="path192"
   inkscape:connector-curvature="0"
   style="fill:#d7d7d7;stroke:none;stroke-width:3.90271997;stroke-linecap:butt" />
				</g>
				<g
   id="shape230-77"
   v:mID="230"
   v:groupContext="shape"
   transform="translate(13.7074,-86.6207)">
					<title
   id="title195">工作表.230</title>
					<path
   d="m 5.77,267.75 c 0.48,0 0.87,-0.39 0.87,-0.87 v -12.47 c 0,-0.32 -0.18,-0.62 -0.46,-0.77 -0.29,-0.15 -0.64,-0.13 -0.91,0.06 l -4.78,3.33 c -0.39,0.27 -0.49,0.81 -0.21,1.21 0.27,0.39 0.81,0.49 1.21,0.22 l 3.41,-2.39 v 10.81 c 0,0.48 0.39,0.87 0.87,0.87 z"
   class="st1"
   id="path197"
   inkscape:connector-curvature="0"
   style="fill:#d7d7d7;stroke:none;stroke-width:3.90271997;stroke-linecap:butt" />
				</g>
				<g
   id="shape231-79"
   v:mID="231"
   v:groupContext="shape"
   transform="translate(2.52568,-67.1205)">
					<title
   id="title200">工作表.231</title>
					<path
   d="M 6.67,254.42 H 2.61 c -1.44,0 -2.61,1.17 -2.61,2.61 v 8.11 c 0,1.44 1.17,2.61 2.61,2.61 h 4.06 c 1.44,0 2.61,-1.17 2.61,-2.61 v -8.11 c 0,-1.44 -1.17,-2.61 -2.61,-2.61 z m 0.87,10.73 c 0,0.48 -0.39,0.86 -0.87,0.86 H 2.61 c -0.48,0 -0.87,-0.38 -0.87,-0.86 v -8.12 c 0,-0.48 0.39,-0.87 0.87,-0.87 h 4.06 c 0.48,0 0.87,0.39 0.87,0.87 z"
   class="st1"
   id="path202"
   inkscape:connector-curvature="0"
   style="fill:#d7d7d7;stroke:none;stroke-width:3.90271997;stroke-linecap:butt" />
				</g>
				<g
   id="shape232-81"
   v:mID="232"
   v:groupContext="shape"
   transform="translate(28.1893,-67.1205)">
					<title
   id="title205">工作表.232</title>
					<path
   d="M 6.67,254.42 H 2.61 c -1.44,0 -2.61,1.17 -2.61,2.61 v 8.11 c 0,1.44 1.17,2.61 2.61,2.61 h 4.06 c 1.44,0 2.61,-1.17 2.61,-2.61 v -8.11 c 0,-1.44 -1.17,-2.61 -2.61,-2.61 z m 0.87,10.73 c 0,0.48 -0.39,0.86 -0.87,0.86 H 2.61 c -0.48,0 -0.87,-0.38 -0.87,-0.86 v -8.12 c 0,-0.48 0.39,-0.87 0.87,-0.87 h 4.06 c 0.48,0 0.87,0.39 0.87,0.87 z"
   class="st1"
   id="path207"
   inkscape:connector-curvature="0"
   style="fill:#d7d7d7;stroke:none;stroke-width:3.90271997;stroke-linecap:butt" />
				</g>
				<g
   id="shape233-83"
   v:mID="233"
   v:groupContext="shape"
   transform="translate(15.4555,-67.1175)">
					<title
   id="title210">工作表.233</title>
					<path
   d="m 6.18,253.65 c -0.29,-0.16 -0.64,-0.13 -0.9,0.06 l -4.79,3.33 c -0.39,0.27 -0.49,0.82 -0.21,1.2 0.27,0.4 0.81,0.5 1.21,0.22 l 3.41,-2.38 v 10.8 c 0,0.48 0.4,0.87 0.87,0.87 0.48,0 0.88,-0.39 0.88,-0.87 v -12.47 c -0.01,-0.32 -0.19,-0.62 -0.47,-0.76 z"
   class="st1"
   id="path212"
   inkscape:connector-curvature="0"
   style="fill:#d7d7d7;stroke:none;stroke-width:3.90271997;stroke-linecap:butt" />
				</g>
				<g
   id="shape234-85"
   v:mID="234"
   v:groupContext="shape"
   transform="translate(11.8297,-48.9133)">
					<title
   id="title215">工作表.234</title>
					<path
   d="M 6.67,254.42 H 2.61 c -1.44,0 -2.61,1.17 -2.61,2.61 v 8.11 c 0,1.45 1.17,2.61 2.61,2.61 h 4.06 c 1.44,0 2.61,-1.17 2.61,-2.61 v -8.11 c 0,-1.44 -1.17,-2.61 -2.61,-2.61 z m 0.87,10.73 c 0,0.48 -0.39,0.86 -0.87,0.86 H 2.61 c -0.48,0 -0.87,-0.38 -0.87,-0.86 v -8.12 c 0,-0.48 0.38,-0.87 0.87,-0.87 h 4.06 c 0.48,0 0.87,0.39 0.87,0.87 z"
   class="st1"
   id="path217"
   inkscape:connector-curvature="0"
   style="fill:#d7d7d7;stroke:none;stroke-width:3.90271997;stroke-linecap:butt" />
				</g>
				<g
   id="shape235-87"
   v:mID="235"
   v:groupContext="shape"
   transform="translate(26.164,-48.4763)">
					<title
   id="title220">工作表.235</title>
					<path
   d="M 6.67,254.42 H 2.61 c -1.44,0 -2.61,1.17 -2.61,2.61 v 8.11 c 0,1.44 1.17,2.61 2.61,2.61 h 4.06 c 1.44,0 2.61,-1.17 2.61,-2.61 v -8.11 c 0,-1.44 -1.17,-2.61 -2.61,-2.61 z m 0.87,10.73 c 0,0.48 -0.39,0.87 -0.87,0.87 H 2.61 c -0.48,0 -0.87,-0.39 -0.87,-0.87 v -8.12 c 0,-0.48 0.39,-0.87 0.87,-0.87 h 4.06 c 0.48,0 0.87,0.39 0.87,0.87 z"
   class="st1"
   id="path222"
   inkscape:connector-curvature="0"
   style="fill:#d7d7d7;stroke:none;stroke-width:3.90271997;stroke-linecap:butt" />
				</g>
				<g
   id="shape236-89"
   v:mID="236"
   v:groupContext="shape"
   transform="translate(39.0937,-48.4702)">
					<title
   id="title225">工作表.236</title>
					<path
   d="m 4.9,256.08 v 10.8 c 0,0.48 0.39,0.87 0.87,0.87 0.48,0 0.87,-0.39 0.87,-0.87 v -12.47 c 0,-0.32 -0.18,-0.62 -0.46,-0.77 -0.29,-0.15 -0.64,-0.13 -0.91,0.06 l -4.78,3.33 c -0.39,0.27 -0.49,0.82 -0.21,1.21 0.27,0.4 0.81,0.49 1.21,0.21 z"
   class="st1"
   id="path227"
   inkscape:connector-curvature="0"
   style="fill:#d7d7d7;stroke:none;stroke-width:3.90271997;stroke-linecap:butt" />
				</g>
				<g
   id="shape237-91"
   v:mID="237"
   v:groupContext="shape"
   transform="translate(0,-31.2968)">
					<title
   id="title230">工作表.237</title>
					<path
   d="M 6.67,254.41 H 2.61 c -1.44,0 -2.61,1.18 -2.61,2.62 v 8.11 c 0,1.44 1.17,2.61 2.61,2.61 h 4.06 c 1.44,0 2.61,-1.17 2.61,-2.61 v -8.11 c 0,-1.44 -1.17,-2.62 -2.61,-2.62 z m 0.87,10.74 c 0,0.48 -0.39,0.86 -0.87,0.86 H 2.61 c -0.48,0 -0.87,-0.38 -0.87,-0.86 v -8.12 c 0,-0.48 0.39,-0.87 0.87,-0.87 h 4.06 c 0.48,0 0.87,0.39 0.87,0.87 z"
   class="st1"
   id="path232"
   inkscape:connector-curvature="0"
   style="fill:#d7d7d7;stroke:none;stroke-width:3.90271997;stroke-linecap:butt" />
				</g>
				<g
   id="shape238-93"
   v:mID="238"
   v:groupContext="shape"
   transform="translate(25.6606,-31.2998)">
					<title
   id="title235">工作表.238</title>
					<path
   d="M 6.67,254.42 H 2.61 c -1.44,0 -2.61,1.17 -2.61,2.61 v 8.11 c 0,1.44 1.17,2.61 2.61,2.61 h 4.06 c 1.44,0 2.61,-1.17 2.61,-2.61 v -8.11 c 0,-1.44 -1.17,-2.61 -2.61,-2.61 z m 0.87,10.73 c 0,0.48 -0.39,0.87 -0.87,0.87 H 2.61 c -0.48,0 -0.87,-0.39 -0.87,-0.87 v -8.12 c 0,-0.48 0.39,-0.87 0.87,-0.87 h 4.06 c 0.48,0 0.87,0.39 0.87,0.87 z"
   class="st1"
   id="path237"
   inkscape:connector-curvature="0"
   style="fill:#d7d7d7;stroke:none;stroke-width:3.90271997;stroke-linecap:butt" />
				</g>
				<g
   id="shape239-95"
   v:mID="239"
   v:groupContext="shape"
   transform="translate(12.9298,-31.2968)">
					<title
   id="title240">工作表.239</title>
					<path
   d="m 6.18,253.64 c -0.29,-0.15 -0.64,-0.12 -0.91,0.07 l -4.78,3.33 c -0.39,0.27 -0.49,0.81 -0.21,1.2 0.27,0.4 0.81,0.49 1.21,0.22 l 3.41,-2.38 v 10.8 c 0,0.48 0.39,0.87 0.87,0.87 0.48,0 0.87,-0.39 0.87,-0.87 v -12.47 c 0,-0.32 -0.18,-0.62 -0.46,-0.77 z"
   class="st1"
   id="path242"
   inkscape:connector-curvature="0"
   style="fill:#d7d7d7;stroke:none;stroke-width:3.90271997;stroke-linecap:butt" />
				</g>
				<g
   id="shape240-97"
   v:mID="240"
   v:groupContext="shape"
   transform="translate(39.9949,-30.8598)">
					<title
   id="title245">工作表.240</title>
					<path
   d="M 6.67,254.41 H 2.61 c -1.44,0 -2.61,1.18 -2.61,2.61 v 8.12 c 0,1.44 1.17,2.61 2.61,2.61 h 4.06 c 1.44,0 2.61,-1.18 2.61,-2.61 v -8.12 c 0,-1.43 -1.17,-2.61 -2.61,-2.61 z m 0.87,10.74 c 0,0.47 -0.39,0.86 -0.87,0.86 H 2.61 c -0.48,0 -0.87,-0.39 -0.87,-0.86 v -8.12 c 0,-0.48 0.39,-0.87 0.87,-0.87 h 4.06 c 0.48,0 0.87,0.39 0.87,0.87 z"
   class="st1"
   id="path247"
   inkscape:connector-curvature="0"
   style="fill:#d7d7d7;stroke:none;stroke-width:3.90271997;stroke-linecap:butt" />
				</g>
			</g>
		</g>
	</g>
</svg>