<?xml version="1.0"?>
<svg xmlns="http://www.w3.org/2000/svg" id="Glyph" height="512px" viewBox="0 0 64 64" width="512px"><g><path d="m11 29a1 1 0 0 0 1 1h12a1 1 0 0 0 1-1v-3h24v-2h-24v-3a1 1 0 0 0 -1-1h-12a1 1 0 0 0 -1 1v3h-4v2h4z" data-original="#000000" class="active-path" data-old_color="#000000" fill="#D7D7D7"/><path d="m11 10h2v2h-2z" data-original="#000000" class="active-path" data-old_color="#000000" fill="#D7D7D7"/><path d="m7 10h2v2h-2z" data-original="#000000" class="active-path" data-old_color="#000000" fill="#D7D7D7"/><path d="m3 10h2v2h-2z" data-original="#000000" class="active-path" data-old_color="#000000" fill="#D7D7D7"/><path d="m59 10h2v2h-2z" data-original="#000000" class="active-path" data-old_color="#000000" fill="#D7D7D7"/><path d="m55 10h2v2h-2z" data-original="#000000" class="active-path" data-old_color="#000000" fill="#D7D7D7"/><path d="m53 10h-4v-3a1 1 0 0 0 -1-1h-12a1 1 0 0 0 -1 1v3h-20v2h20v3a1 1 0 0 0 1 1h12a1 1 0 0 0 1-1v-3h4z" data-original="#000000" class="active-path" data-old_color="#000000" fill="#D7D7D7"/><path d="m12 38h2v2h-2z" data-original="#000000" class="active-path" data-old_color="#000000" fill="#D7D7D7"/><path d="m8 38h2v2h-2z" data-original="#000000" class="active-path" data-old_color="#000000" fill="#D7D7D7"/><path d="m4 38h2v2h-2z" data-original="#000000" class="active-path" data-old_color="#000000" fill="#D7D7D7"/><path d="m60 38h2v2h-2z" data-original="#000000" class="active-path" data-old_color="#000000" fill="#D7D7D7"/><path d="m58 38h-8v-3a1 1 0 0 0 -1-1h-12a1 1 0 0 0 -1 1v3h-20v2h20v3a1 1 0 0 0 1 1h12a1 1 0 0 0 1-1v-3h8z" data-original="#000000" class="active-path" data-old_color="#000000" fill="#D7D7D7"/><path d="m3 24h2v2h-2z" data-original="#000000" class="active-path" data-old_color="#000000" fill="#D7D7D7"/><path d="m59 24h2v2h-2z" data-original="#000000" class="active-path" data-old_color="#000000" fill="#D7D7D7"/><path d="m55 24h2v2h-2z" data-original="#000000" class="active-path" data-old_color="#000000" fill="#D7D7D7"/><path d="m51 24h2v2h-2z" data-original="#000000" class="active-path" data-old_color="#000000" fill="#D7D7D7"/><path d="m20 58h12a1 1 0 0 0 1-1v-3h12v-2h-12v-3a1 1 0 0 0 -1-1h-12a1 1 0 0 0 -1 1v3h-9v2h9v3a1 1 0 0 0 1 1z" data-original="#000000" class="active-path" data-old_color="#000000" fill="#D7D7D7"/><path d="m2 52h2v2h-2z" data-original="#000000" class="active-path" data-old_color="#000000" fill="#D7D7D7"/><path d="m6 52h2v2h-2z" data-original="#000000" class="active-path" data-old_color="#000000" fill="#D7D7D7"/><path d="m59 52h2v2h-2z" data-original="#000000" class="active-path" data-old_color="#000000" fill="#D7D7D7"/><path d="m55 52h2v2h-2z" data-original="#000000" class="active-path" data-old_color="#000000" fill="#D7D7D7"/><path d="m51 52h2v2h-2z" data-original="#000000" class="active-path" data-old_color="#000000" fill="#D7D7D7"/><path d="m47 52h2v2h-2z" data-original="#000000" class="active-path" data-old_color="#000000" fill="#D7D7D7"/></g> </svg>
