<?xml version="1.0"?>
<svg xmlns="http://www.w3.org/2000/svg" xmlns:xlink="http://www.w3.org/1999/xlink" version="1.1" id="Capa_1" x="0px" y="0px" viewBox="0 0 487.85 487.85" style="enable-background:new 0 0 487.85 487.85;" xml:space="preserve" width="512px" height="512px"><g><g>
	<g>
		<path d="M243.925,98.525c-93.2,0-177.7,50.9-240.1,133.8c-5.1,6.8-5.1,16.2,0,23c62.4,83,146.9,134,240.1,134    s177.7-50.9,240.1-133.8c5.1-6.8,5.1-16.2,0-23C421.625,149.525,337.125,98.525,243.925,98.525z M250.625,346.325    c-61.9,3.9-112.9-47.1-109-109c3.2-51,44.6-92.5,95.7-95.7c61.9-3.9,112.9,47.1,109,109    C343.025,301.625,301.625,343.025,250.625,346.325z" data-original="#000000" class="active-path" data-old_color="#000000" fill="#D7D7D7"/>
		<path d="M247.525,299.025c-33.3,2.1-60.8-25.4-58.7-58.7c1.7-27.5,24-49.8,51.5-51.5c33.3-2.1,60.8,25.4,58.7,58.7    C297.325,275.025,275.025,297.325,247.525,299.025z" data-original="#000000" class="active-path" data-old_color="#000000" fill="#D7D7D7"/>
	</g>
</g></g> </svg>
