<?xml version="1.0" encoding="UTF-8" standalone="no"?>
<!-- 由 Microsoft Visio, SVG Export 生成 square-daq.svg 页-1 -->

<svg
   xmlns:v="http://schemas.microsoft.com/visio/2003/SVGExtensions/"
   xmlns:dc="http://purl.org/dc/elements/1.1/"
   xmlns:cc="http://creativecommons.org/ns#"
   xmlns:rdf="http://www.w3.org/1999/02/22-rdf-syntax-ns#"
   xmlns:svg="http://www.w3.org/2000/svg"
   xmlns="http://www.w3.org/2000/svg"
   xmlns:sodipodi="http://sodipodi.sourceforge.net/DTD/sodipodi-0.dtd"
   xmlns:inkscape="http://www.inkscape.org/namespaces/inkscape"
   width="512"
   height="512"
   viewBox="0 0 383.99955 383.99946"
   xml:space="preserve"
   class="st2"
   version="1.1"
   id="svg16"
   sodipodi:docname="square-daq.svg"
   style="font-size:12px;overflow:visible;color-interpolation-filters:sRGB;fill:none;fill-rule:evenodd;stroke-linecap:square;stroke-miterlimit:3"
   inkscape:version="0.92.4 (5da689c313, 2019-01-14)"><metadata
   id="metadata22"><rdf:RDF><cc:Work
       rdf:about=""><dc:format>image/svg+xml</dc:format><dc:type
         rdf:resource="http://purl.org/dc/dcmitype/StillImage" /><dc:title /></cc:Work></rdf:RDF></metadata><defs
   id="defs20" /><sodipodi:namedview
   pagecolor="#ffffff"
   bordercolor="#666666"
   borderopacity="1"
   objecttolerance="10"
   gridtolerance="10"
   guidetolerance="10"
   inkscape:pageopacity="0"
   inkscape:pageshadow="2"
   inkscape:window-width="3840"
   inkscape:window-height="2081"
   id="namedview18"
   showgrid="false"
   units="px"
   inkscape:zoom="0.86691067"
   inkscape:cx="-50.735116"
   inkscape:cy="136.11552"
   inkscape:window-x="-9"
   inkscape:window-y="-9"
   inkscape:window-maximized="1"
   inkscape:current-layer="svg16" />
	<v:documentProperties
   v:langID="2052"
   v:viewMarkup="false" />

	<style
   type="text/css"
   id="style2">
	<![CDATA[
		.st1 {fill:#d7d7d7;stroke:none;stroke-linecap:butt;stroke-width:6.12}
		.st2 {fill:none;fill-rule:evenodd;font-size:12px;overflow:visible;stroke-linecap:square;stroke-miterlimit:3}
	]]>
	</style>

	<g
   v:mID="0"
   v:index="1"
   v:groupContext="foregroundPage"
   id="g14"
   transform="matrix(1.4698946,0,0,1.4698946,-4.4957576,42.141352)">
		<title
   id="title4">页-1</title>
		<v:pageProperties
   v:drawingScale="0.0393701"
   v:pageScale="0.0393701"
   v:drawingUnits="24"
   v:shadowOffsetX="9"
   v:shadowOffsetY="-9" />
		<g
   id="group340-1"
   transform="translate(18.8759)"
   v:mID="340"
   v:groupContext="group">
			<title
   id="title6">工作表.340</title>
			<g
   id="shape341-2"
   v:mID="341"
   v:groupContext="shape"
   transform="translate(-12.7559,-27.6482)">
				<title
   id="title8">工作表.341</title>
				<path
   d="m 161.01,130.5 c 5.95,0 4.25,37.1 10.49,37.1 6.23,0 3.68,-20.79 11.62,-20.79 7.94,0 5.95,36.39 13.04,36.39 7.08,0 7.65,-44.82 15.02,-44.82 7.37,0 5.39,19.36 12.19,19.36 6.8,0 5.95,-27.42 17.29,-27.6 0.85,0 1.99,0 2.84,0 6.8,-0.18 10.77,-0.18 10.77,-0.18 0.56,0 0.85,-0.18 0.85,-0.18 0,-0.18 -0.29,-0.36 -0.85,-0.36 0,0 -3.97,-0.18 -10.77,-0.18 -0.85,0 -1.7,0 -2.56,0 -11.33,0 -10.77,-27.78 -17.29,-27.78 -6.8,0 -4.82,19.36 -12.19,19.36 -7.37,0 -7.65,-44.82 -15.02,-44.82 -7.09,0 -5.1,36.39 -13.04,36.39 -7.94,0 -5.38,-20.79 -11.62,-20.79 -6.24,0 -4.82,37.1 -10.49,37.1 -9.64,0 -9.07,-22.94 -14.46,-22.94 -5.66,0 -3.96,22.59 -9.92,22.77 -3.11,0 -14.45,0 -14.45,0 -10.21,0 -11.06,-35.86 -16.73,-35.86 -5.67,0 -5.38,14.7 -11.34,14.7 -5.95,0 -5.67,-34.95 -11.9,-34.95 -6.24,0 -3.69,17.03 -11.62,17.03 -7.94,0 -5.96,-34.42 -13.33,-34.42 -7.08,0 -7.65,60.05 -15.02,60.05 -7.37,0 -3.97,-29.04 -10.77,-29.04 -6.81,0 -5.95,42.84 -17.29,43.02 -0.85,0 -1.7,0 -2.55,0 -6.81,0.18 -10.78,0.18 -10.78,0.18 -0.56,0 -1.13,0.18 -1.13,0.36 0,0.18 0.28,0.36 0.85,0.36 0,0 3.97,0.18 10.77,0.18 0.85,0 1.7,0 2.84,0 11.34,0.18 10.48,43.02 17.29,43.02 6.8,0 3.4,-29.04 10.77,-29.04 7.37,0 7.65,60.05 15.02,60.05 7.09,0 5.11,-34.59 13.04,-34.59 7.94,0 5.39,17.03 11.62,17.03 6.24,0 5.96,-34.96 11.91,-34.96 5.95,0 5.67,14.7 11.34,14.7 5.67,0 6.52,-35.85 16.72,-35.85 1.7,0 11.63,0 14.46,0 5.95,0.36 4.25,22.76 9.92,22.76 5.67,0.18 5.1,-22.76 14.46,-22.76 z"
   class="st1"
   id="path10"
   inkscape:connector-curvature="0"
   style="fill:#d7d7d7;stroke:none;stroke-width:6.11999989;stroke-linecap:butt" />
			</g>
		</g>
	</g>
</svg>