<?xml version="1.0" encoding="UTF-8" standalone="no"?>
<!DOCTYPE svg PUBLIC "-//W3C//DTD SVG 1.1//EN" "http://www.w3.org/Graphics/SVG/1.1/DTD/svg11.dtd">
<!-- 由 Microsoft Visio, SVG Export 生成 square-daq.svg 页-1 -->
<svg xmlns="http://www.w3.org/2000/svg" xmlns:xlink="http://www.w3.org/1999/xlink" xmlns:ev="http://www.w3.org/2001/xml-events"
		xmlns:v="http://schemas.microsoft.com/visio/2003/SVGExtensions/" width="3.71331in" height="2.83574in"
		viewBox="0 0 267.358 204.173" xml:space="preserve" color-interpolation-filters="sRGB" class="st2">
	<v:documentProperties v:langID="2052" v:viewMarkup="false"/>

	<style type="text/css">
	<![CDATA[
		.st1 {fill:#d7d7d7;stroke:none;stroke-linecap:butt;stroke-width:6.12}
		.st2 {fill:none;fill-rule:evenodd;font-size:12px;overflow:visible;stroke-linecap:square;stroke-miterlimit:3}
	]]>
	</style>

	<g v:mID="0" v:index="1" v:groupContext="foregroundPage">
		<title>页-1</title>
		<v:pageProperties v:drawingScale="0.0393701" v:pageScale="0.0393701" v:drawingUnits="24" v:shadowOffsetX="9"
				v:shadowOffsetY="-9"/>
		<g id="group340-1" transform="translate(18.8759,0)" v:mID="340" v:groupContext="group">
			<title>工作表.340</title>
			<g id="shape341-2" v:mID="341" v:groupContext="shape" transform="translate(-12.7559,-27.6482)">
				<title>工作表.341</title>
				<path d="M161.01 130.5 C166.96 130.5 165.26 167.6 171.5 167.6 C177.73 167.6 175.18 146.81 183.12 146.81 C191.06 146.81
							 189.07 183.2 196.16 183.2 C203.24 183.2 203.81 138.38 211.18 138.38 C218.55 138.38 216.57 157.74 223.37
							 157.74 C230.17 157.74 229.32 130.32 240.66 130.14 C241.51 130.14 242.65 130.14 243.5 130.14 C250.3 129.96
							 254.27 129.96 254.27 129.96 C254.83 129.96 255.12 129.78 255.12 129.78 C255.12 129.6 254.83 129.42 254.27
							 129.42 C254.27 129.42 250.3 129.24 243.5 129.24 C242.65 129.24 241.8 129.24 240.94 129.24 C229.61 129.24
							 230.17 101.46 223.65 101.46 C216.85 101.46 218.83 120.82 211.46 120.82 C204.09 120.82 203.81 76 196.44
							 76 C189.35 76 191.34 112.39 183.4 112.39 C175.46 112.39 178.02 91.6 171.78 91.6 C165.54 91.6 166.96
							 128.7 161.29 128.7 C151.65 128.7 152.22 105.76 146.83 105.76 C141.17 105.76 142.87 128.35 136.91 128.53
							 C133.8 128.53 122.46 128.53 122.46 128.53 C112.25 128.53 111.4 92.67 105.73 92.67 C100.06 92.67 100.35
							 107.37 94.39 107.37 C88.44 107.37 88.72 72.42 82.49 72.42 C76.25 72.42 78.8 89.45 70.87 89.45 C62.93
							 89.45 64.91 55.03 57.54 55.03 C50.46 55.03 49.89 115.08 42.52 115.08 C35.15 115.08 38.55 86.04 31.75
							 86.04 C24.94 86.04 25.8 128.88 14.46 129.06 C13.61 129.06 12.76 129.06 11.91 129.06 C5.1 129.24 1.13
							 129.24 1.13 129.24 C0.57 129.24 0 129.42 0 129.6 C0 129.78 0.28 129.96 0.85 129.96 C0.85 129.96 4.82
							 130.14 11.62 130.14 C12.47 130.14 13.32 130.14 14.46 130.14 C25.8 130.32 24.94 173.16 31.75 173.16 C38.55
							 173.16 35.15 144.12 42.52 144.12 C49.89 144.12 50.17 204.17 57.54 204.17 C64.63 204.17 62.65 169.58
							 70.58 169.58 C78.52 169.58 75.97 186.61 82.2 186.61 C88.44 186.61 88.16 151.65 94.11 151.65 C100.06
							 151.65 99.78 166.35 105.45 166.35 C111.12 166.35 111.97 130.5 122.17 130.5 C123.87 130.5 133.8 130.5
							 136.63 130.5 C142.58 130.86 140.88 153.26 146.55 153.26 C152.22 153.44 151.65 130.5 161.01 130.5 Z"
						class="st1"/>
			</g>
		</g>
	</g>
</svg>
