<?xml version="1.0" encoding="UTF-8" standalone="no"?>
<!-- Generator: Adobe Illustrator 18.1.1, SVG Export Plug-In . SVG Version: 6.00 Build 0)  -->

<svg
   xmlns:dc="http://purl.org/dc/elements/1.1/"
   xmlns:cc="http://creativecommons.org/ns#"
   xmlns:rdf="http://www.w3.org/1999/02/22-rdf-syntax-ns#"
   xmlns:svg="http://www.w3.org/2000/svg"
   xmlns="http://www.w3.org/2000/svg"
   xmlns:sodipodi="http://sodipodi.sourceforge.net/DTD/sodipodi-0.dtd"
   xmlns:inkscape="http://www.inkscape.org/namespaces/inkscape"
   version="1.1"
   id="Capa_1"
   x="0px"
   y="0px"
   viewBox="0 0 32 32"
   style="enable-background:new 0 0 32 32;"
   xml:space="preserve"
   sodipodi:docname="update.svg"
   inkscape:version="0.92.4 (5da689c313, 2019-01-14)"><metadata
   id="metadata46"><rdf:RDF><cc:Work
       rdf:about=""><dc:format>image/svg+xml</dc:format><dc:type
         rdf:resource="http://purl.org/dc/dcmitype/StillImage" /><dc:title></dc:title></cc:Work></rdf:RDF></metadata><defs
   id="defs44" /><sodipodi:namedview
   pagecolor="#ffffff"
   bordercolor="#666666"
   borderopacity="1"
   objecttolerance="10"
   gridtolerance="10"
   guidetolerance="10"
   inkscape:pageopacity="0"
   inkscape:pageshadow="2"
   inkscape:window-width="962"
   inkscape:window-height="1379"
   id="namedview42"
   showgrid="false"
   inkscape:zoom="7.375"
   inkscape:cx="16"
   inkscape:cy="16"
   inkscape:window-x="144"
   inkscape:window-y="578"
   inkscape:window-maximized="0"
   inkscape:current-layer="Capa_1" />
<g
   id="g9"
   style="fill:#d7d7d7;fill-opacity:1">
	<g
   id="spin"
   style="fill:#d7d7d7;fill-opacity:1">
		<g
   id="g6"
   style="fill:#d7d7d7;fill-opacity:1">
			<path
   style="fill:#d7d7d7;fill-opacity:1"
   d="M25.883,6.086l-2.82,2.832C24.953,10.809,26,13.324,26,16c0,5.516-4.484,10-10,10v-2l-4,4l4,4v-2     c7.719,0,14-6.281,14-14C30,12.254,28.539,8.734,25.883,6.086z"
   id="path2" />
			<path
   style="fill:#d7d7d7;fill-opacity:1"
   d="M20,4l-4-4v2C8.281,2,2,8.281,2,16c0,3.746,1.461,7.266,4.117,9.914l2.82-2.832     C7.047,21.191,6,18.676,6,16c0-5.516,4.484-10,10-10v2L20,4z"
   id="path4" />
		</g>
	</g>
</g>
<g
   id="g11">
</g>
<g
   id="g13">
</g>
<g
   id="g15">
</g>
<g
   id="g17">
</g>
<g
   id="g19">
</g>
<g
   id="g21">
</g>
<g
   id="g23">
</g>
<g
   id="g25">
</g>
<g
   id="g27">
</g>
<g
   id="g29">
</g>
<g
   id="g31">
</g>
<g
   id="g33">
</g>
<g
   id="g35">
</g>
<g
   id="g37">
</g>
<g
   id="g39">
</g>
</svg>