<?xml version="1.0" encoding="UTF-8" standalone="no"?>
<!DOCTYPE svg PUBLIC "-//W3C//DTD SVG 1.1//EN" "http://www.w3.org/Graphics/SVG/1.1/DTD/svg11.dtd">
<!-- 由 Microsoft Visio, SVG Export 生成 data.svg 页-1 -->
<svg xmlns="http://www.w3.org/2000/svg" xmlns:xlink="http://www.w3.org/1999/xlink" xmlns:ev="http://www.w3.org/2001/xml-events"
		xmlns:v="http://schemas.microsoft.com/visio/2003/SVGExtensions/" width="5.33333in" height="3.69417in"
		viewBox="0 0 384 265.98" xml:space="preserve" color-interpolation-filters="sRGB" class="st2">
	<v:documentProperties v:langID="2052" v:viewMarkup="false"/>

	<style type="text/css">
	<![CDATA[
		.st1 {fill:#6d329c;stroke:none;stroke-linecap:butt;stroke-width:0.75}
		.st2 {fill:none;fill-rule:evenodd;font-size:12px;overflow:visible;stroke-linecap:square;stroke-miterlimit:3}
	]]>
	</style>

	<g v:mID="0" v:index="1" v:groupContext="foregroundPage">
		<title>页-1</title>
		<v:pageProperties v:drawingScale="0.0393701" v:pageScale="0.0393701" v:drawingUnits="24" v:shadowOffsetX="9"
				v:shadowOffsetY="-9"/>
		<g id="group95-1" v:mID="95" v:groupContext="group">
			<title>工作表.95</title>
			<g id="group120-2" transform="translate(83.7165,-10.4066)" v:mID="120" v:groupContext="group">
				<title>工作表.120</title>
				<g id="shape121-3" v:mID="121" v:groupContext="shape" transform="translate(10.8,-12.2727)">
					<title>工作表.121</title>
					<path d="M59.28 45.07 L59.28 99.27 L0 99.27 L0 265.98 L194.4 265.98 L194.4 45.07 L59.28 45.07 ZM118.33 137.8
								 L129.46 129.8 L162.75 168.48 L129.46 207.16 L118.33 199.16 L144.74 168.48 L118.33 137.8 ZM90.12
								 129.62 L104.28 129.62 L104.28 207.34 L90.12 207.34 L90.12 129.62 ZM64.94 129.8 L76.07 137.8 L49.66
								 168.48 L76.07 199.16 L64.94 207.16 L31.65 168.48 L64.94 129.8 Z" class="st1"/>
				</g>
				<g id="shape122-5" v:mID="122" v:groupContext="shape" transform="translate(9.85654,-199.617)">
					<title>工作表.122</title>
					<path d="M40.28 265.98 L40.28 229.15 L0 265.98 L40.28 265.98 Z" class="st1"/>
				</g>
			</g>
		</g>
	</g>
</svg>
