<?xml version="1.0" encoding="UTF-8" standalone="no"?>
<!DOCTYPE svg PUBLIC "-//W3C//DTD SVG 1.1//EN" "http://www.w3.org/Graphics/SVG/1.1/DTD/svg11.dtd">
<!-- 由 Microsoft Visio, SVG Export 生成 lissajous.svg 页-1 -->
<svg xmlns="http://www.w3.org/2000/svg" xmlns:xlink="http://www.w3.org/1999/xlink" xmlns:ev="http://www.w3.org/2001/xml-events"
		xmlns:v="http://schemas.microsoft.com/visio/2003/SVGExtensions/" width="2.68373in" height="2.70813in"
		viewBox="0 0 193.228 194.985" xml:space="preserve" color-interpolation-filters="sRGB" class="st2">
	<v:documentProperties v:langID="2052" v:viewMarkup="false"/>

	<style type="text/css">
	<![CDATA[
		.st1 {fill:none;stroke:#1185d1;stroke-linecap:round;stroke-linejoin:round;stroke-width:4}
		.st2 {fill:none;fill-rule:evenodd;font-size:12px;overflow:visible;stroke-linecap:square;stroke-miterlimit:3}
	]]>
	</style>

	<g v:mID="0" v:index="1" v:groupContext="foregroundPage">
		<title>页-1</title>
		<v:pageProperties v:drawingScale="0.0393701" v:pageScale="0.0393701" v:drawingUnits="24" v:shadowOffsetX="9"
				v:shadowOffsetY="-9"/>
		<g id="group18-1" v:mID="18" v:groupContext="group">
			<title>工作表.18</title>
			<g id="shape19-2" v:mID="19" v:groupContext="shape" transform="translate(231.116,158.526) rotate(90) scale(-1,1)">
				<title>curve</title>
				<path d="M61.03 134.5 C74.81 144.83 88.66 155.22 99.7 164.56 C106.87 170.63 113.29 176.63 117.29 181.73 C119.54 184.61
							 121.52 187.82 121.52 190.38 C121.52 193.61 118.37 194.99 113.41 194.99 C106.03 194.99 94.28 191.95 81.1
							 186.63 C70.5 182.36 58.97 176.61 48 169.77 C39.84 164.68 32.09 159.04 25.29 153.03 C19.97 148.31 13.61
							 141.93 8.65 134.5 C2.67 125.53 0 116.92 0.64 109.04 C1.21 102.11 4.33 96.01 9.45 90.92 C13.7 86.68 18.68
							 83.78 22.62 81.89 C33.51 76.68 47.22 74.02 61.03 74.02 C74.84 74.02 88.55 76.68 99.44 81.89 C103.39
							 83.78 108.37 86.68 112.62 90.92 C117.73 96.01 120.86 102.11 121.42 109.04 C122.07 116.92 119.39 125.53
							 113.41 134.5 C108.46 141.93 102.1 148.31 96.77 153.03 C89.98 159.04 82.23 164.68 74.06 169.77 C63.09
							 176.61 51.57 182.36 40.97 186.63 C27.79 191.95 16.03 194.99 8.65 194.99 C3.69 194.99 0.55 193.61 0.55
							 190.38 C0.55 187.82 2.52 184.61 4.77 181.73 C8.77 176.63 15.2 170.63 22.37 164.56 C33.41 155.22 47.26
							 144.83 61.03 134.5 C74.81 124.17 88.66 113.78 99.7 104.44 C106.87 98.37 113.29 92.37 117.29 87.27 C119.54
							 84.4 121.52 81.18 121.52 78.62 C121.52 75.39 118.37 74.02 113.41 74.02 C106.03 74.02 94.28 77.06 81.1
							 82.37 C70.5 86.64 58.97 92.39 48 99.23 C39.84 104.33 32.09 109.97 25.29 115.98 C19.97 120.69 13.61 127.07
							 8.65 134.5 C2.67 143.47 0 152.09 0.64 159.96 C1.21 166.89 4.33 172.99 9.45 178.09 C13.7 182.32 18.68
							 185.22 22.62 187.11 C33.51 192.33 47.22 194.99 61.03 194.99 C74.84 194.99 88.55 192.33 99.44 187.11
							 C103.39 185.22 108.37 182.32 112.62 178.09 C117.73 172.99 120.86 166.89 121.42 159.96 C122.07 152.09
							 119.39 143.47 113.41 134.5 C108.46 127.07 102.1 120.69 96.77 115.98 C89.98 109.97 82.23 104.33 74.06
							 99.23 C63.09 92.39 51.57 86.64 40.97 82.37 C27.79 77.06 16.03 74.02 8.65 74.02 C3.69 74.02 0.55 75.39
							 0.55 78.62 C0.55 81.18 2.52 84.4 4.77 87.27 C8.77 92.37 15.2 98.37 22.37 104.44 C33.41 113.78 47.26
							 124.17 61.03 134.5 Z" class="st1"/>
			</g>
		</g>
	</g>
</svg>
