<?xml version="1.0" encoding="UTF-8" standalone="no"?>
<!DOCTYPE svg PUBLIC "-//W3C//DTD SVG 1.1//EN" "http://www.w3.org/Graphics/SVG/1.1/DTD/svg11.dtd">
<!-- 由 Microsoft Visio, SVG Export 生成 usb2.svg 页-1 -->
<svg xmlns="http://www.w3.org/2000/svg" xmlns:xlink="http://www.w3.org/1999/xlink" xmlns:ev="http://www.w3.org/2001/xml-events"
		xmlns:v="http://schemas.microsoft.com/visio/2003/SVGExtensions/" width="5.33333in" height="3.69417in"
		viewBox="0 0 384 265.98" xml:space="preserve" color-interpolation-filters="sRGB" class="st2">
	<v:documentProperties v:langID="2052" v:viewMarkup="false"/>

	<style type="text/css">
	<![CDATA[
		.st1 {fill:#009949;stroke:none;stroke-linecap:butt;stroke-width:0.75}
		.st2 {fill:none;fill-rule:evenodd;font-size:12px;overflow:visible;stroke-linecap:square;stroke-miterlimit:3}
	]]>
	</style>

	<g v:mID="0" v:index="1" v:groupContext="foregroundPage">
		<title>页-1</title>
		<v:pageProperties v:drawingScale="0.0393701" v:pageScale="0.0393701" v:drawingUnits="24" v:shadowOffsetX="9"
				v:shadowOffsetY="-9"/>
		<g id="group103-1" v:mID="103" v:groupContext="group">
			<title>工作表.103</title>
			<g id="shape125-2" v:mID="125" v:groupContext="shape" transform="translate(22.806,-58.0634)">
				<title>path1334</title>
				<path d="M337.82 190.92 L300.29 169.24 L300.29 184.7 L108.48 184.7 L145.83 145.25 C149.01 142.7 153.16 140.91 157.44
							 140.81 C174.75 140.81 185.03 140.81 188.81 140.8 C191.37 148.11 198.26 153.38 206.45 153.38 C216.81
							 153.38 225.22 144.97 225.22 134.61 C225.22 124.24 216.81 115.84 206.45 115.84 C198.26 115.84 191.37
							 121.11 188.81 128.41 L157.81 128.4 C149.41 128.4 140.6 133.01 135 138.42 C135.15 138.26 135.31 138.09
							 134.99 138.42 C134.87 138.55 95.37 180.28 95.37 180.28 C92.2 182.82 88.04 184.6 83.76 184.7 L62.06 184.7
							 C59.19 170.37 46.53 159.57 31.35 159.57 C14.03 159.57 0 173.6 0 190.91 C0 208.22 14.03 222.25 31.35
							 222.25 C46.53 222.25 59.19 211.45 62.07 197.1 L83.39 197.1 C83.44 197.1 83.5 197.1 83.55 197.1 L130.7
							 197.1 C134.97 197.21 139.12 198.99 142.29 201.53 C142.29 201.53 181.79 243.26 181.91 243.39 C182.23
							 243.73 182.07 243.55 181.91 243.39 C187.52 248.8 196.33 253.4 204.73 253.4 L234.6 253.4 L234.6 265.98
							 L272.14 265.98 L272.14 228.45 L234.6 228.45 L234.6 241.01 C234.6 241.01 226.73 241 204.36 241 C200.08
							 240.9 195.92 239.12 192.74 236.57 L155.39 197.1 L300.29 197.1 L300.29 212.59 L337.82 190.92 Z"
						class="st1"/>
			</g>
		</g>
	</g>
</svg>
