<?xml version="1.0" encoding="UTF-8" standalone="no"?>
<!-- 由 Microsoft Visio, SVG Export 生成 usb3.svg 页-1 -->

<svg
   xmlns:v="http://schemas.microsoft.com/visio/2003/SVGExtensions/"
   xmlns:dc="http://purl.org/dc/elements/1.1/"
   xmlns:cc="http://creativecommons.org/ns#"
   xmlns:rdf="http://www.w3.org/1999/02/22-rdf-syntax-ns#"
   xmlns:svg="http://www.w3.org/2000/svg"
   xmlns="http://www.w3.org/2000/svg"
   xmlns:sodipodi="http://sodipodi.sourceforge.net/DTD/sodipodi-0.dtd"
   xmlns:inkscape="http://www.inkscape.org/namespaces/inkscape"
   width="512"
   height="512"
   viewBox="0 0 384.00023 383.99965"
   xml:space="preserve"
   class="st2"
   version="1.1"
   id="svg16"
   sodipodi:docname="usb3.svg"
   style="font-size:12px;overflow:visible;color-interpolation-filters:sRGB;fill:none;fill-rule:evenodd;stroke-linecap:square;stroke-miterlimit:3"
   inkscape:version="0.92.4 (5da689c313, 2019-01-14)"><metadata
   id="metadata22"><rdf:RDF><cc:Work
       rdf:about=""><dc:format>image/svg+xml</dc:format><dc:type
         rdf:resource="http://purl.org/dc/dcmitype/StillImage" /><dc:title></dc:title></cc:Work></rdf:RDF></metadata><defs
   id="defs20" /><sodipodi:namedview
   pagecolor="#ffffff"
   bordercolor="#666666"
   borderopacity="1"
   objecttolerance="10"
   gridtolerance="10"
   guidetolerance="10"
   inkscape:pageopacity="0"
   inkscape:pageshadow="2"
   inkscape:window-width="3840"
   inkscape:window-height="2081"
   id="namedview18"
   showgrid="false"
   units="px"
   inkscape:zoom="0.66210977"
   inkscape:cx="255.99985"
   inkscape:cy="177.32016"
   inkscape:window-x="-9"
   inkscape:window-y="-9"
   inkscape:window-maximized="1"
   inkscape:current-layer="svg16" />
	<v:documentProperties
   v:langID="2052"
   v:viewMarkup="false" />

	<style
   type="text/css"
   id="style2">
	<![CDATA[
		.st1 {fill:#1185d1;stroke:none;stroke-linecap:butt;stroke-width:0.75}
		.st2 {fill:none;fill-rule:evenodd;font-size:12px;overflow:visible;stroke-linecap:square;stroke-miterlimit:3}
	]]>
	</style>

	<g
   v:mID="0"
   v:index="1"
   v:groupContext="foregroundPage"
   id="g14"
   transform="translate(0.284115,59.153225)">
		<title
   id="title4">页-1</title>
		<v:pageProperties
   v:drawingScale="0.0393701"
   v:pageScale="0.0393701"
   v:drawingUnits="24"
   v:shadowOffsetX="9"
   v:shadowOffsetY="-9" />
		<g
   id="group107-1"
   v:mID="107"
   v:groupContext="group">
			<title
   id="title6">工作表.107</title>
			<g
   id="shape126-2"
   v:mID="126"
   v:groupContext="shape"
   transform="translate(22.806,-58.0634)">
				<title
   id="title8">path1334</title>
				<path
   d="M 337.82,190.92 300.29,169.24 V 184.7 H 108.48 l 37.35,-39.45 c 3.18,-2.55 7.33,-4.34 11.61,-4.44 17.31,0 27.59,0 31.37,-0.01 2.56,7.31 9.45,12.58 17.64,12.58 10.36,0 18.77,-8.41 18.77,-18.77 0,-10.37 -8.41,-18.77 -18.77,-18.77 -8.19,0 -15.08,5.27 -17.64,12.57 l -31,-0.01 c -8.4,0 -17.21,4.61 -22.81,10.02 0.15,-0.16 0.31,-0.33 -0.01,0 -0.12,0.13 -39.62,41.86 -39.62,41.86 -3.17,2.54 -7.33,4.32 -11.61,4.42 H 62.06 C 59.19,170.37 46.53,159.57 31.35,159.57 14.03,159.57 0,173.6 0,190.91 c 0,17.31 14.03,31.34 31.35,31.34 15.18,0 27.84,-10.8 30.72,-25.15 h 21.32 c 0.05,0 0.11,0 0.16,0 h 47.15 c 4.27,0.11 8.42,1.89 11.59,4.43 0,0 39.5,41.73 39.62,41.86 0.32,0.34 0.16,0.16 0,0 5.61,5.41 14.42,10.01 22.82,10.01 h 29.87 v 12.58 h 37.54 V 228.45 H 234.6 v 12.56 c 0,0 -7.87,-0.01 -30.24,-0.01 -4.28,-0.1 -8.44,-1.88 -11.62,-4.43 L 155.39,197.1 h 144.9 v 15.49 z"
   class="st1"
   id="path10"
   inkscape:connector-curvature="0"
   style="fill:#1185d1;stroke:none;stroke-width:0.75;stroke-linecap:butt" />
			</g>
		</g>
	</g>
</svg>