<?xml version="1.0"?>
<svg xmlns="http://www.w3.org/2000/svg" xmlns:xlink="http://www.w3.org/1999/xlink" version="1.1" id="Capa_1" x="0px" y="0px" viewBox="0 0 512 512" style="enable-background:new 0 0 512 512;" xml:space="preserve" width="512px" height="512px"><g><g>
	<path d="M180.834,84.097c-24.598,31.541-22.34,63.029-22.34,83.051h188.919c0-19.055,2.547-51.139-22.339-83.051l53.513-58.876   c5.586-6.145,5.153-15.673-0.966-21.282c-6.117-5.609-15.605-5.175-21.19,0.97L303.21,63.464   c-30.672-20.995-69.799-21.022-100.511,0L149.478,4.909c-5.587-6.145-15.074-6.579-21.191-0.97   c-6.119,5.609-6.552,15.137-0.966,21.282L180.834,84.097z" data-original="#000000" class="active-path" data-old_color="#000000" fill="#2A2A2A"/>
	<path d="M457.08,425.641c-2.813-2.825-6.628-4.412-10.606-4.412h-60.489c9.61-26.514,8.289-44.845,8.289-72.239h82.199   c8.284,0,15-6.745,15-15.064c0-8.32-6.716-15.064-15-15.064h-82.199v-72.24h52.199c3.979,0,7.794-1.587,10.606-4.412l30.5-30.631   c5.858-5.883,5.858-15.421,0-21.304c-5.857-5.883-15.355-5.883-21.213,0l-26.106,26.218h-50.349   c-3.083-7.332-7.682-13.866-13.394-19.217H269.985c0.01,0.964,0.007,313.298,0.007,314.724   c41.87-4.243,78.288-27.316,100.692-60.643h69.577l26.106,26.218c2.929,2.942,6.768,4.412,10.606,4.412   c13.244,0,20.083-16.2,10.606-25.716L457.08,425.641z" data-original="#000000" class="active-path" data-old_color="#000000" fill="#2A2A2A"/>
	<path d="M135.531,197.276c-5.721,5.351-10.337,11.878-13.422,19.217H71.723l-26.106-26.218c-5.857-5.883-15.355-5.883-21.213,0   c-5.858,5.883-5.858,15.421,0,21.304l30.5,30.631c2.813,2.825,6.628,4.412,10.606,4.412h52.236v72.24H35.51   c-8.284,0-15,6.745-15,15.064c0,8.32,6.716,15.064,15,15.064h82.236c0,26.995-1.373,45.583,8.289,72.239H65.51   c-3.979,0-7.794,1.587-10.606,4.412l-30.5,30.631c-5.858,5.883-5.858,15.421,0,21.304c5.857,5.883,15.355,5.884,21.213,0   l26.106-26.218h69.614c22.039,32.785,57.643,55.632,98.655,60.405c0-1.412-0.003-313.521,0.007-314.485H135.531z" data-original="#000000" class="active-path" data-old_color="#000000" fill="#2A2A2A"/>
</g></g> </svg>
