<?xml version="1.0" encoding="UTF-8" standalone="no"?>
<!-- 由 Microsoft Visio, SVG Export 生成 daq.svg 页-1 -->

<svg
   xmlns:v="http://schemas.microsoft.com/visio/2003/SVGExtensions/"
   xmlns:dc="http://purl.org/dc/elements/1.1/"
   xmlns:cc="http://creativecommons.org/ns#"
   xmlns:rdf="http://www.w3.org/1999/02/22-rdf-syntax-ns#"
   xmlns:svg="http://www.w3.org/2000/svg"
   xmlns="http://www.w3.org/2000/svg"
   xmlns:sodipodi="http://sodipodi.sourceforge.net/DTD/sodipodi-0.dtd"
   xmlns:inkscape="http://www.inkscape.org/namespaces/inkscape"
   width="512"
   height="256"
   viewBox="0 0 384.00025 191.99973"
   xml:space="preserve"
   class="st2"
   version="1.1"
   id="svg16"
   sodipodi:docname="daq.svg"
   style="font-size:12px;overflow:visible;color-interpolation-filters:sRGB;fill:none;fill-rule:evenodd;stroke-linecap:square;stroke-miterlimit:3"
   inkscape:version="0.92.4 (5da689c313, 2019-01-14)"><metadata
   id="metadata22"><rdf:RDF><cc:Work
       rdf:about=""><dc:format>image/svg+xml</dc:format><dc:type
         rdf:resource="http://purl.org/dc/dcmitype/StillImage" /><dc:title></dc:title></cc:Work></rdf:RDF></metadata><defs
   id="defs20" /><sodipodi:namedview
   pagecolor="#ffffff"
   bordercolor="#666666"
   borderopacity="1"
   objecttolerance="10"
   gridtolerance="10"
   guidetolerance="10"
   inkscape:pageopacity="0"
   inkscape:pageshadow="2"
   inkscape:window-width="793"
   inkscape:window-height="480"
   id="namedview18"
   showgrid="false"
   units="px"
   inkscape:zoom="0.69181459"
   inkscape:cx="245.00784"
   inkscape:cy="136.11552"
   inkscape:window-x="0"
   inkscape:window-y="0"
   inkscape:window-maximized="0"
   inkscape:current-layer="svg16" />
	<v:documentProperties
   v:langID="2052"
   v:viewMarkup="false" />

	<style
   type="text/css"
   id="style2">
	<![CDATA[
		.st1 {fill:#2a2a2a;stroke:none;stroke-linecap:butt;stroke-width:6.12}
		.st2 {fill:none;fill-rule:evenodd;font-size:12px;overflow:visible;stroke-linecap:square;stroke-miterlimit:3}
	]]>
	</style>

	<g
   v:mID="0"
   v:index="1"
   v:groupContext="foregroundPage"
   id="g14"
   transform="translate(-0.046275,-5.951935)">
		<title
   id="title4">页-1</title>
		<v:pageProperties
   v:drawingScale="0.0393701"
   v:pageScale="0.0393701"
   v:drawingUnits="24"
   v:shadowOffsetX="9"
   v:shadowOffsetY="-9" />
		<g
   id="group913-1"
   v:mID="913"
   v:groupContext="group">
			<title
   id="title6">工作表.913</title>
			<g
   id="shape926-2"
   v:mID="926"
   v:groupContext="shape"
   transform="translate(38.9764,-27.6482)">
				<title
   id="title8">工作表.926</title>
				<path
   d="m 193.21,130.5 c 7.14,0 5.1,37.1 12.59,37.1 7.48,0 4.42,-20.79 13.94,-20.79 9.53,0 7.15,36.39 15.65,36.39 8.5,0 9.18,-44.82 18.03,-44.82 8.84,0 6.46,19.36 14.62,19.36 8.17,0 7.15,-27.42 20.75,-27.6 1.02,0 2.38,0 3.41,0 8.16,-0.18 12.92,-0.18 12.92,-0.18 0.68,0 1.02,-0.18 1.02,-0.18 0,-0.18 -0.34,-0.36 -1.02,-0.36 0,0 -4.76,-0.18 -12.92,-0.18 -1.03,0 -2.05,0 -3.07,0 -13.6,0 -12.92,-27.78 -20.75,-27.78 -8.16,0 -5.78,19.36 -14.62,19.36 -8.85,0 -9.19,-44.82 -18.03,-44.82 -8.5,0 -6.12,36.39 -15.65,36.39 -9.52,0 -6.46,-20.79 -13.94,-20.79 -7.49,0 -5.79,37.1 -12.59,37.1 -11.57,0 -10.89,-22.94 -17.35,-22.94 -6.8,0 -4.76,22.59 -11.9,22.77 -3.75,0 -17.35,0 -17.35,0 -12.25,0 -13.27,-35.86 -20.07,-35.86 -6.8,0 -6.46,14.7 -13.61,14.7 -7.14,0 -6.8,-34.95 -14.28,-34.95 -7.49,0 -4.43,17.03 -13.95,17.03 -9.53,0 -7.14,-34.42 -15.99,-34.42 -8.5,0 -9.18,60.05 -18.03,60.05 -8.84,0 -4.76,-29.04 -12.92,-29.04 -8.17,0 -7.15,42.84 -20.75,43.02 -1.02,0 -2.04,0 -3.06,0 -8.17,0.18 -12.93,0.18 -12.93,0.18 -0.68,0 -1.36,0.18 -1.36,0.36 0,0.18 0.34,0.36 1.02,0.36 0,0 4.76,0.18 12.93,0.18 1.02,0 2.04,0 3.4,0 13.6,0.18 12.58,43.02 20.75,43.02 8.16,0 4.08,-29.04 12.92,-29.04 8.85,0 9.19,60.05 18.03,60.05 8.51,0 6.12,-34.59 15.65,-34.59 9.52,0 6.46,17.03 13.95,17.03 7.48,0 7.14,-34.96 14.28,-34.96 7.15,0 6.81,14.7 13.61,14.7 6.8,0 7.82,-35.85 20.07,-35.85 2.04,0 13.94,0 17.35,0 7.14,0.36 5.1,22.76 11.9,22.76 6.8,0.18 6.12,-22.76 17.35,-22.76 z"
   class="st1"
   id="path10"
   inkscape:connector-curvature="0"
   style="fill:#2a2a2a;stroke:none;stroke-width:6.11999989;stroke-linecap:butt" />
			</g>
		</g>
	</g>
</svg>