<?xml version="1.0" encoding="UTF-8" standalone="no"?>
<!DOCTYPE svg PUBLIC "-//W3C//DTD SVG 1.1//EN" "http://www.w3.org/Graphics/SVG/1.1/DTD/svg11.dtd">
<!-- 由 Microsoft Visio, SVG Export 生成 file.svg 页-1 -->
<svg xmlns="http://www.w3.org/2000/svg" xmlns:xlink="http://www.w3.org/1999/xlink" xmlns:ev="http://www.w3.org/2001/xml-events"
		xmlns:v="http://schemas.microsoft.com/visio/2003/SVGExtensions/" width="5.33333in" height="3.69417in"
		viewBox="0 0 384 265.98" xml:space="preserve" color-interpolation-filters="sRGB" class="st2">
	<v:documentProperties v:langID="2052" v:viewMarkup="false"/>

	<style type="text/css">
	<![CDATA[
		.st1 {fill:#2a2a2a;stroke:none;stroke-linecap:butt;stroke-width:0.647758}
		.st2 {fill:none;fill-rule:evenodd;font-size:12px;overflow:visible;stroke-linecap:square;stroke-miterlimit:3}
	]]>
	</style>

	<g v:mID="0" v:index="1" v:groupContext="foregroundPage">
		<title>页-1</title>
		<v:pageProperties v:drawingScale="0.0393701" v:pageScale="0.0393701" v:drawingUnits="24" v:shadowOffsetX="9"
				v:shadowOffsetY="-9"/>
		<g id="group285-1" v:mID="285" v:groupContext="group">
			<title>工作表.285</title>
			<g id="shape339-2" v:mID="339" v:groupContext="shape" transform="translate(64.0946,-13.9494)">
				<title>工作表.339</title>
				<path d="M251.91 172.5 L207.12 257.27 C204.93 261.49 198.72 265.95 193.92 265.95 L14.3 265.98 C10.51 265.98 6.87
							 264.48 4.19 261.79 C1.51 259.11 0 255.47 0 251.68 L0.03 112.2 C0.03 104.31 6.42 97.91 14.31 97.91 L27.44
							 97.89 L27.44 110.08 L18.66 110.08 C16.94 110.08 15.29 110.76 14.07 111.98 C12.85 113.19 12.17 114.84
							 12.17 116.57 L12.18 247.31 C12.18 250.9 15.09 253.8 18.67 253.8 L27.67 253.8 L70.12 167.93 C72.52 163.13
							 77.05 159.26 81.84 159.26 L185.8 159.26 L185.83 124.7 C192.62 125.33 197.98 130.96 197.98 137.91 L197.98
							 159.26 L245.66 159.26 C251.29 159.32 256.03 164.88 251.91 172.5 ZM35.73 210.58 C35.34 167.83 35.73 39.6
							 35.73 39.6 C35.73 33.13 40.99 27.87 47.45 27.87 L141.35 27.87 C142.86 27.87 144.29 28.5 145.31 29.61
							 L175.66 62.59 C176.57 63.58 177.08 64.88 177.08 66.23 L177.08 151.67 L167.24 151.67 L167.24 73.61 C167.24
							 72.26 166.14 71.16 164.79 71.16 L141.55 71.16 C138.83 71.16 136.62 68.95 136.62 66.24 L136.62 40.17
							 C136.62 38.82 135.52 37.72 134.17 37.72 L47.46 37.72 C46.42 37.72 45.58 38.56 45.58 39.6 L45.58 199.82
							 L38.04 215.07 C38.04 215.07 35.77 214.9 35.73 210.58 ZM146.48 61.32 L161.11 61.32 L146.48 45.42 L146.48
							 61.32 ZM151.81 81.19 L61.06 81.19 C57.72 81.19 55 83.91 55 87.25 C55 90.59 57.72 93.31 61.06 93.31 L151.82
							 93.31 C155.16 93.31 157.88 90.59 157.88 87.25 C157.88 83.91 155.16 81.19 151.81 81.19 ZM157.88 122.54
							 C157.88 119.2 155.16 116.49 151.81 116.49 L61.06 116.49 C57.72 116.49 55 119.2 55 122.54 C55 125.88
							 57.72 128.6 61.06 128.6 L151.82 128.6 C155.16 128.6 157.88 125.88 157.88 122.54 ZM55 158.07 C55 161.41
							 57.72 164.12 61.06 164.12 L63.24 164.12 C67.07 153.45 76.56 152.01 76.56 152.01 L61.06 152.01 C57.72
							 152.01 55 154.73 55 158.07 Z" class="st1"/>
			</g>
		</g>
	</g>
</svg>
