<?xml version="1.0" encoding="UTF-8" standalone="no"?>
<!-- 由 Microsoft Visio, SVG Export 生成 function.svg 页-1 -->

<svg
   xmlns:v="http://schemas.microsoft.com/visio/2003/SVGExtensions/"
   xmlns:dc="http://purl.org/dc/elements/1.1/"
   xmlns:cc="http://creativecommons.org/ns#"
   xmlns:rdf="http://www.w3.org/1999/02/22-rdf-syntax-ns#"
   xmlns:svg="http://www.w3.org/2000/svg"
   xmlns="http://www.w3.org/2000/svg"
   xmlns:sodipodi="http://sodipodi.sourceforge.net/DTD/sodipodi-0.dtd"
   xmlns:inkscape="http://www.inkscape.org/namespaces/inkscape"
   width="512"
   height="512"
   viewBox="0 0 384.00023 383.99965"
   xml:space="preserve"
   class="st2"
   version="1.1"
   id="svg24"
   sodipodi:docname="function.svg"
   style="font-size:12px;overflow:visible;color-interpolation-filters:sRGB;fill:none;fill-rule:evenodd;stroke-linecap:square;stroke-miterlimit:3"
   inkscape:version="0.92.4 (5da689c313, 2019-01-14)"><metadata
   id="metadata30"><rdf:RDF><cc:Work
       rdf:about=""><dc:format>image/svg+xml</dc:format><dc:type
         rdf:resource="http://purl.org/dc/dcmitype/StillImage" /><dc:title></dc:title></cc:Work></rdf:RDF></metadata><defs
   id="defs28" /><sodipodi:namedview
   pagecolor="#ffffff"
   bordercolor="#666666"
   borderopacity="1"
   objecttolerance="10"
   gridtolerance="10"
   guidetolerance="10"
   inkscape:pageopacity="0"
   inkscape:pageshadow="2"
   inkscape:window-width="793"
   inkscape:window-height="480"
   id="namedview26"
   showgrid="false"
   units="px"
   inkscape:zoom="0.66210977"
   inkscape:cx="255.99985"
   inkscape:cy="177.32016"
   inkscape:window-x="0"
   inkscape:window-y="0"
   inkscape:window-maximized="0"
   inkscape:current-layer="svg24" />
	<v:documentProperties
   v:langID="2052"
   v:viewMarkup="false" />

	<style
   type="text/css"
   id="style2">
	<![CDATA[
		.st1 {fill:#2a2a2a;stroke:none;stroke-linecap:butt;stroke-width:0.783673}
		.st2 {fill:none;fill-rule:evenodd;font-size:12px;overflow:visible;stroke-linecap:square;stroke-miterlimit:3}
	]]>
	</style>

	<g
   v:mID="0"
   v:index="1"
   v:groupContext="foregroundPage"
   id="g22"
   transform="translate(0.211915,59.026425)">
		<title
   id="title4">页-1</title>
		<v:pageProperties
   v:drawingScale="0.0393701"
   v:pageScale="0.0393701"
   v:drawingUnits="24"
   v:shadowOffsetX="9"
   v:shadowOffsetY="-9" />
		<g
   id="group1021-1"
   v:mID="1021"
   v:groupContext="group">
			<title
   id="title6">工作表.1021</title>
			<g
   id="group1029-2"
   transform="translate(78.0332,-19.2516)"
   v:mID="1029"
   v:groupContext="group">
				<title
   id="title8">工作表.1029</title>
				<g
   id="shape1030-3"
   v:mID="1030"
   v:groupContext="shape">
					<title
   id="title10">工作表.1030</title>
					<path
   d="M 207.82,38.47 V 74.6 c 0,0 -64.82,0 -65,0 -2,-8.13 -9.38,-14.07 -18.06,-14.07 -10.31,0 -18.62,8.31 -18.62,18.62 0,10.3 8.31,18.62 18.62,18.62 8.68,0 16.06,-5.95 18.06,-14.07 0.18,0 65,0 65,0 v 63.75 c 0,0 -15.69,0 -15.88,0 -2,-8.13 -9.38,-14.07 -18.06,-14.07 -10.31,0 -18.62,8.31 -18.62,18.62 0,10.3 8.31,18.61 18.62,18.61 8.68,0 16.06,-5.94 18.06,-14.06 0.19,0 15.88,0 15.88,0 v 63.74 c 0,0 -17.13,0 -17.32,0 -2,-8.12 -9.38,-14.06 -18.06,-14.06 -8.68,0 -16.06,5.94 -18.06,14.06 -0.19,0 -28,0 -28.18,0 -2,-8.12 -9.38,-14.06 -18.07,-14.06 -8.68,0 -16.06,5.94 -18.06,14.06 -0.18,0 -21.68,0 -21.86,0 -2,-8.12 -9.38,-14.06 -18.07,-14.06 -8.68,0 -16.06,5.94 -18.06,14.06 -0.18,0 -12.44,0 -12.44,0 v -63.37 c 0,0 12.26,0 12.44,0 2,8.12 9.38,14.07 18.06,14.07 8.69,0 16.07,-5.95 18.07,-14.07 0.18,0 50,0 50.19,0 1.99,8.12 9.37,14.07 18.06,14.07 10.3,0 18.62,-8.32 18.62,-18.62 0,-10.31 -8.32,-18.62 -18.62,-18.62 -8.69,0 -16.07,5.94 -18.06,14.07 -0.19,0 -50.01,0 -50.19,0 -2,-8.13 -9.38,-14.07 -18.07,-14.07 -8.68,0 -16.06,5.94 -18.06,14.07 -0.18,0 -12.44,0 -12.44,0 V 83.79 c 0,0 12.26,0 12.44,0 2,8.13 9.38,14.07 18.06,14.07 10.31,0 18.62,-8.31 18.62,-18.62 0,-10.31 -8.31,-18.62 -18.62,-18.62 -8.68,0 -16.06,5.94 -18.06,14.07 -0.18,0 -12.44,0 -12.44,0 V 38.47 H 0 v 227.51 h 19.69 v -36.12 c 0,0 12.25,0 12.44,0 2,8.12 9.38,14.07 18.06,14.07 8.68,0 16.07,-5.95 18.06,-14.07 0.19,0 21.5,0 21.68,0 2,8.12 9.38,14.07 18.07,14.07 8.68,0 16.06,-5.95 18.06,-14.07 0.18,0 27.99,0 28.18,0 2,8.12 9.38,14.07 18.06,14.07 8.68,0 16.07,-5.95 18.06,-14.07 0.19,0 17.32,0 17.32,0 v 36.12 h 19.83 V 38.47 Z"
   class="st1"
   id="path12"
   inkscape:connector-curvature="0"
   style="fill:#2a2a2a;stroke:none;stroke-width:0.78367299;stroke-linecap:butt" />
				</g>
				<g
   id="shape1031-5"
   v:mID="1031"
   v:groupContext="shape"
   transform="translate(68.7625,-168.076)">
					<title
   id="title15">工作表.1031</title>
					<circle
   cx="18.618299"
   cy="247.362"
   class="st1"
   id="ellipse17"
   r="18.618299"
   style="fill:#2a2a2a;stroke:none;stroke-width:0.78367299;stroke-linecap:butt" />
				</g>
			</g>
		</g>
	</g>
</svg>