<?xml version="1.0"?>
<svg xmlns="http://www.w3.org/2000/svg" xmlns:xlink="http://www.w3.org/1999/xlink" version="1.1" id="Capa_1" x="0px" y="0px" viewBox="0 0 408.809 408.809" style="enable-background:new 0 0 408.809 408.809;" xml:space="preserve" width="512px" height="512px" class=""><g><g>
	<g>
		<path d="M406.96,201.137l-24.094-14.457c-11.922-7.152-15.078-23.027-6.801-34.199l16.726-22.574    c1.711-2.309,0.344-5.614-2.5-6.035l-27.793-4.137c-13.754-2.047-22.742-15.504-19.371-28.988l6.817-27.262    c0.695-2.789-1.832-5.317-4.621-4.617l-27.262,6.813c-13.488,3.371-26.942-5.617-28.988-19.367l-4.138-27.798    c-0.422-2.844-3.722-4.211-6.035-2.5l-22.578,16.73c-11.172,8.278-27.043,5.117-34.195-6.805L207.671,1.849    c-1.481-2.465-5.054-2.465-6.531,0l-14.457,24.094c-7.152,11.922-23.023,15.082-34.195,6.805l-22.578-16.73    c-2.313-1.711-5.614-0.344-6.035,2.5l-4.137,27.797c-2.047,13.75-15.5,22.738-28.988,19.367l-27.262-6.813    c-2.789-0.699-5.317,1.828-4.621,4.617l6.817,27.262c3.371,13.488-5.617,26.942-19.371,28.988l-27.793,4.137    c-2.844,0.422-4.215,3.726-2.5,6.035l16.726,22.574c8.278,11.172,5.121,27.047-6.801,34.199L1.852,201.137    c-2.469,1.481-2.469,5.054,0,6.535l24.094,14.457c11.922,7.152,15.078,23.023,6.801,34.195L16.02,278.898    c-1.715,2.313-0.344,5.614,2.5,6.039l27.793,4.137c13.754,2.043,22.742,15.5,19.371,28.988l-6.818,27.262    c-0.695,2.789,1.832,5.317,4.621,4.617l27.258-6.817c13.488-3.371,26.946,5.621,28.992,19.371l4.137,27.793    c0.422,2.848,3.722,4.215,6.035,2.5l22.578-16.726c11.168-8.278,27.039-5.121,34.191,6.801l14.461,24.098    c1.481,2.465,5.05,2.465,6.531,0l14.457-24.098c7.156-11.922,23.027-15.078,34.195-6.801l22.578,16.726    c2.313,1.715,5.614,0.348,6.035-2.5l4.137-27.793c2.047-13.75,15.504-22.742,28.988-19.371l27.262,6.817    c2.789,0.699,5.317-1.828,4.621-4.617l-6.817-27.262c-3.371-13.488,5.617-26.946,19.371-28.988l27.793-4.137    c2.844-0.426,4.211-3.726,2.5-6.039l-16.73-22.574c-8.272-11.171-5.116-27.042,6.802-34.195l24.098-14.457    C409.425,206.192,409.425,202.618,406.96,201.137z M330.026,229.458c-9.55,50.383-50.18,91.016-100.562,100.566    c-90.176,17.098-167.774-60.496-150.68-150.672c9.547-50.383,50.18-91.016,100.562-100.566    C269.522,61.689,347.12,139.278,330.026,229.458z" data-original="#000000" class="active-path" data-old_color="#000000" fill="#2A2A2A"/>
	</g>
</g></g> </svg>
