<?xml version="1.0" encoding="UTF-8" standalone="no"?>
<!DOCTYPE svg PUBLIC "-//W3C//DTD SVG 1.1//EN" "http://www.w3.org/Graphics/SVG/1.1/DTD/svg11.dtd">
<!-- 由 Microsoft Visio, SVG Export 生成 lissajous.svg 页-1 -->
<svg xmlns="http://www.w3.org/2000/svg" xmlns:xlink="http://www.w3.org/1999/xlink" xmlns:ev="http://www.w3.org/2001/xml-events"
		xmlns:v="http://schemas.microsoft.com/visio/2003/SVGExtensions/" width="1.83044in" height="1.84709in"
		viewBox="0 0 131.792 132.99" xml:space="preserve" color-interpolation-filters="sRGB" class="st2">
	<v:documentProperties v:langID="2052" v:viewMarkup="false"/>

	<style type="text/css">
	<![CDATA[
		.st1 {fill:none;stroke:#2a2a2a;stroke-linecap:round;stroke-linejoin:round;stroke-width:8}
		.st2 {fill:none;fill-rule:evenodd;font-size:12px;overflow:visible;stroke-linecap:square;stroke-miterlimit:3}
	]]>
	</style>

	<g v:mID="0" v:index="1" v:groupContext="foregroundPage">
		<title>页-1</title>
		<v:pageProperties v:drawingScale="0.0393701" v:pageScale="0.0393701" v:drawingUnits="24" v:shadowOffsetX="9"
				v:shadowOffsetY="-9"/>
		<g id="group48-1" v:mID="48" v:groupContext="group">
			<title>工作表.48</title>
			<g id="shape49-2" v:mID="49" v:groupContext="shape" transform="translate(145.513,120.353) rotate(90) scale(-1,1)">
				<title>curve</title>
				<path d="M53.86 79.62 C66.01 88.73 78.24 97.9 87.98 106.14 C94.3 111.5 99.97 116.79 103.5 121.3 C105.49 123.83 107.23
							 126.67 107.23 128.93 C107.23 131.78 104.46 132.99 100.08 132.99 C93.57 132.99 83.2 130.31 71.56 125.62
							 C62.21 121.85 52.04 116.78 42.36 110.74 C35.16 106.24 28.32 101.27 22.32 95.96 C17.62 91.8 12.01 86.18
							 7.64 79.62 C2.36 71.7 0 64.1 0.57 57.15 C1.07 51.03 3.82 45.65 8.34 41.16 C12.09 37.42 16.48 34.86 19.97
							 33.19 C29.57 28.59 41.67 26.24 53.86 26.24 C66.04 26.24 78.14 28.59 87.75 33.19 C91.23 34.86 95.63 37.42
							 99.38 41.16 C103.89 45.65 106.65 51.03 107.15 57.15 C107.72 64.1 105.36 71.7 100.08 79.62 C95.71 86.18
							 90.1 91.8 85.4 95.96 C79.4 101.27 72.56 106.24 65.36 110.74 C55.68 116.78 45.5 121.85 36.15 125.62 C24.52
							 130.31 14.15 132.99 7.64 132.99 C3.26 132.99 0.49 131.78 0.49 128.93 C0.49 126.67 2.23 123.83 4.21 121.3
							 C7.74 116.79 13.41 111.5 19.74 106.14 C29.48 97.9 41.7 88.73 53.86 79.62 C66.01 70.5 78.24 61.33 87.98
							 53.09 C94.3 47.74 99.97 42.44 103.5 37.94 C105.49 35.4 107.23 32.57 107.23 30.31 C107.23 27.46 104.46
							 26.24 100.08 26.24 C93.57 26.24 83.2 28.93 71.56 33.62 C62.21 37.39 52.04 42.46 42.36 48.49 C35.16 52.99
							 28.32 57.97 22.32 63.27 C17.62 67.43 12.01 73.06 7.64 79.62 C2.36 87.53 0 95.14 0.57 102.08 C1.07 108.2
							 3.82 113.58 8.34 118.08 C12.09 121.81 16.48 124.37 19.97 126.04 C29.57 130.64 41.67 132.99 53.86 132.99
							 C66.04 132.99 78.14 130.64 87.75 126.04 C91.23 124.37 95.63 121.81 99.38 118.08 C103.89 113.58 106.65
							 108.2 107.15 102.08 C107.72 95.14 105.36 87.53 100.08 79.62 C95.71 73.06 90.1 67.43 85.4 63.27 C79.4
							 57.97 72.56 52.99 65.36 48.49 C55.68 42.46 45.5 37.39 36.15 33.62 C24.52 28.93 14.15 26.24 7.64 26.24
							 C3.26 26.24 0.49 27.46 0.49 30.31 C0.49 32.57 2.23 35.4 4.21 37.94 C7.74 42.44 13.41 47.74 19.74 53.09
							 C29.48 61.33 41.7 70.5 53.86 79.62 Z" class="st1"/>
			</g>
		</g>
	</g>
</svg>
