<?xml version="1.0" encoding="UTF-8" standalone="no"?>
<!DOCTYPE svg PUBLIC "-//W3C//DTD SVG 1.1//EN" "http://www.w3.org/Graphics/SVG/1.1/DTD/svg11.dtd">
<!-- 由 Microsoft Visio, SVG Export 生成 logo_noColor.svg 页-1 -->
<svg xmlns="http://www.w3.org/2000/svg" xmlns:xlink="http://www.w3.org/1999/xlink" xmlns:ev="http://www.w3.org/2001/xml-events"
		xmlns:v="http://schemas.microsoft.com/visio/2003/SVGExtensions/" width="5.33333in" height="3.69417in"
		viewBox="0 0 384 265.98" xml:space="preserve" color-interpolation-filters="sRGB" class="st3">
	<v:documentProperties v:langID="2052" v:viewMarkup="false"/>

	<style type="text/css">
	<![CDATA[
		.st1 {stroke:#2a2a2a;stroke-linecap:round;stroke-linejoin:round;stroke-width:16}
		.st2 {stroke:#2a2a2a;stroke-linecap:butt;stroke-width:16}
		.st3 {fill:none;fill-rule:evenodd;font-size:12px;overflow:visible;stroke-linecap:square;stroke-miterlimit:3}
	]]>
	</style>

	<g v:mID="0" v:index="1" v:groupContext="foregroundPage">
		<title>页-1</title>
		<v:pageProperties v:drawingScale="0.0393701" v:pageScale="0.0393701" v:drawingUnits="24" v:shadowOffsetX="9"
				v:shadowOffsetY="-9"/>
		<g id="group1032-1" v:mID="1032" v:groupContext="group">
			<title>工作表.1032</title>
			<g id="shape1035-2" v:mID="1035" v:groupContext="shape" transform="translate(312.771,156.361) rotate(90)">
				<title>工作表.1035</title>
				<path d="M0 265.98 L9.92 265.98" class="st1"/>
			</g>
			<g id="shape1038-5" v:mID="1038" v:groupContext="shape" transform="translate(312.771,132.976) rotate(90)">
				<title>工作表.1038</title>
				<path d="M0 265.98 L33.79 265.98" class="st2"/>
			</g>
			<g id="shape1041-8" v:mID="1041" v:groupContext="shape" transform="translate(343.657,198.881) rotate(90)">
				<title>工作表.1041</title>
				<path d="M0 265.98 L6.96 265.98" class="st1"/>
			</g>
			<g id="shape1042-11" v:mID="1042" v:groupContext="shape" transform="translate(343.657,132.976) rotate(90)">
				<title>工作表.1042</title>
				<path d="M0 265.98 L73.48 265.98" class="st2"/>
			</g>
			<g id="shape1043-14" v:mID="1043" v:groupContext="shape" transform="translate(375.547,238.566) rotate(90)">
				<title>工作表.1043</title>
				<path d="M0 265.98 L6.96 265.98" class="st1"/>
			</g>
			<g id="shape1044-17" v:mID="1044" v:groupContext="shape" transform="translate(375.547,132.976) rotate(90)">
				<title>工作表.1044</title>
				<path d="M0 265.98 L111.85 265.98" class="st2"/>
			</g>
			<g id="shape1045-20" v:mID="1045" v:groupContext="shape" transform="translate(407.437,198.881) rotate(90)">
				<title>工作表.1045</title>
				<path d="M0 265.98 L6.96 265.98" class="st1"/>
			</g>
			<g id="shape1046-23" v:mID="1046" v:groupContext="shape" transform="translate(407.437,132.976) rotate(90)">
				<title>工作表.1046</title>
				<path d="M0 265.98 L73.48 265.98" class="st2"/>
			</g>
			<g id="shape1047-26" v:mID="1047" v:groupContext="shape" transform="translate(439.327,159.196) rotate(90)">
				<title>工作表.1047</title>
				<path d="M0 265.98 L6.96 265.98" class="st1"/>
			</g>
			<g id="shape1048-29" v:mID="1048" v:groupContext="shape" transform="translate(439.327,132.976) rotate(90)">
				<title>工作表.1048</title>
				<path d="M0 265.98 L29.43 265.98" class="st2"/>
			</g>
			<g id="shape1054-32" v:mID="1054" v:groupContext="shape" transform="translate(70.8009,109.59) rotate(-90)">
				<title>工作表.1054</title>
				<path d="M0 265.98 L9.92 265.98" class="st1"/>
			</g>
			<g id="shape1055-35" v:mID="1055" v:groupContext="shape" transform="translate(70.8009,132.976) rotate(-90)">
				<title>工作表.1055</title>
				<path d="M0 265.98 L34.24 265.98" class="st2"/>
			</g>
			<g id="shape1056-38" v:mID="1056" v:groupContext="shape" transform="translate(39.9151,67.0701) rotate(-90)">
				<title>工作表.1056</title>
				<path d="M0 265.98 L6.96 265.98" class="st1"/>
			</g>
			<g id="shape1057-41" v:mID="1057" v:groupContext="shape" transform="translate(39.9151,132.976) rotate(-90)">
				<title>工作表.1057</title>
				<path d="M0 265.98 L71.09 265.98" class="st2"/>
			</g>
			<g id="shape1058-44" v:mID="1058" v:groupContext="shape" transform="translate(8.02532,27.3851) rotate(-90)">
				<title>工作表.1058</title>
				<path d="M0 265.98 L6.96 265.98" class="st1"/>
			</g>
			<g id="shape1059-47" v:mID="1059" v:groupContext="shape" transform="translate(8.02532,132.976) rotate(-90)">
				<title>工作表.1059</title>
				<path d="M0 265.98 L110.77 265.98" class="st2"/>
			</g>
			<g id="shape1060-50" v:mID="1060" v:groupContext="shape" transform="translate(-23.8644,67.0701) rotate(-90)">
				<title>工作表.1060</title>
				<path d="M0 265.98 L6.96 265.98" class="st1"/>
			</g>
			<g id="shape1061-53" v:mID="1061" v:groupContext="shape" transform="translate(-23.8644,132.976) rotate(-90)">
				<title>工作表.1061</title>
				<path d="M0 265.98 L71.09 265.98" class="st2"/>
			</g>
			<g id="shape1062-56" v:mID="1062" v:groupContext="shape" transform="translate(-55.7542,106.755) rotate(-90)">
				<title>工作表.1062</title>
				<path d="M0 265.98 L6.96 265.98" class="st1"/>
			</g>
			<g id="shape1063-59" v:mID="1063" v:groupContext="shape" transform="translate(-55.7542,132.976) rotate(-90)">
				<title>工作表.1063</title>
				<path d="M0 265.98 L31.4 265.98" class="st2"/>
			</g>
		</g>
	</g>
</svg>
