<?xml version="1.0" encoding="UTF-8" standalone="no"?>
<svg
   xmlns:dc="http://purl.org/dc/elements/1.1/"
   xmlns:cc="http://creativecommons.org/ns#"
   xmlns:rdf="http://www.w3.org/1999/02/22-rdf-syntax-ns#"
   xmlns:svg="http://www.w3.org/2000/svg"
   xmlns="http://www.w3.org/2000/svg"
   xmlns:sodipodi="http://sodipodi.sourceforge.net/DTD/sodipodi-0.dtd"
   xmlns:inkscape="http://www.inkscape.org/namespaces/inkscape"
   version="1.1"
   id="Capa_1"
   x="0px"
   y="0px"
   viewBox="0 0 369.728 369.728"
   xml:space="preserve"
   width="512"
   height="512"
   sodipodi:docname="math.svg"
   inkscape:version="0.92.4 (5da689c313, 2019-01-14)"><metadata
   id="metadata19"><rdf:RDF><cc:Work
       rdf:about=""><dc:format>image/svg+xml</dc:format><dc:type
         rdf:resource="http://purl.org/dc/dcmitype/StillImage" /><dc:title></dc:title></cc:Work></rdf:RDF></metadata><defs
   id="defs17" /><sodipodi:namedview
   pagecolor="#ffffff"
   bordercolor="#666666"
   borderopacity="1"
   objecttolerance="10"
   gridtolerance="10"
   guidetolerance="10"
   inkscape:pageopacity="0"
   inkscape:pageshadow="2"
   inkscape:window-width="3840"
   inkscape:window-height="2081"
   id="namedview15"
   showgrid="false"
   inkscape:zoom="0.4609375"
   inkscape:cx="-605.28814"
   inkscape:cy="256"
   inkscape:window-x="-9"
   inkscape:window-y="-9"
   inkscape:window-maximized="1"
   inkscape:current-layer="Capa_1" /><g
   id="g12"><g
     id="g10">
	<path
   d="m 222.796,170.7 h 121.929 c 13.469,0 24.386,-10.917 24.386,-24.386 V 24.386 C 369.11,10.917 358.194,0 344.725,0 H 222.796 C 209.327,0 198.41,10.917 198.41,24.386 v 121.929 c 0,13.468 10.925,24.385 24.386,24.385 z M 241.28,75.547 h 32.677 V 42.87 c 0,-5.422 4.398,-9.811 9.803,-9.811 5.422,0 9.811,4.398 9.811,9.811 v 32.677 h 32.677 c 5.414,0 9.803,4.389 9.803,9.803 0,5.414 -4.389,9.803 -9.803,9.803 h -32.677 v 32.677 c 0,5.414 -4.389,9.795 -9.811,9.795 -5.406,0 -9.803,-4.389 -9.803,-9.795 V 95.153 H 241.28 c -5.414,0 -9.803,-4.389 -9.803,-9.803 0.009,-5.414 4.39,-9.803 9.803,-9.803 z"
   data-original="#010002"
   class="active-path"
   data-old_color="#010002"
   id="path2"
   inkscape:connector-curvature="0"
   style="fill:#2a2a2a" />
	<path
   d="m 25.003,369.728 h 121.929 c 13.469,0 24.386,-10.917 24.386,-24.386 V 223.414 c 0,-13.469 -10.917,-24.386 -24.386,-24.386 H 25.003 c -13.469,0 -24.386,10.917 -24.386,24.386 v 121.929 c 0.001,13.46 10.917,24.385 24.386,24.385 z M 48.999,247.409 c 3.837,-3.837 10.031,-3.837 13.859,0 l 23.101,23.11 23.11,-23.11 c 3.829,-3.829 10.039,-3.829 13.867,0 3.829,3.837 3.829,10.039 0,13.867 l -23.11,23.11 23.11,23.101 c 3.829,3.829 3.82,10.031 -0.008,13.859 -3.829,3.829 -10.031,3.837 -13.859,0 l -23.11,-23.101 -23.101,23.101 c -3.829,3.829 -10.031,3.829 -13.859,0 -3.82,-3.82 -3.829,-10.031 0,-13.859 L 72.1,284.386 48.999,261.268 c -3.837,-3.82 -3.829,-10.03 0,-13.859 z"
   data-original="#010002"
   class="active-path"
   data-old_color="#010002"
   id="path4"
   inkscape:connector-curvature="0"
   style="fill:#2a2a2a" />
	<path
   d="m 25.003,170.7 h 121.929 c 13.469,0 24.386,-10.917 24.386,-24.386 V 24.386 C 171.318,10.917 160.401,0 146.932,0 H 25.003 C 11.534,0 0.618,10.917 0.618,24.386 v 121.929 c 0,13.468 10.916,24.385 24.385,24.385 z M 49.389,77.221 h 73.157 c 4.487,0 8.129,3.642 8.129,8.129 0,4.487 -3.642,8.129 -8.129,8.129 H 49.389 c -4.487,0 -8.129,-3.642 -8.129,-8.129 0,-4.487 3.642,-8.129 8.129,-8.129 z"
   data-original="#010002"
   class="active-path"
   data-old_color="#010002"
   id="path6"
   inkscape:connector-curvature="0"
   style="fill:#2a2a2a" />
	<path
   d="m 222.796,369.728 h 121.929 c 13.469,0 24.386,-10.917 24.386,-24.386 V 223.414 c 0,-13.469 -10.917,-24.386 -24.386,-24.386 H 222.796 c -13.461,0 -24.386,10.917 -24.386,24.386 v 121.929 c 0,13.46 10.925,24.385 24.386,24.385 z m 60.964,-34.489 c -6.73,0 -12.193,-5.454 -12.193,-12.193 0,-6.739 5.462,-12.193 12.193,-12.193 6.739,0 12.193,5.454 12.193,12.193 0,6.738 -5.446,12.193 -12.193,12.193 z m 0,-89.415 c 6.739,0 12.193,5.454 12.193,12.193 0,6.739 -5.454,12.193 -12.193,12.193 -6.73,0 -12.193,-5.454 -12.193,-12.193 10e-4,-6.738 5.463,-12.193 12.193,-12.193 z m -36.578,37.595 h 73.157 c 4.487,0 8.129,3.642 8.129,8.129 0,4.487 -3.642,8.129 -8.129,8.129 h -73.157 c -4.487,0 -8.129,-3.642 -8.129,-8.129 0,-4.487 3.642,-8.129 8.129,-8.129 z"
   data-original="#010002"
   class="active-path"
   data-old_color="#010002"
   id="path8"
   inkscape:connector-curvature="0"
   style="fill:#2a2a2a" />
</g></g> </svg>