<?xml version="1.0" encoding="UTF-8" standalone="no"?>
<svg
   xmlns:dc="http://purl.org/dc/elements/1.1/"
   xmlns:cc="http://creativecommons.org/ns#"
   xmlns:rdf="http://www.w3.org/1999/02/22-rdf-syntax-ns#"
   xmlns:svg="http://www.w3.org/2000/svg"
   xmlns="http://www.w3.org/2000/svg"
   xmlns:sodipodi="http://sodipodi.sourceforge.net/DTD/sodipodi-0.dtd"
   xmlns:inkscape="http://www.inkscape.org/namespaces/inkscape"
   viewBox="0 0 512 512"
   x="0px"
   y="0px"
   version="1.1"
   id="svg10"
   sodipodi:docname="noun-play-once-2135776.svg"
   width="512"
   height="512"
   style="fill:none"
   inkscape:version="0.92.4 (5da689c313, 2019-01-14)">
  <metadata
     id="metadata16">
    <rdf:RDF>
      <cc:Work
         rdf:about="">
        <dc:format>image/svg+xml</dc:format>
        <dc:type
           rdf:resource="http://purl.org/dc/dcmitype/StillImage" />
        <dc:title></dc:title>
      </cc:Work>
    </rdf:RDF>
  </metadata>
  <defs
     id="defs14" />
  <sodipodi:namedview
     pagecolor="#ffffff"
     bordercolor="#666666"
     borderopacity="1"
     objecttolerance="10"
     gridtolerance="10"
     guidetolerance="10"
     inkscape:pageopacity="0"
     inkscape:pageshadow="2"
     inkscape:window-width="1253"
     inkscape:window-height="742"
     id="namedview12"
     showgrid="false"
     inkscape:zoom="0.47"
     inkscape:cx="279.25117"
     inkscape:cy="249.23473"
     inkscape:window-x="56"
     inkscape:window-y="470"
     inkscape:window-maximized="0"
     inkscape:current-layer="svg10" />
  <path
     d="m 313.94964,315.81124 c -4.20535,4.3153 -6.54304,10.10979 -6.50547,16.13426 0.0376,6.02447 2.44625,11.79148 6.70704,16.0518 4.26033,4.26033 10.02643,6.67084 16.05091,6.70932 6.02447,0.0385 11.82126,-2.29965 16.13519,-6.50318 l 92.2705,-92.20165 -16.14803,-16.14342 -0.0916,-0.0916 -76.02169,-75.96203 c -4.31988,-4.17329 -10.10568,-6.48119 -16.11137,-6.42897 -6.00569,0.0458 -11.75072,2.45999 -15.99731,6.70795 -4.24659,4.24658 -6.65573,9.9916 -6.70796,15.99729 -0.0458,6.00568 2.25843,11.79147 6.42898,16.11136 l 36.9366,36.90906 H 22.905 c -6.07441,0 -11.90052,2.41418 -16.19613,6.70886 C 2.4119,244.10268 0,249.92695 0,256.00181 c 0,6.07486 2.41419,11.90096 6.70887,16.1961 4.29698,4.29698 10.12172,6.70886 16.19613,6.70886 h 327.99957 z"
     id="path2"
     inkscape:connector-curvature="0"
     style="fill:#2a2a2a;stroke-width:45.80999756;fill-opacity:1" />
  <path
     d="M 512,386.04703 V 125.95197 c 0,-6.07486 -2.41419,-11.90097 -6.70658,-16.19611 -4.29698,-4.29697 -10.12401,-6.70886 -16.19842,-6.70886 -6.0744,0 -11.90143,2.41418 -16.19383,6.70886 -4.29698,4.29698 -6.71117,10.12125 -6.71117,16.19611 v 260.09506 c 0,6.07486 2.41419,11.90096 6.71117,16.19611 4.2924,4.29696 10.11943,6.70886 16.19383,6.70886 6.07441,0 11.90144,-2.41419 16.19842,-6.70886 C 509.58581,397.94616 512,392.12189 512,386.04703 Z"
     id="path4"
     inkscape:connector-curvature="0"
     style="fill:#2a2a2a;stroke-width:45.80999756;fill-opacity:1" />
</svg>
