<?xml version="1.0"?>
<svg xmlns="http://www.w3.org/2000/svg" xmlns:xlink="http://www.w3.org/1999/xlink" version="1.1" id="Capa_1" x="0px" y="0px" viewBox="0 0 251.33 251.33" style="enable-background:new 0 0 251.33 251.33;" xml:space="preserve" width="512px" height="512px"><g><path d="M67.072,132.665h173.065c3.583,0,6.86,1.402,8.991,4.283c2.13,2.88,2.751,6.247,1.701,9.673l-23.917,78.134  c-1.449,4.731-5.747,7.91-10.694,7.91H43.154c-3.583,0-6.86-1.59-8.991-4.47c-2.131-2.881-2.751-6.436-1.702-9.861l23.919-78.01  C57.827,135.594,62.125,132.665,67.072,132.665z M17.951,213.818L26,186.979V92.655c0-5.509,4.668-9.99,10.177-9.99H184.49  c5.509,0,9.51,4.481,9.51,9.99v25.01h26v-58.5c0-4.143-3.024-7.5-7.167-7.5H131v-2.633c0-17.028-13.057-30.367-30.15-30.367H31.033  C13.818,18.665,0,32.004,0,49.032v158.133c0,4.143,3.69,7.5,7.833,7.5h10.052C17.961,214.383,17.864,214.1,17.951,213.818z" data-original="#000000" class="active-path" data-old_color="#000000" fill="#2A2A2A"/></g> </svg>
