<?xml version="1.0" encoding="UTF-8" standalone="no"?>
<!-- 由 Microsoft Visio, SVG Export 生成 osc.svg 页-1 -->

<svg
   xmlns:v="http://schemas.microsoft.com/visio/2003/SVGExtensions/"
   xmlns:dc="http://purl.org/dc/elements/1.1/"
   xmlns:cc="http://creativecommons.org/ns#"
   xmlns:rdf="http://www.w3.org/1999/02/22-rdf-syntax-ns#"
   xmlns:svg="http://www.w3.org/2000/svg"
   xmlns="http://www.w3.org/2000/svg"
   xmlns:sodipodi="http://sodipodi.sourceforge.net/DTD/sodipodi-0.dtd"
   xmlns:inkscape="http://www.inkscape.org/namespaces/inkscape"
   width="512"
   height="256"
   viewBox="0 0 384.00025 191.99973"
   xml:space="preserve"
   class="st2"
   version="1.1"
   id="svg16"
   sodipodi:docname="osc.svg"
   style="font-size:12px;overflow:visible;color-interpolation-filters:sRGB;fill:none;fill-rule:evenodd;stroke-linecap:square;stroke-miterlimit:3"
   inkscape:version="0.92.4 (5da689c313, 2019-01-14)"><metadata
   id="metadata22"><rdf:RDF><cc:Work
       rdf:about=""><dc:format>image/svg+xml</dc:format><dc:type
         rdf:resource="http://purl.org/dc/dcmitype/StillImage" /><dc:title></dc:title></cc:Work></rdf:RDF></metadata><defs
   id="defs20" /><sodipodi:namedview
   pagecolor="#ffffff"
   bordercolor="#666666"
   borderopacity="1"
   objecttolerance="10"
   gridtolerance="10"
   guidetolerance="10"
   inkscape:pageopacity="0"
   inkscape:pageshadow="2"
   inkscape:window-width="793"
   inkscape:window-height="480"
   id="namedview18"
   showgrid="false"
   units="px"
   inkscape:zoom="0.69181459"
   inkscape:cx="245.00784"
   inkscape:cy="136.11552"
   inkscape:window-x="0"
   inkscape:window-y="0"
   inkscape:window-maximized="0"
   inkscape:current-layer="svg16" />
	<v:documentProperties
   v:langID="2052"
   v:viewMarkup="false" />

	<style
   type="text/css"
   id="style2">
	<![CDATA[
		.st1 {fill:#2a2a2a;stroke:none;stroke-linecap:butt;stroke-width:6.12}
		.st2 {fill:none;fill-rule:evenodd;font-size:12px;overflow:visible;stroke-linecap:square;stroke-miterlimit:3}
	]]>
	</style>

	<g
   v:mID="0"
   v:index="1"
   v:groupContext="foregroundPage"
   id="g14"
   transform="translate(8.441325,-5.949335)">
		<title
   id="title4">页-1</title>
		<v:pageProperties
   v:drawingScale="0.0393701"
   v:pageScale="0.0393701"
   v:drawingUnits="24"
   v:shadowOffsetX="9"
   v:shadowOffsetY="-9" />
		<g
   id="group858-1"
   v:mID="858"
   v:groupContext="group">
			<title
   id="title6">工作表.858</title>
			<g
   id="shape890-2"
   v:mID="890"
   v:groupContext="shape"
   transform="translate(42.3938,-19.6008)">
				<title
   id="title8">工作表.890</title>
				<path
   d="m 281.93,204.17 c -21.67,0 -28.51,-35.69 -37.18,-80.89 -4.12,-21.47 -11.71,-61.1 -19.14,-65.83 -7.43,4.73 -15.03,44.36 -19.15,65.83 -8.66,45.2 -15.5,80.89 -37.18,80.89 -21.66,0 -28.5,-35.69 -37.16,-80.88 C 128.01,101.82 120.42,62.21 113,57.45 105.57,62.2 97.98,101.82 93.86,123.29 85.2,168.48 78.36,204.17 56.7,204.17 35.04,204.17 28.19,168.48 19.54,123.28 15.34,101.42 7.55,60.73 0,57.22 L 0.41,38.93 c 21.66,0 28.49,35.7 37.15,80.89 4.12,21.46 11.71,61.08 19.13,65.84 7.42,-4.76 15.02,-44.37 19.13,-65.83 8.67,-45.2 15.5,-80.9 37.17,-80.9 21.66,0 28.5,35.7 37.16,80.9 4.11,21.46 11.7,61.07 19.12,65.83 7.43,-4.74 15.03,-44.37 19.15,-65.84 8.66,-45.19 15.5,-80.89 37.18,-80.89 21.67,0 28.51,35.7 37.17,80.9 4.2,21.86 12,62.56 19.56,66.06 z"
   class="st1"
   id="path10"
   inkscape:connector-curvature="0"
   style="fill:#2a2a2a;stroke:none;stroke-width:6.11999989;stroke-linecap:butt" />
			</g>
		</g>
	</g>
</svg>