<?xml version="1.0" encoding="UTF-8" standalone="no"?>
<!DOCTYPE svg PUBLIC "-//W3C//DTD SVG 1.1//EN" "http://www.w3.org/Graphics/SVG/1.1/DTD/svg11.dtd">
<!-- 由 Microsoft Visio, SVG Export 生成 search-bar.svg 页-1 -->
<svg xmlns="http://www.w3.org/2000/svg" xmlns:xlink="http://www.w3.org/1999/xlink" xmlns:ev="http://www.w3.org/2001/xml-events"
		xmlns:v="http://schemas.microsoft.com/visio/2003/SVGExtensions/" width="5.33333in" height="3.71875in"
		viewBox="0 0 384 267.75" xml:space="preserve" color-interpolation-filters="sRGB" class="st2">
	<v:documentProperties v:langID="2052" v:viewMarkup="false"/>

	<style type="text/css">
	<![CDATA[
		.st1 {fill:#2a2a2a;stroke:none;stroke-linecap:butt;stroke-width:3.90272}
		.st2 {fill:none;fill-rule:evenodd;font-size:12px;overflow:visible;stroke-linecap:square;stroke-miterlimit:3}
	]]>
	</style>

	<g v:mID="0" v:index="1" v:groupContext="foregroundPage">
		<title>页-1</title>
		<v:pageProperties v:drawingScale="0.0393701" v:pageScale="0.0393701" v:drawingUnits="24" v:shadowOffsetX="9"
				v:shadowOffsetY="-9"/>
		<g id="group281-1" v:mID="281" v:groupContext="group">
			<title>工作表.281</title>
			<g id="group289-2" transform="translate(43.3968,-5.68434E-14)" v:mID="289" v:groupContext="group">
				<title>工作表.289</title>
				<g id="shape290-3" v:mID="290" v:groupContext="shape" transform="translate(39.8683,0)">
					<title>工作表.290</title>
					<path d="M250.28 10.3 C241.75 1.77 227.91 1.77 219.38 10.3 L156.51 73.17 C151.13 78.55 149.15 86.04 150.55 92.98
								 L135.92 107.61 C102.89 82.88 55.72 85.51 25.72 115.52 C20.27 120.97 15.74 127 12.09 133.39 C11.62
								 132.8 10.92 132.4 10.1 132.4 L6.04 132.4 C4.6 132.4 3.43 133.57 3.43 135.01 L3.43 143.13 C3.43 144.57
								 4.6 145.73 6.04 145.73 L6.34 145.73 C5.78 147.22 5.27 148.71 4.81 150.22 L0.49 153.22 C0.1 153.5
								 0 154.04 0.28 154.43 C0.55 154.83 1.09 154.92 1.49 154.65 L4.04 152.86 C2.55 158.35 1.62 163.96
								 1.24 169.61 C1.05 169.97 0.9 170.38 0.9 170.82 L0.9 178.94 C0.9 179.36 1.02 179.74 1.2 180.08 C1.42
								 183.95 1.9 187.81 2.65 191.62 L2.65 198.45 C2.65 199.83 3.74 200.93 5.09 201.02 C6.83 206.45 9.13
								 211.73 11.99 216.78 C12.03 217.63 12.49 218.35 13.16 218.79 C14.23 220.58 15.38 222.32 16.6 224.04
								 L13.55 226.16 C13.16 226.44 13.06 226.98 13.33 227.37 C13.61 227.77 14.15 227.86 14.54 227.59 L17.62
								 225.45 C17.73 225.6 17.85 225.75 17.96 225.89 L17.96 236 C17.96 236.48 18.35 236.87 18.83 236.87
								 C19.31 236.87 19.71 236.48 19.71 236 L19.71 228.14 C21.57 230.45 23.57 232.69 25.73 234.85 C58.63
								 267.75 112.17 267.75 145.08 234.85 C146.84 233.08 148.48 231.25 150.06 229.38 L150.06 233.84 C150.06
								 235.28 151.23 236.44 152.67 236.44 L156.73 236.44 C158.17 236.44 159.34 235.27 159.34 233.84 L159.34
								 225.72 C159.34 224.28 158.17 223.11 156.73 223.11 L154.85 223.11 C157.59 219.16 159.92 215.01 161.89
								 210.73 L161.89 216.23 C161.89 217.67 163.07 218.84 164.5 218.84 L168.56 218.84 C170.01 218.84 171.18
								 217.67 171.18 216.23 L171.18 208.12 C171.18 206.67 170 205.51 168.56 205.51 L164.49 205.51 C164.32
								 205.51 164.18 205.57 164.02 205.6 C165.59 201.51 166.85 197.33 167.76 193.08 C168.16 192.77 168.44
								 192.32 168.44 191.77 L168.44 190.33 L170.41 188.96 L170.41 199.76 C170.41 200.24 170.81 200.63 171.28
								 200.63 C171.76 200.63 172.15 200.24 172.15 199.76 L172.15 187.29 C172.15 186.97 171.97 186.67 171.69
								 186.52 C171.4 186.36 171.05 186.39 170.79 186.58 L168.76 187.99 C169.11 185.71 169.36 183.41 169.52
								 181.12 C169.53 181.12 169.53 181.13 169.54 181.13 C170.02 181.13 170.4 180.74 170.4 180.26 L170.4
								 167.78 C170.4 167.46 170.22 167.16 169.94 167.01 C169.74 166.91 169.51 166.92 169.3 166.98 C169.19
								 165.81 169.01 164.66 168.86 163.51 L169.33 163.51 C170.78 163.51 171.94 162.34 171.94 160.9 L171.94
								 152.79 C171.94 151.34 170.77 150.18 169.33 150.18 L165.91 150.18 C164.99 147.22 163.89 144.31 162.64
								 141.45 L162.64 134.58 C162.64 133.14 161.47 131.97 160.03 131.97 L157.82 131.97 C156.33 129.48 154.74
								 127.03 152.98 124.67 L167.61 110.04 C174.55 111.44 182.04 109.46 187.41 104.08 L250.28 41.21 C258.81
								 32.67 258.81 18.83 250.28 10.3 ZM168.55 207.25 C169.03 207.25 169.42 207.64 169.42 208.12 L169.42
								 216.23 C169.42 216.71 169.03 217.1 168.55 217.1 L164.49 217.1 C164.01 217.1 163.62 216.71 163.62
								 216.23 L163.62 208.12 C163.62 207.64 164.01 207.25 164.49 207.25 L168.55 207.25 ZM38.33 137.56 C39.67
								 135.88 41.1 134.26 42.65 132.71 L47.72 132.71 C48.63 132.71 49.37 133.45 49.37 134.37 L49.37 149.82
								 C49.37 150.74 48.63 151.48 47.72 151.48 L39.99 151.48 C39.08 151.48 38.33 150.74 38.33 149.82 L38.33
								 137.56 ZM6.04 144 C5.56 144 5.17 143.61 5.17 143.13 L5.17 135.01 C5.17 134.53 5.56 134.14 6.04 134.14
								 L10.1 134.14 C10.58 134.14 10.97 134.53 10.97 135.01 L10.97 135.41 C9.48 138.22 8.15 141.08 6.99
								 144 L6.04 144 ZM44.56 218 C44.56 218.41 44.39 218.77 44.15 219.07 C43.7 218.63 43.21 218.26 42.77
								 217.82 C39.08 214.13 36.05 210.06 33.52 205.77 L33.52 202.55 C33.52 201.64 34.27 200.9 35.18 200.9
								 L42.9 200.9 C43.82 200.9 44.56 201.64 44.56 202.55 L44.56 218 ZM46.61 221.28 C47.39 220.41 47.87
								 219.26 47.87 218 L47.87 202.55 C47.87 199.81 45.65 197.59 42.91 197.59 L35.18 197.59 C33.21 197.59
								 31.52 198.75 30.72 200.41 C22.13 181.74 23.52 159.56 35.02 142.08 L35.02 149.81 C35.02 152.55 37.25
								 154.78 39.99 154.78 L47.72 154.78 C50.46 154.78 52.68 152.55 52.68 149.81 L52.68 134.36 C52.68 131.62
								 50.46 129.4 47.72 129.4 L46.28 129.4 C69.24 109.77 103.5 110.22 125.95 130.71 C125.31 130.4 124.61
								 130.23 123.85 130.23 L116.12 130.23 C113.39 130.23 111.16 132.45 111.16 135.19 L111.16 150.65 C111.16
								 153.39 113.39 155.61 116.12 155.61 L123.85 155.61 C126.59 155.61 128.81 153.39 128.81 150.65 L128.81
								 135.19 C128.81 134.26 128.54 133.41 128.11 132.67 C137.51 142.11 143.07 153.93 144.9 166.2 C144.02
								 165.38 142.85 164.88 141.56 164.88 L133.84 164.88 C131.1 164.88 128.88 167.11 128.88 169.85 L128.88
								 185.3 C128.88 188.04 131.1 190.26 133.84 190.26 L141.56 190.26 C142.38 190.26 143.13 190.05 143.81
								 189.7 C143.22 192.11 142.5 194.5 141.6 196.83 C141.4 196.88 141.18 196.91 141 197.04 L131.9 203.38
								 C131.15 203.91 130.96 204.94 131.49 205.69 C132.01 206.44 133.04 206.63 133.79 206.11 L139.17 202.37
								 C136.35 207.93 132.67 213.16 128.02 217.81 C105.75 240.08 70.26 241.22 46.61 221.28 ZM125.5 135.19
								 L125.5 150.65 C125.5 151.56 124.76 152.3 123.85 152.3 L116.12 152.3 C115.21 152.3 114.46 151.56
								 114.46 150.65 L114.46 135.19 C114.46 134.28 115.21 133.54 116.12 133.54 L123.85 133.54 C124.76 133.54
								 125.5 134.28 125.5 135.19 ZM143.22 169.85 L143.22 185.31 C143.22 186.22 142.47 186.96 141.56 186.96
								 L133.83 186.96 C132.92 186.96 132.18 186.22 132.18 185.31 L132.18 169.85 C132.18 168.94 132.92 168.2
								 133.83 168.2 L141.56 168.2 C142.47 168.2 143.22 168.94 143.22 169.85 ZM156.72 224.86 C157.2 224.86
								 157.59 225.25 157.59 225.73 L157.59 233.85 C157.59 234.33 157.2 234.71 156.72 234.71 L152.66 234.71
								 C152.18 234.71 151.79 234.33 151.79 233.85 L151.79 227.16 C152.38 226.4 152.97 225.63 153.53 224.86
								 L156.72 224.86 ZM169.33 151.91 C169.81 151.91 170.2 152.3 170.2 152.78 L170.2 160.9 C170.2 161.38
								 169.81 161.76 169.33 161.76 L168.59 161.76 C168.06 158.45 167.39 155.16 166.47 151.91 L169.33 151.91
								 ZM160.03 133.7 C160.5 133.7 160.9 134.1 160.9 134.57 L160.9 137.53 C160.25 136.22 159.5 134.97 158.78
								 133.7 L160.03 133.7 Z" class="st1"/>
				</g>
				<g id="shape291-5" v:mID="291" v:groupContext="shape" transform="translate(123.743,-112.972)">
					<title>工作表.291</title>
					<path d="M12.69 242.37 L4.96 242.37 C2.22 242.37 0 244.59 0 247.33 L0 262.79 C0 265.52 2.22 267.75 4.96 267.75
								 L12.69 267.75 C15.43 267.75 17.66 265.52 17.66 262.79 L17.66 247.33 C17.66 244.59 15.43 242.37 12.69
								 242.37 ZM14.35 262.79 C14.35 263.7 13.6 264.44 12.69 264.44 L4.96 264.44 C4.05 264.44 3.31 263.7
								 3.31 262.79 L3.31 247.33 C3.31 246.42 4.05 245.68 4.96 245.68 L12.69 245.68 C13.6 245.68 14.35 246.42
								 14.35 247.33 L14.35 262.79 Z" class="st1"/>
				</g>
				<g id="shape292-7" v:mID="292" v:groupContext="shape" transform="translate(99.502,-112.969)">
					<title>工作表.292</title>
					<path d="M11.75 240.89 C11.2 240.6 10.55 240.65 10.04 241 L0.93 247.34 C0.18 247.87 0 248.9 0.52 249.65 C1.05
								 250.4 2.08 250.59 2.83 250.07 L9.33 245.53 L9.33 266.1 C9.33 267.01 10.08 267.75 10.99 267.75 C11.91
								 267.75 12.65 267.01 12.65 266.1 L12.65 242.36 C12.64 241.74 12.3 241.18 11.75 240.89 Z"
							class="st1"/>
				</g>
				<g id="shape293-9" v:mID="293" v:groupContext="shape" transform="translate(92.6062,-78.3113)">
					<title>工作表.293</title>
					<path d="M12.69 242.37 L4.96 242.37 C2.22 242.37 0 244.59 0 247.33 L0 262.79 C0 265.52 2.22 267.75 4.96 267.75
								 L12.69 267.75 C15.43 267.75 17.66 265.52 17.66 262.79 L17.66 247.33 C17.66 244.59 15.43 242.37 12.69
								 242.37 ZM14.35 262.79 C14.35 263.7 13.6 264.44 12.69 264.44 L4.96 264.44 C4.05 264.44 3.31 263.7
								 3.31 262.79 L3.31 247.33 C3.31 246.42 4.05 245.68 4.96 245.68 L12.69 245.68 C13.6 245.68 14.35 246.42
								 14.35 247.33 L14.35 262.79 Z" class="st1"/>
				</g>
				<g id="shape294-11" v:mID="294" v:groupContext="shape" transform="translate(68.3651,-78.3083)">
					<title>工作表.294</title>
					<path d="M11.75 240.89 C11.2 240.6 10.55 240.65 10.04 241 L0.93 247.34 C0.18 247.87 0 248.9 0.52 249.65 C1.05
								 250.4 2.08 250.59 2.83 250.07 L9.33 245.53 L9.33 266.1 C9.33 267.01 10.08 267.75 10.99 267.75 C11.91
								 267.75 12.65 267.01 12.65 266.1 L12.65 242.36 C12.64 241.74 12.3 241.18 11.75 240.89 Z"
							class="st1"/>
				</g>
				<g id="shape295-13" v:mID="295" v:groupContext="shape" transform="translate(119.885,-77.4855)">
					<title>工作表.295</title>
					<path d="M12.69 242.37 L4.97 242.37 C2.23 242.37 0 244.59 0 247.33 L0 262.79 C0 265.53 2.23 267.75 4.97 267.75
								 L12.69 267.75 C15.43 267.75 17.66 265.53 17.66 262.79 L17.66 247.33 C17.66 244.59 15.44 242.37 12.69
								 242.37 ZM14.35 262.79 C14.35 263.71 13.61 264.45 12.69 264.45 L4.97 264.45 C4.06 264.45 3.31 263.71
								 3.31 262.79 L3.31 247.34 C3.31 246.42 4.06 245.68 4.97 245.68 L12.69 245.68 C13.61 245.68 14.35
								 246.42 14.35 247.34 L14.35 262.79 Z" class="st1"/>
				</g>
				<g id="shape296-15" v:mID="296" v:groupContext="shape" transform="translate(144.503,-77.4794)">
					<title>工作表.296</title>
					<path d="M9.33 245.54 L9.33 266.1 C9.33 267.01 10.07 267.75 10.99 267.75 C11.9 267.75 12.64 267.01 12.64 266.1
								 L12.64 242.36 C12.64 241.74 12.3 241.18 11.75 240.9 C11.2 240.6 10.55 240.65 10.04 241 L0.93 247.35
								 C0.18 247.87 0 248.9 0.52 249.65 C1.05 250.4 2.08 250.59 2.83 250.07 L9.33 245.54 Z" class="st1"/>
				</g>
				<g id="shape297-17" v:mID="297" v:groupContext="shape" transform="translate(118.933,-44.7812)">
					<title>工作表.297</title>
					<path d="M12.69 242.37 L4.96 242.37 C2.22 242.37 0 244.59 0 247.33 L0 262.79 C0 265.52 2.22 267.75 4.96 267.75
								 L12.69 267.75 C15.43 267.75 17.66 265.52 17.66 262.79 L17.66 247.33 C17.66 244.59 15.43 242.37 12.69
								 242.37 ZM14.34 262.79 C14.34 263.7 13.6 264.44 12.69 264.44 L4.96 264.44 C4.05 264.44 3.31 263.7
								 3.31 262.79 L3.31 247.33 C3.31 246.42 4.05 245.68 4.96 245.68 L12.69 245.68 C13.6 245.68 14.34 246.42
								 14.34 247.33 L14.34 262.79 Z" class="st1"/>
				</g>
				<g id="shape298-19" v:mID="298" v:groupContext="shape" transform="translate(94.6918,-44.7812)">
					<title>工作表.298</title>
					<path d="M11.75 240.89 C11.2 240.6 10.55 240.65 10.04 241 L0.93 247.34 C0.18 247.87 0 248.9 0.52 249.65 C1.05
								 250.4 2.08 250.59 2.83 250.07 L9.33 245.53 L9.33 266.1 C9.33 267.01 10.08 267.75 10.99 267.75 C11.91
								 267.75 12.65 267.01 12.65 266.1 L12.65 242.36 C12.64 241.75 12.3 241.18 11.75 240.89 Z"
							class="st1"/>
				</g>
				<g id="shape299-21" v:mID="299" v:groupContext="shape" transform="translate(146.212,-43.9553)">
					<title>工作表.299</title>
					<path d="M12.69 242.37 L4.97 242.37 C2.23 242.37 0 244.59 0 247.33 L0 262.79 C0 265.53 2.23 267.75 4.97 267.75
								 L12.69 267.75 C15.43 267.75 17.66 265.53 17.66 262.79 L17.66 247.33 C17.66 244.59 15.44 242.37 12.69
								 242.37 ZM14.35 262.79 C14.35 263.71 13.61 264.45 12.69 264.45 L4.97 264.45 C4.06 264.45 3.31 263.71
								 3.31 262.79 L3.31 247.34 C3.31 246.42 4.06 245.68 4.97 245.68 L12.69 245.68 C13.61 245.68 14.35
								 246.42 14.35 247.34 L14.35 262.79 L14.35 262.79 Z" class="st1"/>
				</g>
				<g id="shape300-23" v:mID="300" v:groupContext="shape" transform="translate(218.89,-122.453)">
					<title>工作表.300</title>
					<path d="M6.67 254.42 L2.6 254.42 C1.16 254.42 0 255.59 0 257.03 L0 265.15 C0 266.58 1.17 267.75 2.6 267.75 L6.67
								 267.75 C8.11 267.75 9.27 266.58 9.27 265.15 L9.27 257.03 C9.27 255.59 8.11 254.42 6.67 254.42 ZM7.54
								 265.15 C7.54 265.63 7.15 266.02 6.67 266.02 L2.6 266.02 C2.13 266.02 1.74 265.63 1.74 265.15 L1.74
								 257.03 C1.74 256.56 2.13 256.16 2.6 256.16 L6.67 256.16 C7.14 256.16 7.54 256.56 7.54 257.03 L7.54
								 265.15 Z" class="st1"/>
				</g>
				<g id="shape301-25" v:mID="301" v:groupContext="shape" transform="translate(206.153,-122.453)">
					<title>工作表.301</title>
					<path d="M6.18 253.65 C5.89 253.49 5.54 253.52 5.28 253.71 L0.49 257.04 C0.1 257.31 0 257.86 0.28 258.25 C0.55
								 258.64 1.09 258.74 1.49 258.46 L4.9 256.08 L4.9 266.88 C4.9 267.36 5.3 267.75 5.77 267.75 C6.25
								 267.75 6.65 267.36 6.65 266.88 L6.65 254.41 C6.65 254.1 6.46 253.8 6.18 253.65 Z" class="st1"/>
				</g>
				<g id="shape302-27" v:mID="302" v:groupContext="shape" transform="translate(233.224,-122.013)">
					<title>工作表.302</title>
					<path d="M9.28 257.02 C9.28 255.58 8.11 254.42 6.67 254.42 L2.61 254.42 C1.17 254.42 0 255.59 0 257.02 L0 265.14
								 C0 266.58 1.18 267.75 2.61 267.75 L6.67 267.75 C8.11 267.75 9.28 266.57 9.28 265.14 L9.28 257.02
								 ZM7.54 265.14 C7.54 265.62 7.15 266.01 6.67 266.01 L2.61 266.01 C2.13 266.01 1.74 265.62 1.74 265.14
								 L1.74 257.02 C1.74 256.55 2.13 256.16 2.61 256.16 L6.67 256.16 C7.15 256.16 7.54 256.55 7.54 257.02
								 L7.54 265.14 Z" class="st1"/>
				</g>
				<g id="shape303-29" v:mID="303" v:groupContext="shape" transform="translate(246.151,-122.013)">
					<title>工作表.303</title>
					<path d="M6.18 253.64 C5.89 253.49 5.54 253.52 5.27 253.71 L0.49 257.04 C0.1 257.31 0 257.85 0.27 258.25 C0.55
								 258.64 1.09 258.74 1.49 258.46 L4.9 256.08 L4.9 266.88 C4.9 267.36 5.29 267.75 5.77 267.75 C6.25
								 267.75 6.65 267.36 6.65 266.88 L6.65 254.41 C6.64 254.09 6.46 253.8 6.18 253.64 Z" class="st1"/>
				</g>
				<g id="shape304-31" v:mID="304" v:groupContext="shape" transform="translate(216.862,-103.8)">
					<title>工作表.304</title>
					<path d="M2.61 267.75 L6.67 267.75 C8.11 267.75 9.28 266.57 9.28 265.14 L9.28 257.02 C9.28 255.58 8.11 254.42
								 6.67 254.42 L2.61 254.42 C1.17 254.42 0 255.59 0 257.02 L0 265.14 C0 266.58 1.18 267.75 2.61 267.75
								 ZM1.74 257.02 C1.74 256.54 2.13 256.15 2.61 256.15 L6.67 256.15 C7.15 256.15 7.54 256.54 7.54 257.02
								 L7.54 265.14 C7.54 265.62 7.15 266.01 6.67 266.01 L2.61 266.01 C2.13 266.01 1.74 265.62 1.74 265.14
								 L1.74 257.02 Z" class="st1"/>
				</g>
				<g id="shape305-33" v:mID="305" v:groupContext="shape" transform="translate(242.528,-103.8)">
					<title>工作表.305</title>
					<path d="M9.28 265.14 L9.28 257.02 C9.28 255.58 8.1 254.41 6.67 254.41 L2.61 254.41 C1.16 254.41 0 255.59 0 257.02
								 L0 265.14 C0 266.58 1.17 267.75 2.61 267.75 L6.67 267.75 C8.1 267.75 9.28 266.58 9.28 265.14 ZM7.54
								 265.14 C7.54 265.62 7.15 266.01 6.67 266.01 L2.61 266.01 C2.13 266.01 1.74 265.62 1.74 265.14 L1.74
								 257.02 C1.74 256.54 2.13 256.15 2.61 256.15 L6.67 256.15 C7.15 256.15 7.54 256.54 7.54 257.02 L7.54
								 265.14 Z" class="st1"/>
				</g>
				<g id="shape306-35" v:mID="306" v:groupContext="shape" transform="translate(229.794,-103.803)">
					<title>工作表.306</title>
					<path d="M6.18 253.64 C5.89 253.49 5.54 253.51 5.27 253.7 L0.49 257.03 C0.09 257.31 0 257.85 0.28 258.24 C0.55
								 258.64 1.09 258.73 1.48 258.46 L4.9 256.08 L4.9 266.88 C4.9 267.36 5.29 267.75 5.77 267.75 C6.25
								 267.75 6.64 267.36 6.64 266.88 L6.64 254.41 C6.64 254.09 6.46 253.8 6.18 253.64 Z" class="st1"/>
				</g>
				<g id="shape307-37" v:mID="307" v:groupContext="shape" transform="translate(216.361,-86.6237)">
					<title>工作表.307</title>
					<path d="M0 265.14 C0 266.58 1.17 267.75 2.61 267.75 L6.67 267.75 C8.11 267.75 9.28 266.57 9.28 265.14 L9.28
								 257.02 C9.28 255.58 8.1 254.41 6.67 254.41 L2.61 254.41 C1.16 254.41 0 255.59 0 257.02 L0 265.14
								 ZM1.74 257.02 C1.74 256.54 2.12 256.15 2.61 256.15 L6.67 256.15 C7.15 256.15 7.53 256.54 7.53 257.02
								 L7.53 265.14 C7.53 265.62 7.15 266.01 6.67 266.01 L2.61 266.01 C2.12 266.01 1.74 265.62 1.74 265.14
								 L1.74 257.02 Z" class="st1"/>
				</g>
				<g id="shape308-39" v:mID="308" v:groupContext="shape" transform="translate(230.696,-86.1897)">
					<title>工作表.308</title>
					<path d="M0 257.03 L0 265.14 C0 266.58 1.17 267.75 2.61 267.75 L6.67 267.75 C8.11 267.75 9.28 266.58 9.28 265.14
								 L9.28 257.03 C9.28 255.58 8.1 254.42 6.67 254.42 L2.61 254.42 C1.17 254.41 0 255.58 0 257.03 ZM7.54
								 257.03 L7.54 265.14 C7.54 265.62 7.15 266.01 6.67 266.01 L2.61 266.01 C2.13 266.01 1.74 265.62 1.74
								 265.14 L1.74 257.03 C1.74 256.55 2.13 256.16 2.61 256.16 L6.67 256.16 C7.15 256.16 7.54 256.54 7.54
								 257.03 Z" class="st1"/>
				</g>
				<g id="shape309-41" v:mID="309" v:groupContext="shape" transform="translate(243.625,-86.1897)">
					<title>工作表.309</title>
					<path d="M5.77 267.75 C6.25 267.75 6.64 267.36 6.64 266.88 L6.64 254.41 C6.64 254.09 6.46 253.79 6.18 253.64
								 C5.88 253.49 5.54 253.51 5.28 253.7 L0.49 257.03 C0.1 257.31 0 257.85 0.27 258.24 C0.55 258.63 1.09
								 258.73 1.48 258.46 L4.9 256.07 L4.9 266.88 C4.9 267.36 5.29 267.75 5.77 267.75 Z" class="st1"/>
				</g>
				<g id="shape310-43" v:mID="310" v:groupContext="shape" transform="translate(218.109,-67.1205)">
					<title>工作表.310</title>
					<path d="M6.67 254.42 L2.61 254.42 C1.17 254.42 0 255.59 0 257.03 L0 265.14 C0 266.58 1.17 267.75 2.61 267.75
								 L6.67 267.75 C8.11 267.75 9.28 266.58 9.28 265.14 L9.28 257.03 C9.28 255.59 8.11 254.42 6.67 254.42
								 ZM7.53 265.15 C7.53 265.63 7.15 266.01 6.66 266.01 L2.61 266.01 C2.12 266.01 1.74 265.63 1.74 265.15
								 L1.74 257.03 C1.74 256.55 2.12 256.16 2.61 256.16 L6.66 256.16 C7.15 256.16 7.53 256.55 7.53 257.03
								 L7.53 265.15 Z" class="st1"/>
				</g>
				<g id="shape311-45" v:mID="311" v:groupContext="shape" transform="translate(232.444,-66.6865)">
					<title>工作表.311</title>
					<path d="M6.67 254.42 L2.61 254.42 C1.17 254.42 0 255.59 0 257.03 L0 265.15 C0 266.58 1.17 267.75 2.61 267.75
								 L6.67 267.75 C8.11 267.75 9.28 266.58 9.28 265.15 L9.28 257.03 C9.28 255.59 8.1 254.42 6.67 254.42
								 ZM7.54 265.15 C7.54 265.63 7.15 266.02 6.67 266.02 L2.61 266.02 C2.13 266.02 1.74 265.63 1.74 265.15
								 L1.74 257.03 C1.74 256.55 2.13 256.16 2.61 256.16 L6.67 256.16 C7.15 256.16 7.54 256.55 7.54 257.03
								 L7.54 265.15 Z" class="st1"/>
				</g>
				<g id="shape312-47" v:mID="312" v:groupContext="shape" transform="translate(245.37,-66.6865)">
					<title>工作表.312</title>
					<path d="M6.18 253.65 C5.89 253.49 5.54 253.52 5.27 253.71 L0.49 257.04 C0.1 257.31 0 257.86 0.28 258.25 C0.55
								 258.64 1.09 258.74 1.49 258.46 L4.91 256.08 L4.91 266.88 C4.91 267.36 5.3 267.75 5.77 267.75 C6.26
								 267.75 6.65 267.36 6.65 266.88 L6.65 254.41 C6.65 254.1 6.46 253.8 6.18 253.65 Z" class="st1"/>
				</g>
				<g id="shape313-49" v:mID="313" v:groupContext="shape" transform="translate(216.084,-48.4763)">
					<title>工作表.313</title>
					<path d="M6.67 254.42 L2.61 254.42 C1.17 254.42 0 255.59 0 257.03 L0 265.14 C0 266.58 1.18 267.75 2.61 267.75
								 L6.67 267.75 C8.11 267.75 9.28 266.58 9.28 265.14 L9.28 257.03 C9.28 255.59 8.11 254.42 6.67 254.42
								 ZM7.54 265.15 C7.54 265.63 7.15 266.02 6.67 266.02 L2.61 266.02 C2.13 266.02 1.74 265.63 1.74 265.15
								 L1.74 257.03 C1.74 256.55 2.13 256.16 2.61 256.16 L6.67 256.16 C7.15 256.16 7.54 256.55 7.54 257.03
								 L7.54 265.15 Z" class="st1"/>
				</g>
				<g id="shape314-51" v:mID="314" v:groupContext="shape" transform="translate(241.751,-48.4763)">
					<title>工作表.314</title>
					<path d="M6.67 254.42 L2.61 254.42 C1.16 254.42 0 255.59 0 257.03 L0 265.14 C0 266.58 1.17 267.75 2.61 267.75
								 L6.67 267.75 C8.11 267.75 9.28 266.58 9.28 265.14 L9.28 257.03 C9.28 255.59 8.1 254.42 6.67 254.42
								 ZM7.54 265.15 C7.54 265.63 7.15 266.02 6.67 266.02 L2.61 266.02 C2.13 266.02 1.74 265.63 1.74 265.15
								 L1.74 257.03 C1.74 256.55 2.13 256.16 2.61 256.16 L6.67 256.16 C7.15 256.16 7.54 256.55 7.54 257.03
								 L7.54 265.15 Z" class="st1"/>
				</g>
				<g id="shape315-53" v:mID="315" v:groupContext="shape" transform="translate(229.017,-48.4702)">
					<title>工作表.315</title>
					<path d="M4.9 256.08 L4.9 266.88 C4.9 267.36 5.29 267.75 5.77 267.75 C6.25 267.75 6.64 267.36 6.64 266.88 L6.64
								 254.41 C6.64 254.09 6.46 253.79 6.18 253.64 C5.89 253.49 5.54 253.51 5.27 253.7 L0.49 257.03 C0.09
								 257.3 0 257.85 0.28 258.24 C0.55 258.64 1.09 258.73 1.48 258.45 L4.9 256.08 Z" class="st1"/>
				</g>
				<g id="shape316-55" v:mID="316" v:groupContext="shape" transform="translate(215.584,-31.2998)">
					<title>工作表.316</title>
					<path d="M6.66 254.42 L2.61 254.42 C1.16 254.42 0 255.59 0 257.03 L0 265.14 C0 266.58 1.17 267.75 2.61 267.75
								 L6.66 267.75 C8.11 267.75 9.28 266.58 9.28 265.14 L9.28 257.03 C9.28 255.59 8.11 254.42 6.66 254.42
								 ZM7.53 265.15 C7.53 265.63 7.15 266.02 6.66 266.02 L2.61 266.02 C2.12 266.02 1.74 265.63 1.74 265.15
								 L1.74 257.03 C1.74 256.55 2.12 256.16 2.61 256.16 L6.66 256.16 C7.15 256.16 7.53 256.55 7.53 257.03
								 L7.53 265.15 Z" class="st1"/>
				</g>
				<g id="shape317-57" v:mID="317" v:groupContext="shape" transform="translate(202.85,-31.2968)">
					<title>工作表.317</title>
					<path d="M6.18 253.64 C5.89 253.49 5.54 253.52 5.27 253.71 L0.49 257.04 C0.1 257.31 0 257.85 0.28 258.24 C0.55
								 258.64 1.1 258.73 1.49 258.46 L4.9 256.08 L4.9 266.88 C4.9 267.36 5.29 267.75 5.77 267.75 C6.25
								 267.75 6.64 267.36 6.64 266.88 L6.64 254.41 C6.64 254.09 6.46 253.79 6.18 253.64 Z" class="st1"/>
				</g>
				<g id="shape318-59" v:mID="318" v:groupContext="shape" transform="translate(229.912,-30.8598)">
					<title>工作表.318</title>
					<path d="M6.67 254.41 L2.61 254.41 C1.17 254.41 0 255.59 0 257.02 L0 265.14 C0 266.58 1.18 267.75 2.61 267.75
								 L6.67 267.75 C8.11 267.75 9.28 266.57 9.28 265.14 L9.28 257.02 C9.28 255.59 8.11 254.41 6.67 254.41
								 ZM7.54 265.15 C7.54 265.62 7.15 266.01 6.67 266.01 L2.61 266.01 C2.13 266.01 1.74 265.62 1.74 265.15
								 L1.74 257.03 C1.74 256.55 2.13 256.16 2.61 256.16 L6.67 256.16 C7.15 256.16 7.54 256.55 7.54 257.03
								 L7.54 265.15 Z" class="st1"/>
				</g>
				<g id="shape319-61" v:mID="319" v:groupContext="shape" transform="translate(242.845,-30.8598)">
					<title>工作表.319</title>
					<path d="M6.18 253.64 C5.89 253.49 5.54 253.52 5.27 253.71 L0.49 257.03 C0.1 257.31 0 257.85 0.28 258.24 C0.55
								 258.64 1.09 258.74 1.48 258.46 L4.9 256.08 L4.9 266.88 C4.9 267.36 5.29 267.75 5.77 267.75 C6.25
								 267.75 6.65 267.36 6.65 266.88 L6.65 254.41 C6.65 254.09 6.46 253.8 6.18 253.64 Z" class="st1"/>
				</g>
				<g id="shape320-63" v:mID="320" v:groupContext="shape" transform="translate(3.30327,-122.45)">
					<title>工作表.320</title>
					<path d="M9.28 257.03 C9.28 255.58 8.11 254.42 6.67 254.42 L2.61 254.42 C1.17 254.42 0 255.59 0 257.03 L0 265.15
								 C0 266.58 1.17 267.75 2.61 267.75 L6.67 267.75 C8.11 267.75 9.28 266.58 9.28 265.15 L9.28 257.03
								 ZM7.54 265.15 C7.54 265.63 7.15 266.02 6.67 266.02 L2.61 266.02 C2.13 266.02 1.74 265.63 1.74 265.15
								 L1.74 257.03 C1.74 256.55 2.13 256.16 2.61 256.16 L6.67 256.16 C7.15 256.16 7.54 256.55 7.54 257.03
								 L7.54 265.15 Z" class="st1"/>
				</g>
				<g id="shape321-65" v:mID="321" v:groupContext="shape" transform="translate(28.9669,-122.453)">
					<title>工作表.321</title>
					<path d="M6.67 254.42 L2.61 254.42 C1.17 254.42 0 255.59 0 257.03 L0 265.15 C0 266.58 1.17 267.75 2.61 267.75
								 L6.67 267.75 C8.11 267.75 9.28 266.58 9.28 265.15 L9.28 257.03 C9.28 255.59 8.11 254.42 6.67 254.42
								 ZM7.54 265.15 C7.54 265.63 7.15 266.02 6.67 266.02 L2.61 266.02 C2.13 266.02 1.74 265.63 1.74 265.15
								 L1.74 257.03 C1.74 256.56 2.13 256.16 2.61 256.16 L6.67 256.16 C7.15 256.16 7.54 256.56 7.54 257.03
								 L7.54 265.15 Z" class="st1"/>
				</g>
				<g id="shape322-67" v:mID="322" v:groupContext="shape" transform="translate(16.2331,-122.453)">
					<title>工作表.322</title>
					<path d="M6.18 253.65 C5.89 253.49 5.54 253.52 5.28 253.71 L0.49 257.04 C0.1 257.31 0 257.86 0.28 258.25 C0.55
								 258.64 1.09 258.74 1.49 258.46 L4.9 256.08 L4.9 266.88 C4.9 267.36 5.3 267.75 5.77 267.75 C6.25
								 267.75 6.65 267.36 6.65 266.88 L6.65 254.41 C6.65 254.1 6.46 253.8 6.18 253.65 Z" class="st1"/>
				</g>
				<g id="shape323-69" v:mID="323" v:groupContext="shape" transform="translate(12.6073,-104.24)">
					<title>工作表.323</title>
					<path d="M2.61 267.75 L6.67 267.75 C8.11 267.75 9.28 266.58 9.28 265.15 L9.28 257.03 C9.28 255.59 8.11 254.42
								 6.67 254.42 L2.61 254.42 C1.17 254.42 0 255.59 0 257.03 L0 265.15 C0 266.58 1.17 267.75 2.61 267.75
								 ZM1.74 257.03 C1.74 256.55 2.13 256.16 2.61 256.16 L6.67 256.16 C7.15 256.16 7.54 256.55 7.54 257.03
								 L7.54 265.14 C7.54 265.62 7.15 266.01 6.67 266.01 L2.61 266.01 C2.13 266.01 1.74 265.62 1.74 265.14
								 L1.74 257.03 Z" class="st1"/>
				</g>
				<g id="shape324-71" v:mID="324" v:groupContext="shape" transform="translate(26.9416,-103.8)">
					<title>工作表.324</title>
					<path d="M2.61 267.75 L6.67 267.75 C8.11 267.75 9.28 266.57 9.28 265.14 L9.28 257.02 C9.28 255.58 8.11 254.42
								 6.67 254.42 L2.61 254.42 C1.17 254.42 0 255.59 0 257.02 L0 265.14 C0 266.58 1.17 267.75 2.61 267.75
								 ZM1.74 257.02 C1.74 256.54 2.13 256.15 2.61 256.15 L6.67 256.15 C7.15 256.15 7.54 256.54 7.54 257.02
								 L7.54 265.14 C7.54 265.62 7.15 266.01 6.67 266.01 L2.61 266.01 C2.13 266.01 1.74 265.62 1.74 265.14
								 L1.74 257.02 Z" class="st1"/>
				</g>
				<g id="shape325-73" v:mID="325" v:groupContext="shape" transform="translate(0.777595,-86.6207)">
					<title>工作表.325</title>
					<path d="M2.61 267.75 L6.67 267.75 C8.11 267.75 9.28 266.57 9.28 265.14 L9.28 257.02 C9.28 255.58 8.11 254.41
								 6.67 254.41 L2.61 254.41 C1.17 254.41 0 255.59 0 257.02 L0 265.14 C0 266.57 1.17 267.75 2.61 267.75
								 ZM1.74 257.02 C1.74 256.54 2.13 256.15 2.61 256.15 L6.67 256.15 C7.15 256.15 7.54 256.54 7.54 257.02
								 L7.54 265.14 C7.54 265.62 7.15 266 6.67 266 L2.61 266 C2.13 266 1.74 265.62 1.74 265.14 L1.74 257.02
								 Z" class="st1"/>
				</g>
				<g id="shape326-75" v:mID="326" v:groupContext="shape" transform="translate(26.4413,-86.6207)">
					<title>工作表.326</title>
					<path d="M2.61 267.75 L6.67 267.75 C8.11 267.75 9.28 266.57 9.28 265.14 L9.28 257.02 C9.28 255.58 8.11 254.41
								 6.67 254.41 L2.61 254.41 C1.17 254.41 0 255.59 0 257.02 L0 265.14 C0 266.57 1.17 267.75 2.61 267.75
								 ZM1.74 257.02 C1.74 256.54 2.13 256.15 2.61 256.15 L6.67 256.15 C7.15 256.15 7.54 256.54 7.54 257.02
								 L7.54 265.14 C7.54 265.62 7.15 266 6.67 266 L2.61 266 C2.13 266 1.74 265.62 1.74 265.14 L1.74 257.02
								 Z" class="st1"/>
				</g>
				<g id="shape327-77" v:mID="327" v:groupContext="shape" transform="translate(13.7074,-86.6207)">
					<title>工作表.327</title>
					<path d="M5.77 267.75 C6.25 267.75 6.64 267.36 6.64 266.88 L6.64 254.41 C6.64 254.09 6.46 253.79 6.18 253.64
								 C5.89 253.49 5.54 253.51 5.27 253.7 L0.49 257.03 C0.1 257.3 0 257.84 0.28 258.24 C0.55 258.63 1.09
								 258.73 1.49 258.46 L4.9 256.07 L4.9 266.88 C4.9 267.36 5.29 267.75 5.77 267.75 Z" class="st1"/>
				</g>
				<g id="shape328-79" v:mID="328" v:groupContext="shape" transform="translate(2.52568,-67.1205)">
					<title>工作表.328</title>
					<path d="M6.67 254.42 L2.61 254.42 C1.17 254.42 0 255.59 0 257.03 L0 265.14 C0 266.58 1.17 267.75 2.61 267.75
								 L6.67 267.75 C8.11 267.75 9.28 266.58 9.28 265.14 L9.28 257.03 C9.28 255.59 8.11 254.42 6.67 254.42
								 ZM7.54 265.15 C7.54 265.63 7.15 266.01 6.67 266.01 L2.61 266.01 C2.13 266.01 1.74 265.63 1.74 265.15
								 L1.74 257.03 C1.74 256.55 2.13 256.16 2.61 256.16 L6.67 256.16 C7.15 256.16 7.54 256.55 7.54 257.03
								 L7.54 265.15 Z" class="st1"/>
				</g>
				<g id="shape329-81" v:mID="329" v:groupContext="shape" transform="translate(28.1893,-67.1205)">
					<title>工作表.329</title>
					<path d="M6.67 254.42 L2.61 254.42 C1.17 254.42 0 255.59 0 257.03 L0 265.14 C0 266.58 1.17 267.75 2.61 267.75
								 L6.67 267.75 C8.11 267.75 9.28 266.58 9.28 265.14 L9.28 257.03 C9.28 255.59 8.11 254.42 6.67 254.42
								 ZM7.54 265.15 C7.54 265.63 7.15 266.01 6.67 266.01 L2.61 266.01 C2.13 266.01 1.74 265.63 1.74 265.15
								 L1.74 257.03 C1.74 256.55 2.13 256.16 2.61 256.16 L6.67 256.16 C7.15 256.16 7.54 256.55 7.54 257.03
								 L7.54 265.15 Z" class="st1"/>
				</g>
				<g id="shape330-83" v:mID="330" v:groupContext="shape" transform="translate(15.4555,-67.1175)">
					<title>工作表.330</title>
					<path d="M6.18 253.65 C5.89 253.49 5.54 253.52 5.28 253.71 L0.49 257.04 C0.1 257.31 0 257.86 0.28 258.24 C0.55
								 258.64 1.09 258.74 1.49 258.46 L4.9 256.08 L4.9 266.88 C4.9 267.36 5.3 267.75 5.77 267.75 C6.25
								 267.75 6.65 267.36 6.65 266.88 L6.65 254.41 C6.64 254.09 6.46 253.79 6.18 253.65 Z" class="st1"/>
				</g>
				<g id="shape331-85" v:mID="331" v:groupContext="shape" transform="translate(11.8297,-48.9133)">
					<title>工作表.331</title>
					<path d="M6.67 254.42 L2.61 254.42 C1.17 254.42 0 255.59 0 257.03 L0 265.14 C0 266.59 1.17 267.75 2.61 267.75
								 L6.67 267.75 C8.11 267.75 9.28 266.58 9.28 265.14 L9.28 257.03 C9.28 255.59 8.11 254.42 6.67 254.42
								 ZM7.54 265.15 C7.54 265.63 7.15 266.01 6.67 266.01 L2.61 266.01 C2.13 266.01 1.74 265.63 1.74 265.15
								 L1.74 257.03 C1.74 256.55 2.12 256.16 2.61 256.16 L6.67 256.16 C7.15 256.16 7.54 256.55 7.54 257.03
								 L7.54 265.15 Z" class="st1"/>
				</g>
				<g id="shape332-87" v:mID="332" v:groupContext="shape" transform="translate(26.164,-48.4763)">
					<title>工作表.332</title>
					<path d="M6.67 254.42 L2.61 254.42 C1.17 254.42 0 255.59 0 257.03 L0 265.14 C0 266.58 1.17 267.75 2.61 267.75
								 L6.67 267.75 C8.11 267.75 9.28 266.58 9.28 265.14 L9.28 257.03 C9.28 255.59 8.11 254.42 6.67 254.42
								 ZM7.54 265.15 C7.54 265.63 7.15 266.02 6.67 266.02 L2.61 266.02 C2.13 266.02 1.74 265.63 1.74 265.15
								 L1.74 257.03 C1.74 256.55 2.13 256.16 2.61 256.16 L6.67 256.16 C7.15 256.16 7.54 256.55 7.54 257.03
								 L7.54 265.15 Z" class="st1"/>
				</g>
				<g id="shape333-89" v:mID="333" v:groupContext="shape" transform="translate(39.0937,-48.4702)">
					<title>工作表.333</title>
					<path d="M4.9 256.08 L4.9 266.88 C4.9 267.36 5.29 267.75 5.77 267.75 C6.25 267.75 6.64 267.36 6.64 266.88 L6.64
								 254.41 C6.64 254.09 6.46 253.79 6.18 253.64 C5.89 253.49 5.54 253.51 5.27 253.7 L0.49 257.03 C0.1
								 257.3 0 257.85 0.28 258.24 C0.55 258.64 1.09 258.73 1.49 258.45 L4.9 256.08 Z" class="st1"/>
				</g>
				<g id="shape334-91" v:mID="334" v:groupContext="shape" transform="translate(0,-31.2968)">
					<title>工作表.334</title>
					<path d="M6.67 254.41 L2.61 254.41 C1.17 254.41 0 255.59 0 257.03 L0 265.14 C0 266.58 1.17 267.75 2.61 267.75
								 L6.67 267.75 C8.11 267.75 9.28 266.58 9.28 265.14 L9.28 257.03 C9.28 255.59 8.11 254.41 6.67 254.41
								 ZM7.54 265.15 C7.54 265.63 7.15 266.01 6.67 266.01 L2.61 266.01 C2.13 266.01 1.74 265.63 1.74 265.15
								 L1.74 257.03 C1.74 256.55 2.13 256.16 2.61 256.16 L6.67 256.16 C7.15 256.16 7.54 256.55 7.54 257.03
								 L7.54 265.15 Z" class="st1"/>
				</g>
				<g id="shape335-93" v:mID="335" v:groupContext="shape" transform="translate(25.6606,-31.2998)">
					<title>工作表.335</title>
					<path d="M6.67 254.42 L2.61 254.42 C1.17 254.42 0 255.59 0 257.03 L0 265.14 C0 266.58 1.17 267.75 2.61 267.75
								 L6.67 267.75 C8.11 267.75 9.28 266.58 9.28 265.14 L9.28 257.03 C9.28 255.59 8.11 254.42 6.67 254.42
								 ZM7.54 265.15 C7.54 265.63 7.15 266.02 6.67 266.02 L2.61 266.02 C2.13 266.02 1.74 265.63 1.74 265.15
								 L1.74 257.03 C1.74 256.55 2.13 256.16 2.61 256.16 L6.67 256.16 C7.15 256.16 7.54 256.55 7.54 257.03
								 L7.54 265.15 Z" class="st1"/>
				</g>
				<g id="shape336-95" v:mID="336" v:groupContext="shape" transform="translate(12.9298,-31.2968)">
					<title>工作表.336</title>
					<path d="M6.18 253.64 C5.89 253.49 5.54 253.52 5.27 253.71 L0.49 257.04 C0.1 257.31 0 257.85 0.28 258.24 C0.55
								 258.64 1.09 258.73 1.49 258.46 L4.9 256.08 L4.9 266.88 C4.9 267.36 5.29 267.75 5.77 267.75 C6.25
								 267.75 6.64 267.36 6.64 266.88 L6.64 254.41 C6.64 254.09 6.46 253.79 6.18 253.64 Z" class="st1"/>
				</g>
				<g id="shape337-97" v:mID="337" v:groupContext="shape" transform="translate(39.9949,-30.8598)">
					<title>工作表.337</title>
					<path d="M6.67 254.41 L2.61 254.41 C1.17 254.41 0 255.59 0 257.02 L0 265.14 C0 266.58 1.17 267.75 2.61 267.75
								 L6.67 267.75 C8.11 267.75 9.28 266.57 9.28 265.14 L9.28 257.02 C9.28 255.59 8.11 254.41 6.67 254.41
								 ZM7.54 265.15 C7.54 265.62 7.15 266.01 6.67 266.01 L2.61 266.01 C2.13 266.01 1.74 265.62 1.74 265.15
								 L1.74 257.03 C1.74 256.55 2.13 256.16 2.61 256.16 L6.67 256.16 C7.15 256.16 7.54 256.55 7.54 257.03
								 L7.54 265.15 Z" class="st1"/>
				</g>
			</g>
		</g>
	</g>
</svg>
