<?xml version="1.0" encoding="UTF-8" standalone="no"?>
<!DOCTYPE svg PUBLIC "-//W3C//DTD SVG 1.1//EN" "http://www.w3.org/Graphics/SVG/1.1/DTD/svg11.dtd">
<!-- 由 Microsoft Visio, SVG Export 生成 single.svg 页-1 -->
<svg xmlns="http://www.w3.org/2000/svg" xmlns:xlink="http://www.w3.org/1999/xlink" xmlns:ev="http://www.w3.org/2001/xml-events"
		xmlns:v="http://schemas.microsoft.com/visio/2003/SVGExtensions/" width="5.33333in" height="3.69417in"
		viewBox="0 0 384 265.98" xml:space="preserve" color-interpolation-filters="sRGB" class="st3">
	<v:documentProperties v:langID="2052" v:viewMarkup="false"/>

	<style type="text/css">
	<![CDATA[
		.st1 {fill:#2a2a2a;stroke:#2a2a2a;stroke-linecap:butt;stroke-width:1.37143}
		.st2 {fill:#2a2a2a;stroke:#2a2a2a;stroke-linecap:round;stroke-linejoin:round;stroke-width:0.5}
		.st3 {fill:none;fill-rule:evenodd;font-size:12px;overflow:visible;stroke-linecap:square;stroke-miterlimit:3}
	]]>
	</style>

	<g v:mID="0" v:index="1" v:groupContext="foregroundPage">
		<title>页-1</title>
		<v:pageProperties v:drawingScale="0.0393701" v:pageScale="0.0393701" v:drawingUnits="24" v:shadowOffsetX="9"
				v:shadowOffsetY="-9"/>
		<g id="group120-1" v:mID="120" v:groupContext="group">
			<title>工作表.120</title>
			<g id="group121-2" transform="translate(28.3465,-17.0079)" v:mID="121" v:groupContext="group">
				<title>工作表.121</title>
				<g id="shape122-3" v:mID="122" v:groupContext="shape">
					<title>工作表.122</title>
					<path d="M210.25 43.2 L111.39 43.2 C49.97 43.2 0 93.17 0 154.59 C0 216.01 49.97 265.98 111.39 265.98 L210.25
								 265.98 C271.67 265.98 321.64 216.01 321.64 154.59 C321.64 93.17 271.67 43.2 210.25 43.2 ZM210.25
								 245.3 L111.39 245.3 C61.37 245.3 20.68 204.61 20.68 154.59 C20.68 104.57 61.37 63.87 111.39 63.87
								 L210.25 63.87 C260.27 63.87 300.96 104.57 300.96 154.59 C300.96 204.61 260.27 245.3 210.25 245.3
								 Z" class="st1"/>
				</g>
				<g id="shape123-5" v:mID="123" v:groupContext="shape" transform="translate(365.3,139.326) rotate(90)">
					<title>工作表.123</title>
					<path d="M74.72 192.22 L26.23 151.68 C15.83 142.98 0 150.38 0 163.94 L0 245.02 C0 258.58 15.83 265.98 26.23 257.28
								 L74.72 216.74 C82.36 210.35 82.36 198.61 74.72 192.22 Z" class="st1"/>
				</g>
			</g>
			<g id="shape124-7" v:mID="124" v:groupContext="shape" transform="translate(129.502,-155.906)">
				<title>工作表.124</title>
				<rect x="0" y="242.846" width="119.327" height="23.134" rx="11.567" ry="11.567" class="st2"/>
			</g>
		</g>
	</g>
</svg>
