<?xml version="1.0" encoding="UTF-8" standalone="no"?>
<!DOCTYPE svg PUBLIC "-//W3C//DTD SVG 1.1//EN" "http://www.w3.org/Graphics/SVG/1.1/DTD/svg11.dtd">
<!-- 由 Microsoft Visio, SVG Export 生成 stop.svg 页-1 -->
<svg xmlns="http://www.w3.org/2000/svg" xmlns:xlink="http://www.w3.org/1999/xlink" xmlns:ev="http://www.w3.org/2001/xml-events"
		xmlns:v="http://schemas.microsoft.com/visio/2003/SVGExtensions/" width="5.37143in" height="3.73227in"
		viewBox="0 0 386.743 268.723" xml:space="preserve" color-interpolation-filters="sRGB" class="st3">
	<v:documentProperties v:langID="2052" v:viewMarkup="false"/>

	<style type="text/css">
	<![CDATA[
		.st1 {fill:#d50f25;stroke:none;stroke-linecap:butt;stroke-width:1.37143}
		.st2 {fill:#d50f25;stroke:none;stroke-linecap:round;stroke-linejoin:round;stroke-width:0.5}
		.st3 {fill:none;fill-rule:evenodd;font-size:12px;overflow:visible;stroke-linecap:square;stroke-miterlimit:3}
	]]>
	</style>

	<g v:mID="0" v:index="1" v:groupContext="foregroundPage">
		<title>页-1</title>
		<v:pageProperties v:drawingScale="0.0393701" v:pageScale="0.0393701" v:drawingUnits="24" v:shadowOffsetX="9"
				v:shadowOffsetY="-9"/>
		<g id="group2-1" transform="translate(1.37143,-1.37143)" v:mID="2" v:groupContext="group">
			<title>工作表.2</title>
			<g id="shape3-2" v:mID="3" v:groupContext="shape">
				<title>工作表.3</title>
				<path d="M251.01 2.74 L132.99 2.74 C59.66 2.74 0 62.4 0 135.73 C0 209.06 59.66 268.72 132.99 268.72 L251.01 268.72
							 C324.34 268.72 384 209.06 384 135.73 C384 62.4 324.34 2.74 251.01 2.74 ZM251.01 244.04 L132.99 244.04
							 C73.27 244.04 24.69 195.45 24.69 135.73 C24.69 76.01 73.27 27.43 132.99 27.43 L251.01 27.43 C310.73
							 27.43 359.31 76.01 359.31 135.73 C359.31 195.45 310.73 244.04 251.01 244.04 Z" class="st1"/>
			</g>
			<g id="shape5-4" v:mID="5" v:groupContext="shape" transform="translate(142.616,-85.9232)">
				<title>工作表.5</title>
				<rect x="0" y="170.394" width="98.3287" height="98.3288" rx="14.1732" ry="14.1732" class="st2"/>
			</g>
		</g>
	</g>
</svg>
